<?xml version="1.0" encoding="UTF-8"?>
<!DOCTYPE svg PUBLIC "-//W3C//DTD SVG 1.1//EN" "http://www.w3.org/Graphics/SVG/1.1/DTD/svg11.dtd">
<!-- Creator: CorelDRAW X8 -->
<svg xmlns="http://www.w3.org/2000/svg" xml:space="preserve" width="104px" height="93px" version="1.1" style="shape-rendering:geometricPrecision; text-rendering:geometricPrecision; image-rendering:optimizeQuality; fill-rule:evenodd; clip-rule:evenodd"
viewBox="0 0 1463606 1312998"
 xmlns:xlink="http://www.w3.org/1999/xlink">
 <defs>
  <style type="text/css">
   <![CDATA[
    .fil0 {fill:#727372;fill-rule:nonzero}
   ]]>
  </style>
 </defs>
 <g id="Слой_x0020_1">
  <metadata id="CorelCorpID_0Corel-Layer"/>
  <path class="fil0" d="M162099 753094l369878 0 0 -192091 253573 185663 0 -185663 253724 185663 0 -185663 262383 192091 0 450661 -1139558 0 0 -450661zm82332 -42848l205197 0 -29942 -710246 -145446 0 -29809 710246zm-1432 153373l0 59867 188378 0 0 -59867 -188378 0zm263182 0l0 59867 188211 0 0 -59867 -188211 0zm263016 0l0 59867 188228 0 0 -59867 -188228 0zm263183 0l0 59867 188061 0 0 -59867 -188061 0zm-1032380 364782l1463606 0 0 84597 -1463606 0 0 -84597z"/>
 </g>
</svg>
