<?xml version="1.0" encoding="UTF-8"?>
<!DOCTYPE svg PUBLIC "-//W3C//DTD SVG 1.1//EN" "http://www.w3.org/Graphics/SVG/1.1/DTD/svg11.dtd">
<!-- Creator: CorelDRAW X8 -->
<svg xmlns="http://www.w3.org/2000/svg" xml:space="preserve" width="68px" height="67px" version="1.1" style="shape-rendering:geometricPrecision; text-rendering:geometricPrecision; image-rendering:optimizeQuality; fill-rule:evenodd; clip-rule:evenodd"
viewBox="0 0 593284 585843"
 xmlns:xlink="http://www.w3.org/1999/xlink">
 <defs>
  <style type="text/css">
   <![CDATA[
    .fil0 {fill:#727372;fill-rule:nonzero}
   ]]>
  </style>
 </defs>
 <g id="Слой_x0020_1">
  <metadata id="CorelCorpID_0Corel-Layer"/>
  <path class="fil0" d="M570110 543128c-42829,42113 -81757,46482 -104816,40629 -27658,-6942 -52907,-19417 -77472,-33302 -72769,-41761 -135660,-91160 -197252,-151954 -61593,-60752 -112497,-123735 -154725,-195478 -14176,-24181 -26661,-49440 -33749,-76547 -5884,-22697 -1494,-61106 41336,-103219 24948,-26360 47219,-30023 79660,-12433 33334,17549 60192,42809 80460,74669 13076,20860 13876,42114 2190,64063 -4784,9164 -9278,17943 -14373,26713 -13772,22707 -10679,50893 5189,72147 20662,27450 23464,32555 67881,76506 44428,43556 49617,46472 77368,66636 21358,15754 50115,19034 72873,5501 8780,-5148 18162,-9517 27056,-14270 22157,-11737 44116,-10648 65080,2180 32150,20122 57898,46482 75872,79432 17269,31860 13668,53809 -12578,78727z"/>
 </g>
</svg>
