<svg xmlns="http://www.w3.org/2000/svg" width="401" height="109" viewBox="0 0 13233039 3591572" shape-rendering="geometricPrecision" text-rendering="geometricPrecision" image-rendering="optimizeQuality" fill-rule="evenodd" clip-rule="evenodd"><defs><style>.fil0{fill:#727372;fill-rule:nonzero}</style></defs><g id="Слой_x0020_1"><path class="fil0" d="M4263568 1741598l214 862665h121490c93852 0 179029-35761 254787-107294 75860-71522 113908-158220 113908-262268v-123541c0-100793-35660-187490-107294-260105-71747-72614-158659-109457-261401-109457h-121704zm-123011 862665l-112-862665h-123766c-101762 0-189755 35761-262697 108375-34791 34680-61989 73697-81718 118133l-18308 66102-6400 39017v161476c0 102967 36527 189665 109029 262268 72502 71533 159200 107294 261074 107294h122898zm-112 123551h-122899c-64907 0-126041-10838-183367-33597-57550-21678-111192-57438-160934-104038-14636-15176-35220-40098-61664-74778-17238-27096-33169-56356-47793-88872-26443-61776-39457-125715-39457-191828v-123541c113-133308 47794-248185 143821-346803 46059-46599 98731-82371 158772-107294 30228-11920 61336-21677 92658-28178 31964-6501 64153-10838 97964-10838h122899v-183153c0-13002 6399-26004 18432-40099 12563-14083 26871-20596 43129-20596 14737 0 28934 5420 41935 15177 13014 10838 19841 26015 19841 45518v183153h121490c136554 0 252511 48773 348212 143054 95902 95373 143696 212424 143696 350059v123541c0 133308-47794 249266-143696 347884-44009 44437-96782 79116-158017 107294-14636 5419-28607 9757-40966 14095-13002 4337-28607 8664-47580 13002-18635 3256-35434 6501-50284 7582-14523 2175-31648 3256-51365 3256h-121490l-214 305623c214 20585-5644 35761-17125 46600-11707 10838-26342 15165-44437 15165-7368 0-21778-4327-43129-15165-12033-8676-18432-24934-18432-46600v-305623zm1719492 121377c102 68277-23851 126808-71206 174489-47253 47681-105671 70440-174263 70440h-245582c-68818 0-127236-22759-174377-70440-47365-47681-71307-106212-71307-174489v-735868c0-61775 23626-118132 70000-169069 46498-50926 105244-76941 175684-76941h245582c67837 0 125715 23841 173937 70440 47681 47692 71532 106212 71532 175570v735868zm-123225 0v-735868c0-34679-11706-63939-35445-86698-23626-23840-52988-35760-86912-35760h-245143c-34251 0-63623 11920-87137 35760-23841 22759-35659 52019-35659 86698v735868c0 33598 11818 62858 35659 86698 23626 23852 52886 35772 87137 35772h245256c33913 0 63398-11920 86799-35772 23739-23840 35445-53100 35445-86698zm492134 122470h368909c31749 0 60142-11920 84422-36853 24820-24922 37067-53101 37067-86698v-735868c-112-33598-11819-62858-35659-85617-23627-23840-52346-35760-86045-35760h-368694v980796zm0 122459v431338c0 14084-6614 28178-19728 41180-13002 14095-27198 20596-41935 20596-14523 0-28832-5419-41834-16258-13013-10839-19841-26015-19841-45518V1929089c0-41180 20596-61776 61675-61776h430898c66215 0 123541 23841 171774 70440 48222 47692 72502 105130 72502 173407v736950c0 68277-23413 125715-70339 174489-47253 47681-105232 71521-173937 71521h-369235zm1719267-60683c-214 19503-6174 34679-17339 46600-11594 9746-26342 14083-44436 14083-7583 0-21779-4337-43130-14083-12145-9757-18432-26015-18432-46600v-901692l-255216 381482c-14635 23840-31975 35772-51590 35772-18861 0-35986-11932-51478-35772l-255328-381482v901692c0 19503-5746 34679-17024 46600-11808 9746-26545 14083-44651 14083-7470 0-21677-4337-43129-14083-12033-9757-18421-26015-18421-46600l-113-1105430c113-17339 6501-32516 18534-44436 12247-11920 26871-18421 44436-18421 7256 0 16033 2163 25576 7582 10072 2164 18094 8665 24708 20596l317002 474681 316778-473599c14196-19514 31862-29260 52886-29260 8349 0 20483 5419 36301 17339 16157 11921 24066 27086 24066 46600v1104348zm858552 60683h-366531c-67837 0-126256-23840-174477-71521-48234-48774-72401-106212-72401-174489v-920103c0-13013 6287-27096 18421-40098 12461-14095 26669-21678 43141-21678 14737 0 28933 6501 41834 17340 13001 9757 19829 24922 19829 44436v920103c0 33597 12574 62857 37282 87779 25035 23852 53641 35772 86371 35772h366531V1928007c0-13013 6287-27096 18636-40098 12359-14095 26657-21678 43028-21678 14737 0 28831 6501 41935 17340 12787 9757 19615 24922 19615 44436v1408879c0 67195-23514 124633-70440 173396-47253 47692-105018 72614-173835 72614h-369664c-10410 0-25902-6501-45191-18421-10951-13013-15931-28178-15931-43355 0-7582 4653-21677 14737-43343 9430-11932 25035-18432 46385-18432h369337c33496 0 62317-11921 85842-35761 23840-23841 35546-52019 35546-86698v-242766zm1105532-60683c0 19503-5634 34679-17013 46600-11808 9746-26556 14083-44324 14083-7695 0-21891-4337-43140-14083-12236-9757-18635-26015-18635-46600V1990865h-257717l-234744 1056656c-7368 31434-26330 46599-57652 46599-17339 0-31862-5419-45089-16258-12462-10838-18850-24922-18850-43343l1409-15176 245469-1104349c7695-31423 27739-47681 60469-47681h368480c40967 0 61337 20596 61337 61776v1104348zm859420-184246v-858326h-367613c-34466 0-63939 11920-87352 35760-23840 22759-35547 52019-35547 86698v735868c0 33598 11707 62858 35547 86698 23413 23852 52886 35772 87352 35772h244928c34251 0 63399-11920 86924-35772 23840-23840 35761-53100 35761-86698zm206351 126808c29474 9746 44650 29260 44650 57438 0 18421-5859 32505-17565 45518-9532 11920-23514 18421-41608 18421l-22004-3256c-18320-4337-37935-15165-59286-34679-7143-4338-23401-19503-49089-47681-48008 55264-109784 82360-184134 82360h-245571c-68716 0-126807-22759-174162-70440-47365-47681-71420-106212-71420-174489v-735868c0-61775 23627-118132 70113-169069 46611-50926 105232-76941 175469-76941h429705c41180 0 61663 20596 61663 61776v919021c0 24922 7594 50937 22432 76952 11920 19503 32516 35761 60807 50937zm285568-536468l-113 593906c113 20585-5847 35761-17013 46600-11706 10838-26443 15165-44436 15165-7695 0-21891-4327-43129-15165-12146-8676-18748-24934-18748-46600V1435975c0-13002 6602-27085 18748-41180 12461-14083 26770-20596 43129-20596 14850 0 28719 5420 41946 16258 12890 9757 19616 24934 19616 45518v797644l627053-833405c12473-17339 28404-26015 47693-26015 15165 0 29259 6513 43129 19514 13869 11921 21136 27097 21136 43344 0 13013-4664 24933-13328 36853l-436645 580894 442165 952618 3797 16258c0 6501 969 9757 2704 13002 0 14095-6715 28178-19829 41180-12788 11921-27525 17340-43896 17340l-28392-7583-24494-28178-415722-894099-205371 274189zm1903716 532130c40865 0 61449 20585 61449 60683v121389c0 15165-6929 28178-19717 41180-13013 13002-27096 19503-41732 19503-14737 0-29147-5420-41935-15165-12901-10839-19942-26015-19942-45518v-59613h-736736v59613c0 15165-6613 28178-19728 41180-12788 13002-27198 19503-41619 19503-14737 0-29148-5420-42048-15165-13115-10839-19616-26015-19616-45518v-121389c0-40098 20382-60683 61021-60683h65562l118560-1540012c0-17351 5532-31435 16484-41192l15604-9745 29260-6513h492235c40752 0 61021 20596 61021 61776v1532430l61877 3256zm-670949 0h486061V1497751h-373348l-112713 1473910z"/><path class="fil0" d="M4263568 1741598h-4338l215 867002h125827c94934 0 181305-35760 257717-108375 76614-71533 115417-160394 115304-265524v-123541c113-101874-36189-189665-108477-263350-72501-73696-160833-110550-264544-110550h-126042v4338h4338v4338h121704c101649 0 187265 35761 258359 108375 70992 71522 105998 157138 106099 256849v123541c-101 102967-37597 188583-112701 259023-75105 71522-159099 106212-251757 106212h-117152l-225-858338h-4327v4338-4338zm-123011 862665h4338l-225-867003h-127991c-102843 0-192031 36854-265727 109457-35119 35772-62644 74778-82473 120296h-226l-18533 66113-6389 40099h-112v161476c0 104048 37067 192910 110324 265524 73155 71533 161273 108375 264116 108375h127236v-4337h-4338v-4327h-122898c-100793 0-186296-35772-258043-106212-71747-71533-107722-157149-107722-259023v-160394l6287-40099 18308-65021-4225-1081 4011 2163c19402-44436 46386-82360 80738-117039 72288-71533 158986-107294 259666-107294h119541v858327h4337v-4327 4327zm-112 123551v-4337h-122899c-64479 0-125061-10839-181846-33598-56897-21666-110110-56357-159537-102956l-2918 3256 3030-3256c-14410-15165-34893-39017-61235-73696l-3459 2174 3685-2174c-17239-27085-33057-56357-47580-87780l-3898 1082 3898-1082c-26116-61775-39017-125714-39017-190746v-123541c113-132216 47253-246010 142626-344640l-3143-2163 3031 3245c45630-46600 97863-81279 157464-107282l-1723-3257 1622 4338c30015-13002 60796-22759 91903-28178 31637-7583 63500-10839 97097-10839h127124v-187490c0-10839 5746-23841 17452-36843 12033-14095 24933-19514 39884-19514 13543 0 26872 4338 39231 14095 12033 10838 18208 23840 18208 42262v187490h125827c135573 0 250236 47681 345169 141973 95160 94281 142413 210250 142514 346803v1082l4225-1082h-4225v123541c-101 132227-47253 247103-142514 344639-43670 43355-95914 79116-156709 106213l1735 4326-1623-4326c-14421 5408-28392 10827-40752 14083l1409 4338-1409-4338c-12787 4338-28178 8675-47038 13002l867 4338-867-4338c-18523 3256-35220 6501-49845 8675-14421 1082-31321 2164-50937 2164h-125827l-215 309960v1082c0 18421-5419 32505-15829 43343l3042 2175-2817-3256c-10839 9757-24280 14094-41732 14094l112 4327 327-4327c-6287 0-20596-4337-41619-14094l-1837 3256 2704-3256c-10838-8665-16799-22759-16911-43344v-309960h-4225v4337h-4225v305623c-102 22759 6613 40099 20055 50937h754c21678 9746 36088 15166 44651 15166h439c18635 0 34567-5420 47140-16258h214c12135-11921 18422-28179 18422-48763v-1082h-4327 4327l225-301285h117152c19830 0 37057-1082 51906-3256h113-113c15064-1082 31863-4338 50611-7583h112c18962-4337 34679-8675 47907-13002 12461-4337 26544-8675 41281-15176h113c61663-27097 114989-62857 159312-108375 96782-98618 145004-215669 145004-350059l-101-123541c101-138728-48121-256849-144903-352222-96342-96455-213607-145229-351242-145229h-117152v-178815c0-20596-7380-36843-21463-48763-13543-10839-28933-16258-44651-16258-17666 0-33270 7582-46272 21677-12574 14084-19514 29260-19514 43344v178815h-118674c-34138 0-66643 4338-98832 10838l868 4338-868-4338c-31648 6513-62970 16258-93311 28179h-113c-60469 26015-113795 61776-160180 108375-96771 98629-145004 215669-145116 350059v123541c0 66113 13227 131134 39884 193991 14737 32516 30781 61776 48121 88873h112c26443 35760 47141 59612 62092 74777h112c50070 47693 104150 83454 162242 106212 57866 22759 119529 33598 184989 33598h122899v-4338h-4225 4225zm1719492 121377h-4337c0 68277-23300 124634-69899 171233-46499 46600-103610 69359-171233 69359h-245582c-67849 0-124848-22759-171346-69359-46599-46599-70012-104037-70012-171233v-735868c0-60694 22985-115957 68818-165813 45844-50937 103181-75859 172540-75859h245582c66857 0 123439 22759 170906 69358 47027 46600 70226 102956 70226 172314v735868h8562v-735868c102-70440-24167-130052-72727-178815-48976-47692-108150-71533-176967-71533h-245582c-71421 0-131675 26015-178928 78034-47039 52019-70992 109457-70992 172314v735868c-102 69359 24392 128971 72513 177734 47895 47692 107609 71533 177407 71533h245582c69572 0 129399-23841 177294-71533 48121-48763 72502-108375 72400-177734h-4225zm-123225 0h4338v-735868c102-34679-12247-66102-36853-89954l-2930 3256 3042-3256c-24392-24922-54948-36842-89954-36842h-245143c-35220 0-66001 11920-90281 36842l3144 3256-3031-3256c-24607 23852-36955 55275-36854 89954v735868c-101 34680 12247 65032 36741 89954 24382 23841 54949 36854 90281 36854h245256c35006 0 65674-13013 89841-36854 24494-24922 36843-55274 36741-89954h-8563c-112 32516-11278 60695-34251 83454-22759 22758-50824 34679-83768 34679h-245256c-33271 0-61235-11921-84106-34679-23075-22759-34240-50938-34353-83454v-735868c113-33597 11278-60694 34251-83441h102c22871-23852 50835-34691 84106-34691h245143c33057 0 60908 10839 83881 34691 22973 22747 34139 49844 34251 83441v735868h4225zm492134 122470v4338h368909c32831 0 62530-13013 87565-37935l-3143-3256 3030 3256c25587-24934 38262-55275 38262-89954v-735868c0-34679-12247-65021-36955-88873l-2929 3256 3031-3256c-24269-24922-54396-36842-89076-36842h-373032v989472h4338v-4338h4225v-976470h364469c32618 0 60143 10839 82902 34691h112c23086 22747 34240 49844 34353 82360v735868c-113 32516-11707 59612-35761 83453-23627 23840-50723 35761-81391 35761h-368909v4337h4225-4225zm0 122459h-4338v431338c0 13002-5960 26004-18320 37935h-101c-12461 13002-25474 19503-39017 19503l113 4338v-4338c-13554 0-26770-5419-39017-15176h-113c-11920-9746-18207-23841-18207-42262V1929089c0-19514 4991-33598 14196-43355 9217-8664 23300-14083 43141-14083h430898c65235 0 121265 22759 168743 69358 47467 46600 71195 102956 71195 170151v736950c0 67195-22860 123551-69032 171233-46498 47681-103170 70440-170906 70440h-373573v4337h4338v4338h369235c69685 0 129073-23841 177080-73696 47580-48763 71533-107294 71533-176652v-736950c0-69358-24820-128971-73808-176652-48988-47692-107610-71533-174805-71533h-430898c-21249 0-37823 5420-49202 17340-11380 10839-16698 27097-16698 48774v1596369c-101 20596 7267 36842 21351 48763l2715-3245-2715 3245c13655 10838 28933 17351 44436 17351h113c16145 0 31423-7594 45078-21678l-3143-3256 3031 3256c13554-13013 20922-28178 20922-44436v-431338h-4225v4338-4338zm1719267-60683h-4337c-214 18421-5746 33587-16044 43344l3042 3256-2716-3256c-10726 8675-24494 13002-41720 13002-5961 0-20269-4327-41395-14084l-1735 4338 2704-3256c-10838-8665-16798-22759-16798-43344v-915776l-263136 393403h-102c-14309 23840-30138 33597-47906 33597-16912 0-32730-9757-47907-33597l-263136-393403v915776c0 18421-5419 32505-15931 43344l3144 3256-2704-3256c-10952 8675-24607 13002-41947 13002-5847 0-20156-4327-41292-14084l-1837 4338 2817-3256c-10952-8665-16799-22759-16912-43344l-101-1105430c101-16258 5960-30352 17227-41191 11593-11920 24821-17340 41405-17340 6174 0 14523 2175 23627 6512l541 1082h642c8461 1082 15390 7583 21677 18421h113l320686 480101 320349-479019-3571-2163 3470 2163c13655-18421 29800-27097 49416-27097 6399 0 18320 5420 33812 16258l2489-3245-2489 3245c15176 11921 22105 24934 22218 43355v1104348h4337-4337 8562V1929089c113-20596-8776-36854-25575-49856h-113c-16258-11920-28606-18421-38904-18421-22432 0-41620 10839-56458 31423l-313206 468180-313430-469261-3572 2174 3684-2174c-6940-11921-15931-20585-27637-22759l-755 4337 2062-3256c-9971-5419-19402-8664-27638-8664-18646 0-34577 6501-47467 19503l3031 3256-2929-3256c-12890 13013-19717 29260-19830 47692l113 1105430c-113 21666 6715 39006 19931 49845h439l541 1092c21677 8665 35761 14084 44864 14084 18861 0 34792-4338 47366-15176h327c12247-13002 18308-29260 18308-49845v-887598l247419 369562 3583-2174-3583 2174c15830 24923 34251 37924 55061 37924 21564 0 40312-13001 55275-37924l-3685-2174 3572 2174 247317-369562v887598c0 21666 6715 39006 19943 49845h540l429 1092c21789 8665 35760 14084 44977 14084 18860 0 34679-4338 47140-15176h327c12134-13002 18421-29260 18533-49845h-4225zm858552 60683v-4337h-366531c-66868 0-123867-22759-171447-70440-47467-47682-71093-104038-71206-171233v-920103c0-10838 5634-23852 17340-37935l-3144-2163 3144 2163c11920-13002 24821-19503 39997-19503 13655 0 26770 5419 39006 16247h112c11921 9757 18207 22759 18207 41191v920103c0 34679 13115 65020 38578 89954 25688 24922 55602 37935 89413 37935h370756V1928007c0-10838 5747-23852 17554-37935 11819-13002 24821-19503 39885-19503 13542 0 26657 5419 39231 16247 11706 8675 17880 22759 17993 41191l101 1408879c0 67195-23086 122459-69358 170151-46487 47681-102956 71521-170692 71521h-369664c-8777 0-24066-6500-42915-18421l-2276 4338 3358-3256c-10411-11920-14963-26004-14963-40099-101-6501 4237-20584 14309-41180l-3898-2163 3470 2163c8338-10838 22320-16258 42915-16258h369337c34465 0 64705-11920 88872-36842 24596-23852 36843-54193 36741-89954v-247103h-4225v4337h-4337v242766c0 33597-11267 60683-34251 84535-22759 22758-50284 33597-82800 33597h-369337c-22116 0-39343 6501-49743 20585h-540c-10197 21677-14963 35760-15075 45517 0 16258 5318 31435 16911 45518l440 1082h540c19616 11920 35434 19514 47467 19514h369664c69798 0 128971-24934 176866-73696 47692-49856 71747-108375 71747-176652l-102-1408879c0-20595-7368-36853-21136-47692l-2715 3256 2715-3256c-13655-11920-28832-18421-44650-18421-17667 0-33384 8675-46273 22759-12687 14083-19728 29259-19728 43354v1039317h-362194c-31648 0-58959-11921-83442-34679l-2929 3244 2929-3244c-23851-23841-35873-52019-35873-84535v-920103c0-20595-7481-36853-21576-47692l-2591 3256 2704-3256c-13442-11920-28607-18421-44538-18421-17779 0-33384 8675-46385 22759-12574 14083-19514 29259-19514 43354v920103c-102 69358 24708 127889 73696 176652 48988 49855 108589 73696 177519 73696h366531v-4338h-4337 4337zm1105532-60683h-4225c0 18421-5419 33587-15931 43344l3143 3256-2817-3256c-10951 8675-24381 13002-41507 13002-6072 0-20268-4327-41405-14084l-1735 4338 2715-3256c-11053-8665-17013-22759-17013-43344V1986527h-265524l-235386 1059912 4112 1082-4112-1082c-7594 30342-23739 43344-53540 43344-16472 0-29699-4327-42374-15166l-2715 3245 2816-3245c-11481-9757-17339-22759-17339-40098h-4327l4327 1082 1307-15177 245469-1104337-4225-1093 4225 1093c7583-30353 25035-43355 56244-44436h368480c19729 0 33925 5419 43028 14083 9205 9757 14084 22759 14084 43355v1104348h8563V1929089c112-21677-5307-37935-16585-48774-11380-11920-27953-17340-49090-17340h-368480c-34240 0-56999 18422-64592 50937l-245571 1105431-1409 15176c0 19503 6828 34679 20258 46599 13881 11921 29586 17340 47906 17340 32832 1082 54509-17340 61877-49856l233877-1053411h250134v1038246c-113 21666 6715 39006 20043 49845h440l540 1092c21678 8665 35660 14084 44977 14084 18636 0 34466-4338 47039-15176h214c12349-13002 18534-29260 18422-49845h-4338zm859420-184246h4337v-862664h-371950c-35322 0-66215 11920-90383 36842l3031 3256-2918-3256c-24708 23852-36955 55275-36854 89954v735868c-101 34680 12146 65032 36854 89954 24055 23841 54836 36854 90270 36854h244928c35220 0 65675-13013 89954-36854 24607-24922 37068-55274 37068-89954h-8563c-112 32516-11379 60695-34577 83454-22861 22758-50611 34679-83882 34679h-244928c-33373 0-61551-11921-84208-34679-23187-22759-34240-50938-34353-83454v-735868c113-33597 11166-60694 34251-83441h102c22657-23852 50723-34691 84208-34691h363387v854000h4226zm206351 126808l-1307 3245c28178 10839 41405 27097 41732 54193-113 17340-5419 30342-16483 42262h-214c-8664 10839-21137 17340-38251 17340v4337l541-4337-22004-3256-541 4337 1081-4337c-17441-4327-36628-15166-57438-33587h-755c-5960-3256-22657-19514-48120-47692l-3256-3245-3144 3245c-47354 55275-107609 81279-180877 81279h-245571c-67736 0-124419-22759-171131-69359-46599-46599-70113-104037-70113-171233v-735868c0-60694 22973-115957 68919-165813 45957-50937 103068-75859 172325-75859h429705c19942 0 34025 5419 43242 14083 9103 9757 13982 22759 14083 43355v919021c0 26015 8022 52019 23086 79115h112c12461 20596 33699 37936 62418 52019h654l1307-3245 1949-4338c-27852-14094-47794-30352-59072-48773l-3684 2174 3797-2174c-14636-26004-22004-50938-22004-74778v-919021c0-21677-5307-37935-16574-48774-11379-11920-28077-17340-49314-17340h-429705c-71318 0-131359 26015-178612 78034-47242 52019-71195 109457-71195 172314v735868c0 69359 24596 128971 72615 177734 48109 47692 107507 71533 177192 71533h245571c75432 0 138616-27097 187390-84535l-3256-2163-3257 2163c26016 29260 41947 44436 50183 49856l2163-4338-2817 3256c21576 19503 41834 30342 61021 35761h214l22331 3256h541c19176 0 34679-7594 44977-20596l-3369-2163 3144 3245c12472-14084 18748-30342 18748-48763 225-30352-16901-52030-47569-61776l-1408 4338 1949-4338-1949 4338zm285568-536468h-4225l-225 593906v1082c0 18421-5634 32505-15819 43343l3143 2175-2929-3256c-10613 9757-24269 14094-41608 14094l101 4327 327-4327c-6614 0-20697-4337-41620-14094l-1836 3256 2603-3256c-10738-8665-16912-22759-17025-43344V1435975c0-11920 5961-24922 17667-37924l-3245-3256 3143 3256c11921-14095 24922-19514 39986-19514 13656 0 26556 4338 39231 15176 11819 9757 17993 22759 18106 42262v810657l634748-844254c12033-16247 26229-23841 44223-23841 13756 0 26871 5419 40199 17340 13340 13013 19729 26015 19729 41180 0 11931-4225 22759-12360 33597l-438154 584150 443032 954781 3685 15177 4123-1082h-4225c0 6501 868 10839 3358 15177l3571-2175h-4326c0 13002-5960 26015-18647 37935l3144 3245-3031-3245c-11920 10839-25474 16258-41079 16258l214 4327 1093-3245-27096-7583-23199-27096-418538-899518-210464 280689v1082h4225l3470 2174 201033-267687 412906 888679 25801 29260 29586 7583h1296c17340 0 33271-6501 46600-18422h112c13757-14094 21238-28178 21238-44436v-1081l-755-1082c-980-2175-1949-5419-1949-10839l-3910-16258-101-1081-441309-950456 435022-579811c9205-11921 14309-24922 14309-39017 0-18421-8022-33587-22657-46600-14197-14083-29474-20584-45946-20584-20709 0-38150 9746-51152 27085l3459 3256-3459-3256-619268 823659v-784642c113-21677-7255-37924-21238-48762l-2704 3244 2704-3244c-13655-11921-28820-17340-44650-17340-17666 0-33383 7582-46385 21677l-102 1082c-12359 14083-19615 28178-19615 43343v1597462c0 22759 6929 40099 20258 50937h867c21463 9746 35772 15166 44763 15166h428c18433 0 34465-5420 46926-16258h327c11819-11921 18320-28179 18207-48763v-1082l214-593906h-4326l3470 2174-3470-2174zm1903716 532130v4338c19841 0 33812 4327 43028 14084 9216 8664 14095 22759 14196 42261v121389c-101 13002-6174 26004-18534 39017l3042 2163-3042-2163c-12348 11920-25463 17339-38791 18421l101 3245 113-3245c-13870-1082-27198-5419-39344-15176-11920-9757-18207-23841-18309-42262v-63950h-745298v63950c-113 14083-5859 26004-18534 39017-12247 11920-25361 17339-38803 18421l215 3245v-3245c-13656-1082-27086-5419-39333-15176-11920-9757-17880-23841-17993-42262v-121389c113-19502 4879-33597 13982-42261 9104-9757 23086-14084 42701-14084h69573l118786-1544350c101-16258 5092-28179 15063-37936l-2816-3256 2275 4338 14951-9757 28179-6501h491694c19728 0 33597 5419 42814 14095 9103 9746 13982 23840 13982 43343v1535686l65888 4338h214v-4338l225-4337-57765-3256V1435975c0-21677-5317-37924-16472-48762-11278-11921-27862-17340-48886-17340h-492674l-29688 6501h-767l-16246 10839h-654c-11920 10838-17880 26003-17880 44436h4326l-4225-1093-118234 1536768h-61663c-21024 0-37496 5419-48774 16258-11165 11920-16472 28178-16472 48762v121389c-112 20584 7042 36842 21024 48762 13768 10839 29159 16258 44650 16258h215c15717 0 31220-6500 44661-20595 13644-13002 21024-28167 21024-44425v-55275h728173v55275c-113 20584 7368 37924 21452 48762 13441 10839 28831 16258 44549 16258h214c15717 0 31107-6500 44650-20595 13329-13002 21024-28167 21024-44425v-121389c0-20584-5420-37924-16686-48762-11380-10839-27965-16258-49101-16258v4337l225-4337-225 4337zm-670949 0v4338h490399V1493413h-381697l-113366 1482586h4664v-4338h4225l112387-1469572h365122v1465235h-481734v4337h4225-4225zM3690911 494195l188031 298029 4766 16258c0 7594-3143 14095-9543 21678-6388 5419-13655 7582-21564 7582-5194 0-9645-1081-13216-2163-3583-2163-7155-6501-10738-10839l-179142-283945-65234 72614v195073c0 8676-2828 16258-8462 22759-5520 4338-12787 6501-21564 6501-3572 0-10512-2163-20911-6501-5961-5419-9003-13001-9003-22759V268781c0-6513 3042-13014 9003-19514 5960-6501 13001-9758 20911-9758 7154 0 13982 2175 20370 7594 6400 5420 9656 11921 9656 21678v254674l247959-273107c6828-7582 14084-10839 22218-10839 7155 0 13983 2175 20585 8676 6613 6501 9870 14083 9870 21677 0 7583-2817 15165-8349 20585l-185643 203748zM4332273 718528c0 33598-11593 61776-34679 84535-23198 23841-51478 34679-85076 34679h-119754c-33598 0-61878-10838-85076-34679-23187-22759-34679-50937-34679-84535V358723c0-29259 11267-57438 34138-82360 22647-24933 51264-36854 85617-36854h119754c33159 0 61449 10839 84749 33598 23300 23841 35006 52019 35006 85616v359805zm-59827 0V358723c0-16258-5847-30341-17441-42261-11492-11921-25688-17340-42487-17340h-119754c-16799 0-30995 5419-42487 17340-11594 11920-17441 26003-17441 42261v359805c0 16258 5847 30353 17441 42273 11492 11921 25688 17340 42487 17340h119754c16799 0 30995-5419 42487-17340 11594-11920 17441-26015 17441-42273zM4751578 508290V268781c0-6513 3031-13014 8991-19514 5960-6501 12900-9758 20922-9758 7256 0 14084 2175 20483 7594 6287 5420 9532 11921 9532 21678v539701c0 8676-2817 16258-8450 22759-5532 4338-12788 6501-21565 6501-3583 0-10512-2163-20922-6501-5960-5419-8991-13001-8991-22759V568973h-239509v239509c0 8676-2817 16258-8451 22759-5644 4338-12787 6501-21575 6501-3572 0-10614-2163-20912-6501-5960-5419-8991-13001-8991-22759V268781c0-6513 3031-13014 8991-19514 5960-6501 13002-9758 20912-9758 7267 0 13982 2175 20381 7594 6388 5420 9645 11921 9645 21678v239509h239509zM5260612 837742h-209596c-33485 0-61878-10838-84963-34679-23187-22759-34792-50937-34792-84535V358723c0-29259 11379-57438 34138-82360 22759-24933 51377-36854 85617-36854h209596c7267 0 13982 3257 20483 8676 6287 6501 9543 14083 9543 20596 0 7582-2603 14083-7808 20584-5194 6501-12563 9757-22218 9757h-209596c-16687 0-30995 5419-42476 17340-11605 11920-17340 26003-17340 42261v359805c0 16258 5735 30353 17340 42273 11481 11921 25789 17340 42476 17340h209596c7267 0 13982 3245 20483 9757 6287 6501 9543 13002 9543 20584 0 6501-2603 14095-7808 19515-5194 6500-12563 9745-22218 9745zM5650015 299122h-179695v509360c0 8676-2816 16258-8450 22759-5532 4338-12675 6501-21463 6501-3684 0-10613-2163-21024-6501-5960-5419-8991-13001-8991-22759V268781c0-19514 9972-29272 30015-29272h389290c33057 0 61337 10839 84749 33598 23300 23841 35006 52019 35006 85616v449759c0 8676-2817 16258-8349 22759-5633 4338-12787 6501-21564 6501-3572 0-10625-2163-21024-6501-5960-5419-8991-13001-8991-22759V358723c0-16258-5746-30341-17340-42261-11604-11921-25688-17340-42487-17340h-119754v509360c0 8676-2930 16258-8451 22759-5644 4338-12787 6501-21575 6501-3572 0-10614-2163-20912-6501-6072-5419-8990-13001-8990-22759V299122zM6129135 837742v209168c0 7583-3144 14095-9532 20596-6399 6501-13227 9746-20381 9746-7256 0-13971-3245-20371-8664-6388-4338-9532-11921-9532-21678V268781c0-19514 9972-29272 29903-29272h210249c32302 0 60255 10839 83780 33598 23626 23841 35333 52019 35333 84535v359805c0 33597-11492 61776-34364 85616-22973 22759-51253 34679-84749 34679h-180336zm0-59601h180336c15503 0 29373-5419 41293-18421 11920-11920 17993-26015 17993-42273V358723c0-17339-5859-30341-17452-42261-11594-11921-25576-17340-41834-17340h-180336v479019zM6847889 837742h-179041c-33158 0-61562-11920-85076-34679-23626-23840-35332-52019-35332-85616V268781c0-6513 2929-13014 9002-19514 5960-6501 12889-10839 20911-10839 7155 0 13982 3256 20370 8675 6400 4327 9543 11921 9543 21678v448666c0 17339 6175 31434 18320 43354 12135 11921 26218 17340 42262 17340h179041V268781c0-6513 3030-13014 8990-19514 5961-6501 12901-10839 21024-10839 7155 0 13870 3256 20269 8675 6389 4327 9645 11921 9645 21678v688175c0 32516-11492 60694-34465 84535s-51152 35761-84749 35761h-180337c-5205 0-12573-3245-22105-9746-5205-5419-7808-13013-7808-20596 0-3256 2389-10838 7155-20595 4765-6501 12359-8665 22758-8665h180337c16359 0 30341-6500 41946-17339 11594-11920 17340-26015 17340-43355V837742zM7194680 494195l188032 298029 4777 16258c0 7594-3143 14095-9543 21678-6388 5419-13543 7582-21565 7582-5205 0-9644-1081-13227-2163-3571-2163-7143-6501-10726-10839l-179029-283945-65359 72614v195073c0 8676-2704 16258-8337 22759-5645 4338-12788 6501-21576 6501-3572 0-10613-2163-20911-6501-6073-5419-9104-13001-9104-22759V268781c0-6513 3031-13014 9104-19514 5960-6501 12900-9758 20911-9758 7154 0 13982 2175 20382 7594 6286 5420 9531 11921 9531 21678v254674l247971-273107c6828-7582 14196-10839 22218-10839 7143 0 13971 2175 20585 8676 6613 6501 9858 14083 9858 21677 0 7583-2817 15165-8337 20585l-185655 203748zM7746314 299122h-179683v509360c0 8676-2817 16258-8450 22759-5532 4338-12788 6501-21576 6501-3572 0-10512-2163-20911-6501-5960-5419-8991-13001-8991-22759V268781c0-19514 9971-29272 29902-29272h389403c33158 0 61336 10839 84749 33598 23299 23841 35006 52019 35006 85616v449759c0 8676-2828 16258-8349 22759-5633 4338-12901 6501-21565 6501-3684 0-10624-2163-21024-6501-5960-5419-9002-13001-9002-22759V358723c0-16258-5746-30341-17339-42261-11594-11921-25790-17340-42476-17340h-119867v509360c0 8676-2817 16258-8349 22759-5521 4338-12788 6501-21565 6501-3571 0-10624-2163-20911-6501-5960-5419-9002-13001-9002-22759V299122zM8524883 718528c0 33598-11481 61776-34679 84535-23187 23841-51591 34679-85076 34679h-119754c-33598 0-61878-10838-85076-34679-23187-22759-34781-50937-34781-84535V358723c0-29259 11380-57438 34240-82360 22759-24933 51264-36854 85617-36854h119754c33170 0 61449 10839 84862 33598 23299 23841 34893 52019 34893 85616v359805zm-59815 0V358723c0-16258-5859-30341-17351-42261-11695-11921-25790-17340-42589-17340h-119754c-16799 0-30995 5419-42476 17340-11706 11920-17453 26003-17453 42261v359805c0 16258 5747 30353 17453 42273 11481 11921 25677 17340 42476 17340h119754c16799 0 30894-5419 42589-17340 11492-11920 17351-26015 17351-42273zM8704577 837742v209168c0 7583-3256 14095-9543 20596-6388 6501-13114 9746-20370 9746-7267 0-13982-3245-20382-8664-6388-4338-9532-11921-9532-21678V268781c0-19514 9971-29272 29914-29272h210249c32404 0 60255 10839 83769 33598 23626 23841 35333 52019 35333 84535v359805c0 33597-11380 61776-34466 85616-22871 22759-51151 34679-84636 34679h-180336zm0-59601h180336c15492 0 29260-5419 41282-18421 12033-11920 17993-26015 17993-42273V358723c0-17339-5848-30341-17340-42261-11593-11921-25575-17340-41935-17340h-180336v479019zM9453334 837742h-209697c-33496 0-61889-10838-84974-34679-23187-22759-34680-50937-34680-84535V358723c0-29259 11278-57438 34037-82360 22748-24933 51253-36854 85617-36854h209697c7155 0 13982 3257 20382 8676 6388 6501 9532 14083 9532 20596 0 7582-2603 14083-7797 20584-5093 6501-12574 9757-22117 9757h-209697c-16698 0-30894 5419-42487 17340-11594 11920-17340 26003-17340 42261v359805c0 16258 5746 30353 17340 42273 11593 11921 25789 17340 42487 17340h209697c7155 0 13982 3245 20382 9757 6388 6501 9532 13002 9532 20584 0 6501-2603 14095-7797 19515-5093 6500-12574 9745-22117 9745zM9770123 494195l188031 298029 4766 16258c0 7594-3143 14095-9543 21678-6276 5419-13543 7582-21565 7582-5194 0-9531-1081-13216-2163-3582-2163-7041-6501-10624-10839l-179142-283945-65348 72614v195073c0 8676-2715 16258-8348 22759-5634 4338-12788 6501-21565 6501-3583 0-10624-2163-20922-6501-6062-5419-9104-13001-9104-22759V268781c0-6513 3042-13014 9104-19514 5960-6501 12900-9758 20922-9758 7256 0 13982 2175 20370 7594 6400 5420 9543 11921 9543 21678v254674l248073-273107c6602-7582 14083-10839 22105-10839 7155 0 14084 2175 20697 8676 6614 6501 9859 14083 9859 21677 0 7583-2817 15165-8450 20585l-185643 203748zM10411597 718528c0 33598-11604 61776-34679 84535-23198 23841-51590 34679-85075 34679h-119868c-33485 0-61776-10838-84963-34679-23198-22759-34791-50937-34791-84535V358723c0-29259 11379-57438 34138-82360 22759-24933 51365-36854 85616-36854h119868c33158 0 61336 10839 84749 33598 23299 23841 35005 52019 35005 85616v359805zm-59826 0V358723c0-16258-5848-30341-17452-42261-11594-11921-25790-17340-42476-17340h-119868c-16686 0-30882 5419-42487 17340-11593 11920-17339 26003-17339 42261v359805c0 16258 5746 30353 17339 42273 11605 11921 25801 17340 42487 17340h119868c16686 0 30882-5419 42476-17340 11604-11920 17452-26015 17452-42273zM10591280 568973v149555c0 16258 5746 30353 17452 42273 11594 11921 25678 17340 42375 17340h209697c7268 0 13983 3245 20382 9757 6388 6501 9644 13002 9644 20584 0 6501-2715 14095-7909 19515-5092 6500-12574 9745-22117 9745h-209697c-33496 0-61889-10838-84974-34679-23187-22759-34781-50937-34781-84535V358723c0-29259 11380-57438 34240-82360 22657-24933 51264-36854 85515-36854h119856c33169 0 61449 10839 84749 33598 23412 23841 35118 52019 35118 85616v179909c0 19502-10083 30341-30026 30341h-269524zm0-60683h239622V358723c0-16258-5858-30341-17339-42261-11706-11921-25903-17340-42600-17340h-119856c-16697 0-30781 5419-42375 17340-11706 11920-17452 26003-17452 42261v149567zM11693454 273107l1194 1082 1082 1093c22331 23840 33496 50937 33496 83441v359805c0 32516-11379 60695-34465 84535-22759 22759-51478 34679-85943 34679h-118459c-33158 0-61551-11920-85076-34679-23626-23840-35321-52019-35321-84535V358723c0-33597 11481-61775 34781-84534 23085-23841 51703-34680 85616-34680h81391l-192256-188572-9532-13002c-2817-4337-4236-8675-4236-13002 0-7593 2929-13013 9002-18432 5960-4327 14309-6501 25136-6501h299449c7256 0 14083 3256 20483 8675 6287 6501 9430 14084 9430 20585 0 7594-2501 14095-7695 20596-5205 6500-12574 9757-22218 9757h-225753l219894 213494zm-24054 445421V358723c0-16258-5747-30341-17340-42261-11594-11921-26015-17340-43242-17340h-118459c-16799 0-31096 5419-42915 17340-11808 11920-17554 26003-17554 42261v359805c0 16258 5746 30353 17227 42273 11706 11921 26015 17340 43242 17340h118459c16799 0 31108-5419 42915-17340 11706-11920 17667-26015 17667-42273zM11909022 508290h59815V358723c0-29259 11380-57438 34138-82360 22759-24933 51377-36854 85617-36854h60041c32628 0 60795 10839 84422 34680 23525 23851 35332 52030 35332 84534v359805c0 32516-11807 60695-35107 84535-23300 23841-51591 34679-84647 34679h-60041c-33485 0-61877-10838-85076-34679-23074-22759-34679-50937-34679-84535V568973h-59815v239509c0 8676-2828 16258-8462 22759-5633 4338-12787 6501-21564 6501-3572 0-10625-2163-20911-6501-5961-5419-9003-13001-9003-22759V268781c0-6513 3042-13014 9003-19514 5960-6501 12889-9758 20911-9758 7267 0 13982 2175 20370 7594 6400 5420 9656 11921 9656 21678v239509zm299437 210238V358723c0-16258-5859-30341-17452-42261-11594-11921-25677-17340-42374-17340h-60041c-16686 0-30882 5419-42476 17340-11605 11920-17452 26003-17452 42261v359805c0 16258 5847 30353 17452 42273 11594 11921 25790 17340 42476 17340h60041c16697 0 30780-5419 42374-17340 11593-11920 17452-26015 17452-42273zM12448081 837742v209168c0 7583-3256 14095-9655 20596-6276 6501-13104 9746-20371 9746-7255 0-13869-3245-20370-8664-6400-4338-9543-11921-9543-21678V268781c0-19514 9971-29272 29913-29272h210250c32403 0 60255 10839 83881 33598 23514 23841 35333 52019 35333 84535v359805c0 33597-11492 61776-34465 85616-22973 22759-51151 34679-84749 34679h-180224zm0-59601h180224c15503 0 29372-5419 41293-18421 12033-11920 17993-26015 17993-42273V358723c0-17339-5746-30341-17340-42261-11605-11921-25587-17340-41946-17340h-180224v479019zM13226650 718528c0 33598-11604 61776-34690 84535-23187 23841-51579 34679-85177 34679h-119755c-33485 0-61888-10838-84963-34679-23198-22759-34791-50937-34791-84535V358723c0-29259 11379-57438 34138-82360 22759-24933 51264-36854 85616-36854h119755c33158 0 61449 10839 84862 33598 23299 23841 35005 52019 35005 85616v359805zm-59939 0V358723c0-16258-5746-30341-17339-42261-11594-11921-25790-17340-42589-17340h-119755c-16686 0-30882 5419-42487 17340-11593 11920-17339 26003-17339 42261v359805c0 16258 5746 30353 17339 42273 11605 11921 25801 17340 42487 17340h119755c16799 0 30995-5419 42589-17340 11593-11920 17339-26015 17339-42273z"/><path d="M1111030 2868706c-59174-16258-116826-35773-172315-60695-56142-24922-110110-53100-161701-85616l-78507 79115-2704 1082c-73290 40098-131787 10839-131923 10839l-3289-1082-296295-292621-1735-4327c-90 0-29890-59612 10366-133308l1566-2163 87250-87780c-29170-49856-54779-102967-76704-157149-21633-53101-39626-108376-53720-164732H108161l-3346-1082c-80389-23840-101176-84534-101311-85616l-1138-3256C1352 1741598 800 1602881 0 1463072l1138-3256c79 0 21553-63939 101863-86698l3301-1082h125017c13745-55275 31276-109457 52277-162557 23402-58531 51231-114888 82879-167988l3819-6501-86360-86698-1487-3256c-40256-72614-11424-131134-11334-131134l1600-3245c97367-99711 195163-198329 292993-296959l3346-1081c169 0 60277-30342 133624 9757l2704 2163 85830 85616c50397-30341 102956-57438 157578-81279 54080-22758 110009-42261 167661-57438V348978l980-3256c23300-80198 84636-101875 84749-101875l3357-1081c70339 0 140565 0 210678-1082l-101 22759c-766 251430-440 370644-226 473599l226 149556-20382 2163c-2163 0-753827 59613-753827 781397 0 210239 82980 400985 218564 541877 135574 140880 323605 230834 533427 239509h22432l-1082 182071c-326 48763-439 66103-439 94281v10839c327 11920 1081 37935 1408 332708l113 21677c-71319 0-142514 1082-213720 1082l-3571-1082c-113 0-63725-21677-87025-101874l-980-3245v-120295zm299550-1783860h5419c-315594 10838-571361 269851-571361 586312 0 315369 255440 576556 571248 587394v-240602h-428c-180989-11920-326646-162557-326646-344629 0-180989 145769-331626 326748-344639v1092h439v-244928h-5419zm0 0z" fill="#1e518d" fill-rule="nonzero"/><path d="M1461404 2259634c315809-10839 571249-272025 571249-587394 0-316462-255767-575474-571350-586313v244929h428c180877 11920 326748 162557 326748 343547 0 182071-145646 332720-326635 344640h-440v240591z" fill="#269bc9" fill-rule="nonzero"/><path d="M1824251 2806930c31863-10839 63185-22759 93954-36854 30680-13002 60694-28178 90067-43343-2929-9757-4451-19514-4451-29260 0-26015 10839-49856 28404-68277 17441-17340 41507-28178 68052-28178 26555 0 50723 10838 68175 28178 17441 18421 28178 42262 28178 68277 0 18421-5205 35761-14309 50937l20269 20584c43130 21678 75431 13002 84850 9757l285467-281782c3684-9746 13115-43343-9644-86698l-28505-28178c-14636 8675-31975 14095-50397 14095-26657 0-50723-10839-68164-28179-17452-17339-28291-42273-28291-68276 0-27097 10839-50938 28179-68277 17452-17340 41619-28178 68276-28178 8777 0 17239 1081 25362 3244 13768-27085 26330-55263 38037-84523 11379-28178 21790-57438 30995-86709-7910-4327-15278-9746-21666-16247-17453-17340-28291-41191-28291-68277 0-26015 10838-49855 28291-68277 17339-17339 41506-28178 68051-28178 26669 0 50723 10839 68175 28178 12349 13002 21351 28179 25677 46600h41192c46058-15177 62632-44436 66970-53101l2275-400996c-4225-9757-21136-40098-67521-54182h-42916c-4326 17340-13328 32505-25677 45518-17452 17340-41619 28178-68175 28178-26443 0-50610-10838-68051-28178-17453-17340-28291-41191-28291-68277 0-27096 10838-50937 28291-68277 6388-6501 13756-11920 21778-16258-9644-30352-20269-59612-32189-88872-12033-29260-24922-58520-38904-86698-8236 3256-16799 4338-25790 4338-26668 0-50723-10839-68175-28179-17441-18421-28280-42273-28280-68276 0-27097 10839-50937 28280-68277 17553-17340 41619-28178 68175-28178 14084 0 27412 3245 39445 8664l32403-33586c22759-42273 13870-74789 10298-84535l-281996-285027c-9859-3257-43242-13014-86484 9745l-27423 27097c9103 15176 14308 32516 14308 50937 0 26015-10838 49856-28279 67195-17453 18421-41620 29260-68063 29260-26657 0-50723-10839-68277-29260-17452-17339-28291-41180-28291-67195 0-9757 1409-19503 4011-28178-27851-14084-56570-28178-85943-40099-28820-13002-58407-23840-88760-34679-4326 7583-9531 15177-15491 20596-17554 17339-41620 28178-68164 28178-26669 0-50724-10839-68277-28178-17453-17340-28179-41192-28179-68277 0-26015 10839-49855 28393-68277 12348-11920 27953-20595 45619-24933v-40099c-14523-46599-43783-62857-52988-67195l-157149-1081c755 236264 541 352222 327 451933l-113 109457c68502 8664 296948 46600 462986 176652l1623-1082h541l541-1092h1194l214-1082h1408l327-1082h1735l327-1081h428l1735-1082h1093l3898-2174h1082l214-1082h2602l654-1082h1194l969-1081h2930l540-1082h2389l642-1093h3797l428-1081h4879l540-1082h6828l440-1081h9757c26544 0 50610 10838 68164 28178 17452 17339 28178 42261 28178 68277v2163l-113 1081v2175h-101v2163l-113 1082h-112v1081h-102l-113 1093v1082h-101l-113 1081h-112v1082h-102v1082h-112l-102 1093h-112v1081h-214v1082h-226l-315 2163-654 2174-112 1082h-102l-112 1082h-215l-112 1081h-102l-225 1082-867 2174-215 1082-1081 3256h-113l-214 1082h-327l-1622 4337h-113l-214 1082h-428v1082h-439l-113 1081h-428l-113 1082h-428l-113 1081h-428l-112 1093h-429l-112 1082h-541l-214 1082h-440l-101 1081h-439l-1082 2175h-327l-101 1081h-552l-102 1082-1306 1082-215 1081h-326c46824 59613 85729 125715 115101 197248 28494 68277 47895 141973 56672 220007h4879l653 1081h2817l867 1082h2603l868 1081h2602l868 1082h2602l755 1093h1082l755 1081h1735l766 1082h2051l439 1082h1622l868 1081h1194l327 1082h1622l113 1093h1408l541 1081h214l1521 1082h1183l327 1082h766l755 1081h1082l439 1093h755l541 1082h980l541 1081h642l653 1082h868l653 1082h654l428 1092h868l754 1082h113l541 1082h653l429 1081h867c17452 17340 28291 42273 28291 68277 0 27097-10839 50937-28178 68277l-766 1081h-969l-214 1082h-767l-642 1093h-653l-327 1082h-755l-327 1081h-653l-755 1082h-980l-327 1081h-642l-766 1093h-969l-541 1082h-766l-642 1081h-981l-540 1082h-1409l-112 1082-1623 1093h-1521l-541 1081h-1081l-755 1082h-1521l-755 1081h-1082l-653 1082h-327l-2163 1093h-1634l-540 1081h-1082l-868 1082h-2602l-868 1082h-2163l-439 1081h-2919l-653 1082h-3572l-439 1093h-4112l-552 1081h-1409c-8450 74778-27085 146311-54182 213495-27851 69358-64919 133309-109569 192910 3797 4338 7154 10839 9858 16258 2062 5419 3910 9757 5205 15176h327v1082l214 1081h214l113 1082h214l113 1082h112l102 1093 112 1081h102l225 1082h102l112 1081h113l101 1082 113 1093 101 1081h113v1082l113 1082h101l113 1081 101 1093v1082h113v1081h112v2164h102v7593l-102 1082v2163l-112 1082-113 1093-101 1081-214 1082-113 1082-214 1081-113 1093-214 1082-214 2163c-3470 19514-13114 36854-26668 50937-11267 10839-25249 19503-40741 23841l-2276 1081h-2276l-2388 1093h-3471l-1194 1082h-7256l-1194 1081h-14951l-541-1081h-8022l-541-1082h-4991l-428-1093h-1848l-2163-1081h-214c-4011-1082-7921-2164-11706-3245-5532-3256-10737-5420-15605-8676-66327 54194-141646 99712-223262 131135-78136 31434-162231 50937-250123 56356l-214 553797 161261 1081c9419-4326 39772-21666 54396-68276v-37924c-17553-4338-33270-13014-45619-24934-17565-18421-28392-42262-28392-68277 0-27085 10827-50937 28392-68276 17340-17340 41507-28179 68052-28179 26555 0 50621 10839 68175 28179 5960 5419 11053 11931 15390 19514zm219128-524537h-3785l-654 1082h-18207l-1296-1082h-225c-9971-2175-18962-6501-25902-14095-9318-8664-15064-21666-15064-35761 0-14083 5746-27096 15176-36842 9318-8675 22218-15176 36415-15176 14196 0 27096 6501 36414 15176 7695 7583 12900 18421 14523 29260h112v1081l214 1082v1082h102v2174h112v4327h-112v1092h-102v2164h-214v1081h-112l-113 1082-101 1093-226 1081h-101l-113 1082-214 1082-214 1081h-113l-214 1093h-214l-112 1082-214 1081h-215l-225 1082h-214l-428 1082-327 1081h-112l-215 1093h-439l-214 1082h-214v1081h-541l-327 1082-326 1082h-327l-214 1092h-327l-214 1082h-439l-643 1082-766 1081h-315l-766 1082-327 1093h-428l-4011 5419c-6287 5408-14196 10827-22872 13002zm-97536-3256c-7910-14084-12461-29260-12461-46600 0-27096 10838-50937 28290-68276 17441-17340 41609-28179 68165-28179 15717 0 30668 3256 43895 10839 41394-55275 75972-115958 101976-179908 25474-62858 42915-130041 51151-200493-15391-4326-29260-13002-40313-23840-17553-17340-28279-41180-28279-68277 0-26004 10726-50937 28167-68277 11165-10838 24933-19503 40425-23840-8563-71533-26770-140891-53427-205912-27311-66114-63613-127890-107294-183153-13543 6501-28933 10839-45292 10839-26669 0-50723-10839-68176-28179-17441-17339-28279-41191-28279-68276 0-16258 4225-32516 11593-45518-167988-130053-404895-161487-450739-167988l-9318-1082-17993-4338 327-146299c225-102956 541-222170-327-474692l-101-21666c70338 0 140564 0 210790 1081l3358 1082c214 0 61336 20596 84748 100793l981 3244v46600c17553 4338 33271 13013 45619 24933h113c17452 18422 28178 42262 28178 68277l-113 5419c31649 9746 62970 21666 93638 35761 30995 13002 61337 27097 91036 42262l1848-1082c17441-17339 41507-28178 68164-28178 18421 0 35761 4338 50498 14095l32088-32516 2704-1082c73369-40098 133410-10838 133522-10838l3459 2163 292835 295866 1736 3256s29045 58520-11380 132216l-1521 2163-33045 33597c13328 16258 21339 37936 21339 60695 0 26003-10726 50937-28280 68276l-3256 2164c15064 30352 28945 60694 41293 91035 12574 31435 23840 62858 33924 94292h3031c26556 0 50610 10839 68063 28178 12461 11921 21463 28179 25789 45518h48887l3357 1082c80198 23840 101762 86698 101762 87779l1194 3257c-1194 138716-1735 278526-2388 417243l-1194 3256c-102 0-20912 61764-101221 84523l-3358 1093h-47039c-4326 17340-13328 33598-25677 45518-17452 17340-41506 28178-68175 28178h-3143c-9645 31423-20698 61765-32832 92117-12247 30342-25688 59602-40211 88862l3470 3256c17554 17339 28280 41180 28280 68277 0 18421-5194 35760-14298 50937l33158 32504 1521 3256c40426 72615 10512 133298 10512 133298l-1735 3256c-98945 97537-197788 195073-296407 292610l-3256 2174c-101 0-58621 29260-131776-11920l-2817-1093-24933-24922c-14737 8675-31964 14095-50396 14095-26545 0-50611-10839-68052-28178l-980-1093c-30995 17339-62745 32516-95148 46610-32302 14084-65359 27086-99170 39006l112 5419c0 26015-10726 49856-28178 68277-12461 11920-28066 20596-45732 24934v43343l-980 4338c-23300 80197-86912 101874-87138 101874l-3458 1082c-71207-1082-142413-1082-213720-1082l326-641588h21452c90281-4326 176878-22758 256962-54182 76513-30341 146953-72614 209270-123551zm61449-1221388h2490l326-1082h8676l327-1081h1735c14297 0 27198 6501 36414 15165 9318 9757 15064 22759 15064 36854v2163h-113v2163h-113v1093h-101v1081h-113l-101 1082h-113v1082h-214v1081h-113l-112 1093h-102l-112 1082h-102l-112 1081h-214l-113 1082h-214l-113 1082h-214l-113 1093h-214l-101 1081h-327l-113 1082h-214l-112 1081-755 1082c-2389 5419-5634 10839-9430 14095h-113l-316 1081-867 1082h-868l-225 1082h-755l-327 1092h-214c-8991 7583-20911 13002-34025 13002-14197 0-27097-6501-36527-15176-9217-9757-14951-22759-14951-36842 0-14095 5734-27097 14951-36854 3256-3245 6827-5419 10838-7583h428l113-1081h1623l326-1082h2175l315-1093h1735l981-1081h540l3899-1082zm247418 565717c14208 0 27210 5419 36527 15176 9217 8664 14963 21678 14963 35761 0 14095-5746 27097-15075 36854-9318 8664-22320 15165-36415 15165-14297 0-27198-6501-36414-15165-9419-9757-15165-22759-15165-36854 0-14083 5746-27097 15064-36842 9317-8676 22218-14095 36515-14095zm263790-614491c9317 9757 15064 22759 15064 36854 0 14083-5747 27096-15064 35760-9318 9758-22218 15177-36516 15177-14207 0-27209-5419-36527-15177-9216-8664-15063-21677-15063-35760 0-14095 5847-27097 15063-36854 9318-8664 22218-15165 36527-15165 14298 0 27198 5419 36516 15165zm143054 352222c9318 9758 15177 22759 15177 36854 0 14084-5859 27086-15177 36843-9205 8675-22105 15176-36414 15176-14298 0-27085-6501-36414-15176-9318-9757-15064-22759-15064-36843 0-14095 5746-27096 15064-36854 9329-8664 22218-15165 36414-15165 14309 0 27209 6501 36414 15165zm113 553797c9205 8676 15064 21677 15064 35772 0 14084-5859 27086-15177 36843-9317 9757-22105 15176-36414 15176-14298 0-27198-5419-36516-15176-9216-9757-14962-21678-14962-36843 0-14095 5746-27096 15064-35772 9329-9746 22218-15165 36414-15165 14309 0 27097 5419 36527 15165zm-140891 347885c9317 9757 15063 22759 15063 36854 0 14083-5746 27096-15063 36842-9318 8675-22218 14095-36415 14095-14410 0-27198-5420-36628-14095-9216-9746-14951-22759-14951-36842 0-14095 5735-27097 15064-36854 9317-8664 22207-15165 36515-15165 14309 0 27210 6501 36415 15165zm-384085 398822c9329 8675 15063 21677 15063 35772 0 14083-5734 27085-15063 36842-9318 8676-22106 15177-36414 15177-14298 0-27199-6501-36516-15177-9216-9757-15064-22759-15064-36842 0-14095 5848-27097 15064-35772 9317-9746 22218-15165 36516-15165 14196 0 27096 5419 36414 15165zm-396005 244929c-14298 0-27198-5420-36516-15166-9318-8675-15064-21677-15064-35772 0-15165 5746-27085 14951-36842 9318-9757 22331-15176 36629-15176 14308 0 27096 5419 36414 15176 9329 9757 15075 22759 15075 36842 0 14095-5746 27097-15075 35772-9318 9746-22207 15166-36414 15166zm31107-2450370c9216 8675 14962 21677 14962 35772 0 14084-5746 27085-15063 36842-9329 9758-22117 15177-36414 15177-14309 0-27210-5419-36415-15177-9430-9757-15075-22758-15075-36842 0-14095 5645-27097 14963-35772 9216-9746 22218-15165 36527-15165 14196 0 27085 5419 36414 15165h101zm350702 149567c9329 9745 15176 22759 15176 36842 0 14095-5847 27097-15176 35761-9205 9757-22106 15176-36302 15176-14410 0-27198-5419-36527-15176-9318-8664-15064-21666-15064-35761 0-15176 5634-27097 14963-36842 9317-9757 22218-15177 36628-15177 14196 0 27097 5420 36302 15177z" fill="#1a60aa" fill-rule="nonzero"/><path d="M1461404 2259634c315809-10839 571249-272025 571249-587394 0-316462-255767-575474-571350-586313v244929h428c180877 11920 326748 162557 326748 343547 0 182071-145646 332720-326635 344640h-440v240591zm5318-1173707l428 243847-428-243847zm541 933116l-541 238417 541-238417z" fill="#179bd7" fill-rule="nonzero"/></g></svg>