<?xml version="1.0" encoding="UTF-8"?>
<!DOCTYPE svg PUBLIC "-//W3C//DTD SVG 1.1//EN" "http://www.w3.org/Graphics/SVG/1.1/DTD/svg11.dtd">
<!-- Creator: CorelDRAW X8 -->
<svg xmlns="http://www.w3.org/2000/svg" xml:space="preserve" width="183px" height="183px" version="1.1" style="shape-rendering:geometricPrecision; text-rendering:geometricPrecision; image-rendering:optimizeQuality; fill-rule:evenodd; clip-rule:evenodd"
viewBox="0 0 996213 997568"
 xmlns:xlink="http://www.w3.org/1999/xlink">
 <defs>
  <style type="text/css">
   <![CDATA[
    .fil0 {fill:#1E518D;fill-rule:nonzero}
   ]]>
  </style>
 </defs>
 <g id="Слой_x0020_1">
  <metadata id="CorelCorpID_0Corel-Layer"/>
  <path class="fil0" d="M85320 682202c-26684,-58687 -40030,-121696 -40030,-184892 64,-115768 44789,-231543 133500,-320376 87909,-87908 203304,-131644 319072,-131644 116327,0 232648,44230 320987,132575l61281 61404 32002 -32189 -61217 -61153c-97176,-97240 -225300,-146165 -353053,-145921 -127135,-244 -254393,48001 -351074,144746 -97420,97420 -146839,225236 -146782,352558 0,69560 14643,139120 44109,203670l41205 -18778zm825579 -367073c26685,58687 39966,121702 39966,184898 0,115768 -44660,231780 -133493,320369 -87851,87909 -203247,131645 -319015,131831 -116385,-186 -232648,-44417 -321050,-132755l-61224 -61160 -32060 31938 61281 61160c97176,97233 225237,146158 353053,146158 127136,0 254393,-48308 351075,-145047 97419,-97362 146781,-225172 146781,-352494 0,-69560 -14643,-139120 -44108,-203677l-41206 18779zm-589039 432740l16062 -16062 -73015 -72957 -16005 16062 22613 0c0,-12414 0,-19459 0,-32182l-22613 0 14765 17231 38367 -33049 1355 -8150c437,-3153 1297,-6120 2537,-10198 1233,-4072 2781,-9512 3828,-16120l1111 -6795 -2961 -6365c-1426,-2659 -2042,-6550 -4142,-14700l-2101 -7476 -6178 -4508c-7848,-5870 -12909,-10013 -21624,-16557l-6236 -4515 -43864 681 437 22613 15876 -16062c-8895,-8837 -13718,-13840 -22921,-22857l-15876 16062 22670 244 495 -70241 -22671 -244 15568 16557c9325,-8837 14392,-13840 23782,-22671l-15626 -16312 -1053 22670 41950 1792 6423 -4508c8464,-6114 14270,-10192 22856,-16557l6365 -4508 2158 -7720c1361,-4759 2723,-8587 4881,-13346l2967 -6364 -1053 -6795c-1298,-8400 -4136,-14514 -5806,-18592 -1850,-4079 -2595,-6301 -2781,-7662l-1297 -8401 -37494 -31938 -14707 17238 22613 0c0,-12729 0,-19768 0,-32189l-22613 0 16005 16062 73015 -72957 -16062 -16062 0 22613c12542,0 19523,0 32066,0l0 -22613 -17173 14701 32118 37622 8156 1111c3153,680 6114,1361 10256,2723 4136,1168 9390,2716 15876,3892l6795 1111 6300 -2968c2537,-1355 6057,-1791 14027,-3827l7533 -2042 4695 -6115c5870,-7970 10134,-13159 16678,-21745l4759 -6365 -924 -43485 -22671 430 16120 16126c8895,-9081 13776,-13840 22799,-23107l-16126 -15876 -187 22671 70305 430 186 -22671 -16434 15632c8830,9325 13654,14515 22484,23782l16435 -15625 -22613 -932 -1792 42625 4515 6365c6050,8400 10192,14270 16242,22612l4515 6359 7533 2286c5067,1361 9268,2967 14206,5189l6307 3153 6917 -1111c8278,-1361 14456,-4078 18592,-5870 4201,-1856 6365,-2472 7906,-2716l8221 -1362 32985 -38302 -17174 -14701 0 22613c12543,0 19524,0 32003,0l0 -22613 -15998 16062 73015 72957 16004 -16062 -22677 0c0,12421 0,19460 0,32189l22677 0 -14765 -17238 -37750 32369 -1477 7726c-623,2903 -1548,5863 -2909,9941 -1355,4079 -3089,9332 -4323,15632l-1419 7225 3147 6859c1240,2473 1670,5620 3648,13590l1978 7476 6178 4758c7970,6115 13095,10379 21990,17238l6300 4695 43062 -1118 -495 -22420 -15876 16062c8953,8831 13776,13647 22979,22915l15941 -16306 -22678 -251 -616 69997 22671 244 -15626 -16557c-9331,8837 -14392,13654 -23788,22491l15632 16492 1053 -22670 -42072 -2043 -6365 4573c-8586,6114 -14328,10443 -22857,16557l-6364 4508 -2222 7476c-1420,4759 -2781,8837 -4939,13345l-3031 6365 1111 7039c1239,8092 4078,14270 5748,18348 1856,4264 2594,6551 2780,7906l1298 8156 39227 33974 14829 -17231 -22677 0c0,12723 0,19768 0,32182l22677 0 -16004 -16062 -73015 72957 15998 16062 0 -22606c-12479,0 -19460,0 -32003,0l0 22606 17116 -14700 -33981 -39414 -8149 -1419c-3090,-437 -6057,-1297 -10199,-2473 -4136,-1111 -9389,-2658 -15934,-3827l-6737 -1118 -6300 2909c-2530,1169 -6056,1850 -14020,3892l-7540 2036 -4694 6114c-5870,7913 -10135,12916 -16743,21746l-4695 6365 925 43491 22677 -680 -16126 -15876c-8895,9017 -13776,13776 -22857,23101l16184 15876 122 -22671 -69926 -430 -186 22606 16492 -15625c-8830,-9512 -13589,-14457 -22484,-23968l-16493 15625 22671 1111 2158 -41199 -4753 -6615c-6242,-8586 -10442,-14270 -16743,-23101l-4630 -6364 -7604 -2036c-4752,-1362 -8522,-2723 -13217,-4945l-6737 -3211 -7289 1361c-8092,1606 -14020,4566 -17976,6358 -4079,1792 -6301,2723 -7412,2967l-7783 1362 -32677 38052 17173 14700 0 -22606c-12543,0 -19524,0 -32066,0l0 22606 16062 -16062 -16062 16062 0 22671c12542,0 19523,0 32066,0l10379 0 34282 -39902 -17173 -14707 4200 22241c8092,-1606 14026,-4573 18040,-6365 4014,-1849 6236,-2716 7353,-2716l-4200 -22427 -9762 20577c7412,3397 14271,5928 20571,7469l6114 -21739 -18349 13403c6301,8587 10507,14514 16865,23101l18291 -13403 -22613 -1111 -2350 42811 6672 7039c8838,9517 13590,14520 22491,24032l6609 6981 89263 745 6737 -6859c8831,-9017 13712,-13776 22793,-22857l6737 -6795 -989 -45348 -22613 495 18104 13596c5864,-7726 10128,-12916 16737,-21746l-18098 -13596 5870 21932c3584,-1111 11239,-1978 21123,-6300l-9447 -20635 -3584 22182c3025,675 6056,1420 10256,2775 4072,1117 9326,2659 15812,3834l3648 -22427 -17115 14951 35335 40769 10378 0c12543,0 19524,0 32003,0l9453 0 86239 -86360 0 -9268c0,-12414 0,-19459 0,-32182l0 -10134 -40833 -35400 -14829 17238 22426 -3642c-1361,-8092 -4078,-14270 -5869,-18535 -1792,-4078 -2531,-6364 -2717,-7719l-22363 3397 20443 9756c3461,-7290 5748,-14084 7604,-20199l-21810 -6364 13223 18413c8522,-6179 14328,-10257 22857,-16313l-13224 -18406 -1111 22670 43858 2036 7045 -6544c9268,-8837 14393,-13590 23724,-22671l7039 -6550 803 -89020 -6853 -6859c-9023,-8830 -13840,-13776 -23043,-22857l-6859 -6544 -44725 861 553 22677 13718 -17919c-8035,-6114 -13095,-10378 -21932,-17173l-13776 18098 21932 -5870c-1053,-3397 -1856,-11361 -6429,-21309l-20506 9512 22240 4328c553,-2967 1484,-5934 2839,-10012 1361,-4078 3089,-9017 4386,-15626l-22240 -4328 14765 17237 39664 -34224 0 -10128c0,-12729 0,-19768 0,-32189l0 -9325 -86239 -86303 -9453 0c-12479,0 -19460,0 -32003,0l-10378 0 -34346 39844 17173 14765 -3520 -22240c-8214,1175 -14392,4078 -18534,5683 -4201,1792 -6365,2473 -7842,2717l3519 22427 9762 -20385c-7475,-3583 -14520,-6114 -21065,-7905l-6364 21745 18406 -13345c-6050,-8400 -10128,-14084 -16184,-22491l-18406 13159 22606 932 1792 -44667 -6609 -6795c-8773,-9268 -13589,-14515 -22426,-23782l-6609 -6795 -89514 -681 -6730 6795c-8837,8831 -13718,13840 -22800,22857l-6730 6859 925 45277 22670 -430 -18098 -13590c-5934,7662 -10192,12909 -16742,21746l18098 13590 -5928 -21990c-3584,1169 -11181,2036 -21130,6358l9518 20635 3577 -22485c-3089,-436 -6114,-1361 -10250,-2472 -4078,-1111 -9331,-2717 -15875,-3828l-3584 22420 17173 -14700 -33543 -39228 -10379 0c-12543,0 -19524,0 -32066,0l-9390 0 -86238 86303 0 9325c0,12421 0,19460 0,32189l0 10378 39041 33293 14765 -17231 -22421 3642c1356,8156 4136,14270 5864,18592 1792,4079 2537,6365 2781,7726l22362 -3647 -20506 -9512c-3462,7225 -5748,14020 -7540,20385l21810 6114 -13281 -18343c-8465,6114 -14213,10193 -22799,16557l13223 18342 1111 -22670 -43736 -2036 -7045 6544c-9267,8837 -14328,13596 -23724,22427l-6981 6794 -616 89514 6795 6795c8959,8837 13775,13590 22921,22671l6794 6795 45657 -925 -437 -22671 -13526 18162c7784,5870 12973,10192 21618,16557l13596 -18162 -21874 6114c1239,3892 2228,11797 6794,21810l20513 -9576 -22362 -3583c-495,3146 -1362,6114 -2595,10128 -1175,4328 -2781,9575 -3828,16126l22363 3397 -14765 -16987 -39972 34469 0 10134c0,12723 0,19768 0,32182l0 9268 86238 86360 9390 0 0 -22671zm112191 -185077l-16063 16062c22055,21990 51212,33107 80119,33107 28913,0 58012,-11117 80124,-33107 22054,-22183 33178,-51218 33178,-80189 0,-29035 -11124,-58006 -33178,-80182 -22112,-21996 -51211,-33113 -80124,-33113 -28907,0 -58064,11117 -80119,33299 -22054,21990 -33177,50961 -33177,79996 0,28971 11123,58006 33177,80189l16063 -16062 15998 -16062c-13346,-13410 -19890,-30641 -19890,-48065 0,-17417 6544,-34654 19890,-48000 13345,-13403 30576,-19954 48058,-19954 17423,0 34718,6551 48064,19954 13281,13346 19890,30583 19890,48000 0,17424 -6609,34655 -19890,48065 -13346,13339 -30641,19890 -48064,19890 -17482,0 -34713,-6551 -48058,-19890l-15998 16062zm-207819 185077l-158580 0 0 158644 45284 0 0 -113296 113296 0 0 -45348zm-140912 -65667c-26684,-58687 -40030,-121696 -40030,-184892 64,-115768 44789,-231543 133500,-320376 87909,-87908 203304,-131644 319072,-131644 116327,0 232648,44230 320987,132575l61281 61404 32002 -32189 -61217 -61153c-97176,-97240 -225300,-146165 -353053,-145921 -127135,-244 -254393,48001 -351074,144746 -97420,97420 -146839,225236 -146782,352558 0,69560 14643,139120 44109,203670l41205 -18778zm825579 -367073c26685,58687 39966,121702 39966,184898 0,115768 -44660,231780 -133493,320369 -87851,87909 -203247,131645 -319015,131831 -116385,-186 -232648,-44417 -321050,-132755l-61224 -61160 -32060 31938 61281 61160c97176,97233 225237,146158 353053,146158 127136,0 254393,-48308 351075,-145047 97419,-97362 146781,-225172 146781,-352494 0,-69560 -14643,-139120 -44108,-203677l-41206 18779zm-140911 -65668l158579 0 0 -158643 -45348 0 0 113302 -113231 0 0 45341z"/>
 </g>
</svg>
