<?xml version="1.0" encoding="UTF-8"?>
<!DOCTYPE svg PUBLIC "-//W3C//DTD SVG 1.1//EN" "http://www.w3.org/Graphics/SVG/1.1/DTD/svg11.dtd">
<!-- Creator: CorelDRAW X8 -->
<svg xmlns="http://www.w3.org/2000/svg" xml:space="preserve" width="156px" height="196px" version="1.1" style="shape-rendering:geometricPrecision; text-rendering:geometricPrecision; image-rendering:optimizeQuality; fill-rule:evenodd; clip-rule:evenodd"
viewBox="0 0 731065 917600"
 xmlns:xlink="http://www.w3.org/1999/xlink">
 <defs>
  <style type="text/css">
   <![CDATA[
    .fil0 {fill:#1E518D;fill-rule:nonzero}
   ]]>
  </style>
 </defs>
 <g id="Слой_x0020_1">
  <metadata id="CorelCorpID_0Corel-Layer"/>
  <path class="fil0" d="M661470 69755l-591880 0 0 647668 130426 0 0 130482 461454 0 0 -778150zm69595 -69755l0 917600 -576539 0 -154526 -161425 0 -756175 731065 0zm-601704 131436l472288 0 0 57063 -472288 0 0 -57063zm0 113915l472288 0 0 56853 -472288 0 0 -56853zm0 113866l472288 0 0 56852 -472288 0 0 -56852zm0 113915l472288 0 0 56852 -472288 0 0 -56852z"/>
 </g>
</svg>
