<?xml version="1.0" encoding="UTF-8"?>
<!DOCTYPE svg PUBLIC "-//W3C//DTD SVG 1.1//EN" "http://www.w3.org/Graphics/SVG/1.1/DTD/svg11.dtd">
<!-- Creator: CorelDRAW X8 -->
<svg xmlns="http://www.w3.org/2000/svg" xml:space="preserve" width="189px" height="189px" version="1.1" style="shape-rendering:geometricPrecision; text-rendering:geometricPrecision; image-rendering:optimizeQuality; fill-rule:evenodd; clip-rule:evenodd"
viewBox="0 0 1059111 1058396"
 xmlns:xlink="http://www.w3.org/1999/xlink">
 <defs>
  <style type="text/css">
   <![CDATA[
    .fil0 {fill:#1E518D;fill-rule:nonzero}
   ]]>
  </style>
 </defs>
 <g id="Слой_x0020_1">
  <metadata id="CorelCorpID_0Corel-Layer"/>
  <path class="fil0" d="M472997 624129l-346557 346623c-9171,9171 -21023,13568 -33062,13568 -12038,0 -23818,-4397 -32989,-13568l-33055 32996c18150,18216 42226,27321 66044,27321 23891,0 47901,-9105 66117,-27321l346557 -346689 -33055 -32930zm79744 -211846l69362 -69362c7006,-7005 8787,-17765 4582,-26685 -15600,-32419 -24202,-64455 -24202,-94140 192,-36683 12296,-69805 44014,-101847l66 0c5476,-5602 26427,-26367 32930,-32929 27771,-27772 65667,-40379 106304,-40637 30505,0 62164,7456 89743,20765l10124 -21209 -16561 -16369 -123500 123375c-4330,4396 -6813,10442 -6813,16560 0,6304 2483,12105 6813,16561l99106 99040c9112,9111 23885,9111 33062,0l123500 -123560 -16494 -16375 -21083 10065c13183,27579 20633,59111 20573,89683 -66,40637 -12740,78533 -40445,106304 -6502,6562 -27453,27579 -32996,32929 -32101,31784 -65289,43948 -101913,44140 -29553,0 -61529,-8601 -94134,-24268 -8919,-4205 -19619,-2357 -26566,4648l-63243 63316 32989 32989 63250 -63375 -16494 -16303 -10065 21017c37134,17773 75665,28725 114263,28725 47775,192 95351,-17958 134909,-57708 5536,-5601 26493,-26367 33055,-33181 38088,-38087 54139,-88981 54139,-139233 -66,-38028 -9045,-75924 -25162,-109747 -3245,-7065 -9681,-11720 -17131,-13117 -7449,-1146 -15097,1205 -20447,6555l-107006 107006 -66110 -66111 107005 -107005c5351,-5351 7767,-13058 6496,-20322 -1278,-7450 -6118,-14012 -12992,-17256 -33823,-16117 -71851,-25037 -109872,-25222 -50192,0 -101212,16110 -139300,54139 -6496,6562 -27453,27579 -33055,33181l60 0c-39936,39491 -57960,87134 -57708,134776 0,38598 11025,77136 28731,114270l21084 -10065 -16502 -16369 -69361 69170 32995 33181zm-492352 558469c-9171,-9297 -13634,-20957 -13693,-33121 59,-11913 4522,-23818 13693,-32930l352225 -352291 -33055 -32929 -352225 352039c-18223,18216 -27394,42293 -27327,66111 -67,23824 9104,47901 27327,66117l33055 -32996zm49550 -16561l49556 -49490 -33055 -33181 -49556 49550 33055 33121zm541908 -270063l-379929 -379996c-3185,-3053 -7456,-5410 -11913,-6363l-73122 -14654 -116177 -174076 39048 -38975 174202 116044 14581 73123c894,4456 3185,8661 6370,11971l379936 379811 33055 -32929 -374904 -374971 -15157 -75665c-1211,-6052 -4840,-11462 -9939,-14713l-198146 -132228c-9303,-6304 -21659,-4906 -29492,2801l-66177 66369c-7833,7707 -9045,20130 -2867,29426l132168 198087c3436,5158 8853,8661 14839,9813l75665 15157 374904 374964 33055 -32996zm-65792 66369l16494 16375 154900 -154907 22997 7708 13886 69170c887,4648 3185,8853 6370,12163l198020 197835c9171,9112 13634,21017 13694,32930 -60,12164 -4523,23824 -13694,33187l-33055 32930c-9171,9104 -20958,13819 -32996,13819 -12038,0 -23884,-4715 -33055,-13819l-198027 -197835c-3311,-3503 -7323,-5602 -11906,-6562l-69302 -13753 -12230 -36691 -22096 7450 16494 16375 -16494 -16375 -22169 7264 16434 49490c2676,8217 9363,14077 17581,15666l75665 14972 192995 193180c18216,17964 42292,27327 66110,27327 23825,0 47835,-9363 66051,-27327l32996 -33181c18216,-18216 27453,-42293 27387,-66117 66,-23818 -9171,-47895 -27387,-66111l-192995 -192928 -15097 -75672c-1655,-8217 -7641,-14965 -15541,-17514l-49550 -16369c-8409,-2801 -17646,-702 -23884,5602l-165157 165164c-6244,6303 -8409,15408 -5608,23818l22169 -7264zm131843 -186l198212 198087 33062 -32996 -198278 -198278 -32996 33187z"/>
 </g>
</svg>
