<?xml version="1.0" encoding="UTF-8"?>
<!DOCTYPE svg PUBLIC "-//W3C//DTD SVG 1.1//EN" "http://www.w3.org/Graphics/SVG/1.1/DTD/svg11.dtd">
<!-- Creator: CorelDRAW X8 -->
<svg xmlns="http://www.w3.org/2000/svg" xml:space="preserve" width="220px" height="255px" version="1.1" style="shape-rendering:geometricPrecision; text-rendering:geometricPrecision; image-rendering:optimizeQuality; fill-rule:evenodd; clip-rule:evenodd"
viewBox="0 0 15294024 17751692"
 xmlns:xlink="http://www.w3.org/1999/xlink">
 <defs>
  <style type="text/css">
   <![CDATA[
    .fil0 {fill:#179BD7;fill-rule:nonzero}
   ]]>
  </style>
 </defs>
 <g id="Слой_x0020_1">
  <metadata id="CorelCorpID_0Corel-Layer"/>
  <path class="fil0" d="M7475680 10510502l4903516 5026712c244667,251807 581012,373361 914977,373361 483917,-3119 975057,-231289 1371317,-640271l821 0 26018 -25279 -739 0c387643,-397081 600793,-880259 602352,-1352357 1560,-344964 -119994,-686069 -370242,-941078l-2064527 -2113443 -479977 465778 2064444 2116645c117696,121553 177694,277907 179253,472098 1560,263708 -127135,593734 -412101,885840l-821 0 -25279 26018 821 0c-289726,298426 -630011,437380 -891340,434261 -183192,-2380 -322884,-57699 -435000,-170552l-4903516 -5023511 -479977 465778zm4093431 -3170575l258210 -266007c135014,-138954 202890,-318945 202890,-498198 0,-179171 -67876,-359244 -202890,-498198l-773726 -793424c-135753,-138953 -318124,-210769 -498116,-210769 -180812,0 -364004,71816 -499019,210769l-515516 527417 480060 468980 516255 -527417 18220 -8700 18139 8700 773725 793423 11819 29219 -11819 29219 -258209 266089 479977 468897zm-2321833 -266007l773726 -793423c134932,-138954 202890,-319028 202070,-498198 820,-179253 -67138,-359245 -202070,-498199l-773726 -793423c-135014,-138954 -318124,-210770 -498936,-210770 -179992,0 -363184,71816 -498198,210770l-773644 793423 479978 468980 774464 -792603 17400 -8700 18138 8700 774464 792603 11901 29219 -11901 29218 -774464 793424 480798 468979zm139775 2767913l672608 677369c133455,135835 315006,206091 493438,206091 179992,0 363184,-72636 498116,-211590l1808779 -1852936c134932,-138954 202070,-318945 202070,-498198 0,-179171 -67138,-359162 -202070,-498116l-774546 -793423c-135014,-138954 -317386,-211591 -498116,-211591 -179991,0 -363184,72637 -498198,211591l-1032674 1057050 480799 468979 1031852 -1057132 18221 -8700 18139 6320 774464 795803 11080 29219 -11080 29219 -1808697 1852936 -18139 8700 -17400 -6320 -672608 -680570 -476038 475299zm-1688785 5165584l516337 -527335 0 0c31599,-31599 68697,-54498 144535,-72637 74935,-19780 183110,-25279 311805,-25279 104974,0 223409,2380 350544,2380 190251,0 401021,-8700 620490,-66317 218731,-57617 446901,-171374 637152,-367944 624512,-639450 773726,-793424 773726,-793424l-479239 -468979c0,0 -149213,153235 -774464,793506 -100296,101773 -202152,153891 -330846,187870 -127053,34718 -279467,46537 -446819,46537 -111294,0 -228991,-5499 -350544,-5499 -149214,0 -304747,5499 -465779,43418 -160293,37919 -333965,115316 -470538,257389l0 0 -516337 529715 479977 466599zm-516254 -3173694c667109,-682950 984495,-1597928 985233,-2463988 -738,-741306 -233668,-1462174 -727106,-1971371 -129433,-130253 -341024,-133454 -473658,-6319 -132634,130253 -135835,341844 -6319,475299 168911,173671 592913,607851 1032591,1059512 390843,402580 868440,576252 1305821,573133 367123,0 704207,-112936 977436,-280288 270767,-171291 486297,-397081 593652,-674989 44978,-121553 15759,-258209 -74196,-350544 -281109,-289726 -2838990,-2910068 -2838990,-2910068 -148393,-153152 -311887,-274706 -493438,-350462 -182372,-77397 -376562,-109817 -573954,-109817 -141334,0 -285787,14281 -439760,41120 -264447,40217 -622132,83635 -961596,147572 -169732,31599 -335525,69518 -487857,118435 -152414,48999 -292106,104236 -421622,199771l0 0c-81336,63937 -138133,133455 -189430,208390 -87656,133455 -155533,286607 -217171,460279 -181551,518717 -299165,1225305 -300807,1844236 0,515516 -35457,987696 -93894,1346858 -30040,176052 -65579,326907 -101035,431061 -18221,55318 -35539,95535 -49738,124754l-18221 28398 -3119 6320 -820 0 25279 20519 -23720 -23638 -1559 3119 25279 20519 -23720 -23638 -516255 529715 479978 469718 516337 -529715c115234,-122374 171291,-255747 225789,-411280 77397,-232109 132634,-521097 171292,-860561 38739,-338726 59258,-720787 59258,-1132149 -821,-404960 63937,-888139 162592,-1282101 48999,-199772 106616,-373443 164233,-501317 27659,-63198 56057,-115316 78956,-147654l26839 -37098 7058 -9438 821 0c22899,-17400 106616,-60818 220291,-94798 170470,-55236 407340,-101855 648970,-142072 242369,-37919 490237,-69518 700268,-104236 132634,-20519 243929,-29219 337084,-29219 131813,0 224969,17400 311066,55319 85277,37098 172112,95536 276348,202070 0,0 159473,162673 404140,414481 731867,750005 2223999,2278497 2434030,2493206l240809 -235310 -315005 -115234c-29219,86836 -145274,231289 -318946,338725 -173753,109735 -396342,182372 -622952,182372 -271588,-3201 -548675,-92417 -825762,-373443 -439760,-451580 -863680,-886580 -1032673,-1059513 -62377,-63936 -146012,-98654 -236049,-101855 -89216,0 -173672,34718 -237609,95536 -64757,63936 -100296,147653 -101855,237608 -821,90037 33158,173754 95536,237691 341844,347343 536855,897659 536034,1502391 821,701007 -263708,1453392 -794244,1998209l480060 465779zm5197921 -3172956l1031853 1059512 11080 29219 -11080 28398 -1806317 1853675 -18139 8700 -18221 -8700 -773643 -793424 -821 0 -10998 -32338 11819 -28480 0 0 258127 -263626 -479977 -468979 -258209 262887 -739 0c-135014,138954 -202152,321326 -202152,498198 0,179992 67138,362364 202891,501317l-739 0 774464 792603c135014,139775 318207,211591 498198,208472 180730,3119 363102,-68697 498116,-208472l1806399 -1852115c135753,-139692 202890,-318945 202070,-498116 820,-180073 -66317,-359244 -202070,-498198l-1031853 -1059512 -480059 468979zm-6469845 8755400l240809 -234489 -4933474 -5052730 1593988 -1632645 4693485 4806421 -1834797 1878954 239989 234489 240809 -234489 -240809 234489 240809 234490 2062967 -2113443c127053,-130336 127053,-338726 -820,-468979l-5160824 -5287220c-64018,-66317 -150034,-101035 -240809,-101035 -90037,0 -176052,34718 -239989,101035l-2062146 2113443c-127955,130336 -127955,339547 0,468980l5161644 5287219c63116,67056 149213,101035 239168,101035 91596,0 176873,-33979 240809,-101035l-240809 -234490zm6728054 -3729509l773644 793424 480059 -468979 -773725 -793424 -479978 468979zm-10323370 -1586929l516337 527417 480059 -465778 -516336 -529797 -480060 468158zm4867240 -7081635l-1256083 -1285302 -239989 233669 320505 96357c91596,-301628 136573,-614253 136573,-926879 0,-798922 -298426,-1604247 -896838,-2215299 -596853,-613432 -1384778,-923677 -2171061,-920558 -454780,0 -910299,101117 -1329540,307126 -96275,45799 -164972,138954 -183192,243190 -18139,107355 15840,213971 90857,292107l1723421 1766838 -821822 842423 -1711602 -1755020c-77397,-78218 -187952,-115316 -296128,-98737 -108914,20519 -202070,90037 -247868,191893 -199772,425479 -298426,888138 -299247,1352357 0,798923 297688,1601046 895279,2214478 597674,611052 1386337,917440 2171881,917440 146094,0 292107,-11080 436642,-31599l-48179 -330026 -239988 234490 905538 926878 480798 -468979 -906359 -926878c-75017,-78136 -181551,-112854 -288167,-98655 -112854,17400 -226610,23638 -340285,23638 -612611,0 -1222104,-235229 -1691083,-715206 -469718,-483999 -704207,-1111630 -704946,-1745581 0,-368683 78957,-733426 236049,-1068951l-304007 -142154 -240728 235310 1952329 1997388c64019,66317 149214,101856 240071,101856 90776,0 176791,-35539 239989,-101856l1290801 -1320840c127134,-129433 127134,-338643 0,-468158l-1952412 -2001329 -239988 234490 146833 301545c326824,-159472 681308,-240727 1035053,-240727 612612,3119 1221283,237608 1691822,720787 469718,480798 705028,1112368 705028,1746319 0,246309 -36359,494997 -107354,732606 -35539,118435 -3940,243190 80516,330025l1256821 1288421 480060 -468897z"/>
 </g>
</svg>
