<?xml version="1.0" encoding="UTF-8"?>
<!DOCTYPE svg PUBLIC "-//W3C//DTD SVG 1.1//EN" "http://www.w3.org/Graphics/SVG/1.1/DTD/svg11.dtd">
<!-- Creator: CorelDRAW X8 -->
<svg xmlns="http://www.w3.org/2000/svg" xml:space="preserve" width="255px" height="255px" version="1.1" style="shape-rendering:geometricPrecision; text-rendering:geometricPrecision; image-rendering:optimizeQuality; fill-rule:evenodd; clip-rule:evenodd"
viewBox="0 0 1964441 1964786"
 xmlns:xlink="http://www.w3.org/1999/xlink">
 <defs>
  <style type="text/css">
   <![CDATA[
    .fil0 {fill:#179BD7;fill-rule:nonzero}
   ]]>
  </style>
 </defs>
 <g id="Слой_x0020_1">
  <metadata id="CorelCorpID_0Corel-Layer"/>
  <path class="fil0" d="M771411 908396l0 -258066 77639 0 0 -34306 -186086 0 0 34306 77230 0 0 258066 31217 0zm119574 -41244c21217,30627 48828,46140 83642,46140 34415,0 62426,-15105 83643,-44914 19210,-27357 28810,-62471 28810,-105759 0,-31444 -4805,-58801 -14814,-81671 -10000,-22453 -23606,-40010 -40817,-51854 -16803,-11843 -36013,-17965 -56822,-17965 -32016,0 -58819,13469 -80036,40009 -21608,26958 -32417,65341 -32417,115160 0,39200 9610,73088 28811,100854zm26013 -193144c15213,-20009 34423,-29809 58029,-29809 14405,0 28011,4496 40418,13479 12407,9391 21608,21235 27611,36748 8002,19601 12008,42062 12008,67376 0,38792 -7603,68192 -23216,88202 -15604,20009 -34414,30218 -57221,30218 -22407,0 -41617,-9800 -57230,-29810 -15604,-20009 -23206,-47775 -23206,-83706 0,-41653 7602,-72689 22807,-92698zm236186 234388l0 -119237 60027 0c32407,0 55223,-8166 68429,-24905 13198,-16739 19610,-37975 19610,-64115 0,-20009 -4006,-36748 -12007,-50627 -8002,-13478 -19210,-22870 -32417,-27775 -10009,-3669 -25613,-5713 -46421,-5713l-88438 0 0 292372 31217 0zm0 -258066l60027 0c16404,0 27612,1626 33606,4487 6413,3269 11608,8982 16013,17148 4396,8165 6403,17965 6403,29809 0,17557 -4405,31036 -13206,40018 -8810,8575 -22806,13070 -42016,13070l-60827 0 0 -104532z"/>
  <path class="fil0" d="M626188 1358689c22007,0 38810,-6122 51617,-18783 12407,-12652 18810,-28992 18810,-49401 0,-11026 -2007,-20418 -5595,-28184 -4005,-8165 -9609,-14287 -16421,-18783 -6794,-4486 -22398,-10617 -46413,-18374 -17611,-5713 -28011,-9800 -31608,-12652 -6012,-4496 -8810,-10618 -8810,-18383 0,-8166 3197,-14696 9210,-19601 5995,-5304 15604,-7756 28011,-7756 22407,0 34414,11843 37212,35531l28011 -5313c-1998,-14696 -5604,-26131 -10400,-33888 -5213,-7766 -12407,-13887 -22016,-18783 -9601,-4496 -20809,-6948 -33606,-6948 -20009,0 -35623,5722 -46822,16748 -11607,11426 -17211,26131 -17211,44097 0,10618 1998,20009 6403,28174 3996,8166 10009,14705 17611,19601 7603,4904 22407,11026 44814,17965 15614,4905 25614,8983 29210,12253 6013,4496 8811,11026 8811,19600 0,9801 -3597,17557 -10409,24088 -6803,6130 -16404,9400 -28810,9400 -12407,0 -22407,-3678 -29619,-11026 -7602,-6948 -12398,-18374 -13997,-33079l-28819 5313c6403,45323 30018,68184 70836,68184zm171726 -29392c-13996,0 -25604,-6131 -35204,-18383 -10009,-11835 -15205,-29810 -16413,-53897l127258 0 0 -9391c0,-35931 -7203,-63298 -22007,-82081 -14814,-18783 -33216,-28174 -55232,-28174 -22807,0 -42017,9800 -57221,28992 -14805,19192 -22407,46957 -22407,83306 0,35523 7602,62471 22407,80845 14805,18783 34414,28175 58420,28175 19210,0 35222,-5713 48429,-17148 12806,-11435 22007,-28584 26803,-51036l-29601 -4496c-8410,28992 -23615,43288 -45232,43288zm-34804 -146186c9200,-11026 20009,-16339 33206,-16339 14414,0 26022,6539 35223,19600 6403,9392 10408,22870 11607,41245l-95241 0c1190,-18783 5995,-33488 15205,-44506zm238529 133525c-7611,8574 -16812,12661 -27611,12661 -14015,0 -25622,-6539 -34424,-19201 -8801,-13060 -13197,-33887 -13197,-62879 0,-27766 4796,-48184 13997,-61254 9210,-12652 21217,-19191 35213,-19191 9610,0 17621,3678 24415,10617 6802,7348 11607,17966 14405,32262l28011 -5313c-3197,-22453 -11199,-39201 -23207,-50219 -12007,-11026 -26803,-16748 -44423,-16748 -22807,0 -41608,9391 -56022,27766 -14805,18383 -22007,45740 -22007,82897 0,36340 7202,64106 21607,82480 14405,18783 32816,28175 55232,28175 18402,0 34006,-6531 47221,-20000 12798,-13070 21199,-32262 24405,-57585l-28810 -4486c-2007,17965 -6803,31444 -14805,40018zm92507 37157l0 -110663c0,-15513 2008,-30218 5595,-43688 2008,-7757 5613,-13887 10809,-18374 4804,-4496 10408,-6540 16803,-6540 6812,0 13615,2453 20817,7766l9601 -33488c-10000,-7757 -20010,-11435 -29610,-11435 -6803,0 -13206,2452 -18411,7357 -5595,4895 -11607,14696 -18410,29391l0 -32252 -26004 0 0 211926 28810 0zm147640 -24496c-13997,0 -25605,-6131 -35205,-18383 -10009,-11835 -15204,-29810 -16412,-53897l127257 0 0 -9391c0,-35931 -7202,-63298 -22007,-82081 -14814,-18783 -33216,-28174 -55232,-28174 -22807,0 -42017,9800 -57221,28992 -14805,19192 -22407,46957 -22407,83306 0,35523 7602,62471 22407,80845 14805,18783 34414,28175 58420,28175 19210,0 35223,-5713 48429,-17148 12806,-11435 22007,-28584 26803,-51036l-29601 -4496c-8410,28992 -23615,43288 -45231,43288zm-34805 -146186c9200,-11026 20009,-16339 33206,-16339 14414,0 26022,6539 35223,19600 6403,9392 10408,22870 11607,41245l-95241 0c1190,-18783 5995,-33488 15205,-44506zm193697 140055c-6794,0 -11190,-2452 -13996,-7347 -1599,-3270 -2407,-10618 -2407,-22053l0 -124133 29219 0 0 -27766 -29219 0 0 -73915 -28811 21644 0 52271 -21208 0 0 27766 21208 0 0 122089c0,21235 1199,35123 3606,42062 1998,7348 6404,12661 12398,16739 6413,4088 14414,6131 24414,6131 6404,0 13606,-1226 21617,-3269l-4005 -31853c-5205,1226 -9610,1634 -12816,1634z"/>
  <path class="fil0" d="M422163 1780880l26204 -26304 -233007 -232916 -26204 26294 37130 0c0,-40009 0,-62462 0,-102217l-37130 0 24196 27875 112789 -97067 2189 -13451c1917,-12498 5241,-23769 9083,-37221 3842,-13106 8392,-28220 11362,-46476l1744 -11190 -4895 -10218c-6985,-14768 -9174,-29791 -15196,-52598l-3415 -12143 -10218 -7684c-25595,-18874 -41935,-32416 -69019,-52507l-10136 -7775 -127903 2271 609 37130 26121 -26213c-28737,-28565 -44114,-44206 -73206,-72780l-26040 26304 37130 345 1571 -224615 -37130 0 25513 26903c29710,-28220 45959,-43588 75832,-72071l-25595 -27003 -1744 37221 121608 5767 10491 -7684c27166,-19573 45604,-32679 72861,-52252l10481 -7684 3497 -12498c4714,-16685 9782,-31363 17820,-48311l4805 -10309 -1744 -11271c-3324,-21054 -10663,-37394 -16249,-50582 -5685,-13461 -9700,-23333 -11189,-33288l-2180 -13451 -109647 -94270 -24196 28220 37130 0c0,-39755 0,-62125 0,-102225l-37130 0 26204 26303 233007 -232926 -26204 -26294 0 37221c39837,0 62290,0 102217,0l0 -37221 -28220 24378 94269 109555 13361 2271c12498,2189 23851,5413 37048,9264 13188,3842 28220,8302 46395,11272l11090 1835 10227 -4805c13887,-6385 28220,-8302 50409,-14069l12316 -3234 7602 -10218c19392,-25949 32934,-42289 53379,-69546l7693 -10227 -2625 -126594 -37130 962 26476 25950c28393,-28829 44033,-44206 72771,-73389l-26467 -25949 -264 37221 224270 1571 345 -37221 -26903 25686c28129,29792 43506,45786 71726,75314l26912 -25341 -37139 -1571 -5059 124324 7421 10227c19219,26903 32416,45168 51726,72071l7420 10572 12316 3588c17303,5059 32852,10563 50682,19219l10309 4805 11444 -1662c21054,-3497 37566,-10573 50845,-16340 13369,-5413 23497,-9610 33460,-11181l13452 -1925 96894 -112435 -28129 -24378 0 37221c39918,0 62289,0 102217,0l0 -37221 -26213 26294 232916 232926 26213 -26303 -37130 0c0,40100 0,62470 0,102225l37130 0 -24196 -28220 -111136 95841 -2443 12489c-2362,12143 -6031,23415 -10400,36521 -4278,12843 -9255,27611 -12670,45513l-2353 11890 5150 10917c6558,13715 8302,27521 13806,49628l3233 12143 10137 7684c26203,19919 42461,33634 70063,54778l10400 7693 125105 -2888 -872 -37130 -26031 26558c28919,28574 44287,43951 73561,72779l26031 -26294 -37130 -354 -1917 223052 37130 345 -25604 -26912c-29700,28139 -45949,43252 -75831,71735l25513 26903 1835 -37130 -122053 -5767 -10573 7339c-27166,19573 -45604,32679 -72861,52252l-10481 7339 -3588 12489c-4805,16685 -9873,31453 -17911,48056l-4887 10564 1744 11271c3325,21145 10663,37485 16168,50591 5758,13451 9691,23415 11180,33370l2098 13451 115496 99955 24287 -27875 -37130 0c0,39755 0,62208 0,102217l37130 0 -26213 -26294 -232916 232916 26213 26304 0 -37130c-39928,0 -62299,0 -102217,0l0 37130 28038 -24378 -100118 -115678 -13370 -2179c-12489,-1926 -23760,-5159 -36958,-9346 -13188,-3852 -28219,-8302 -46385,-11190l-11099 -1917 -10218 4805c-13896,6467 -28220,8302 -50418,14069l-12316 3579 -7602 9872c-19310,26031 -32934,42371 -53379,69547l-7775 10309 2707 126503 37130 -608 -26467 -26304c-28402,28838 -44033,44215 -72780,73388l26385 26304 345 -37221 -223307 -1926 -345 37221 27085 -25340c-28220,-30137 -43334,-46386 -71735,-76531l-26994 25604 37048 1916 6458 -119165 -7775 -10917c-20181,-27520 -33542,-46131 -53642,-73742l-7602 -10573 -12407 -3142c-16422,-4805 -30927,-9610 -47957,-17911l-10926 -5159 -11971 2189c-20527,3842 -36513,11535 -49274,17647 -12925,5768 -22797,10218 -31889,11881l-12752 2270 -96195 111745 28138 24378 0 -37130c-39927,0 -62380,0 -102217,0l0 37130 26204 -26304 -26204 26304 0 36866c39837,0 62290,0 102217,0l17039 0 98811 -114714 -28138 -24024 6902 36167c20446,-3842 36431,-11535 49274,-17293 12934,-6031 22716,-10227 31808,-11798l-6903 -36604 -15995 33370c21499,10227 41063,16948 60028,22452l10045 -35903 -30054 21753c20090,27865 33460,46131 53551,73996l30055 -22098 -37040 -1925 -6557 122135 10835 11535c28311,30054 43425,46131 71726,76185l10927 11880 254842 1926 11008 -11190c28484,-28828 44033,-44205 72780,-73379l11008 -11190 -2707 -129474 -37130 963 29701 22098c19400,-25686 32943,-41935 53470,-69537l-29701 -22107 9691 35904c14769,-4451 35995,-6721 61863,-18256l-15468 -33988 -5940 36867c12579,1925 23851,5068 37130,8919 13106,4187 28129,8728 46222,11617l5940 -36867 -28048 24369 102390 118211 16957 0c39918,0 62289,0 102217,0l15377 0 254669 -254415 0 -15377c0,-40009 0,-62462 0,-102217l0 -16948 -118029 -102217 -24288 27866 36694 -5504c-3324,-21144 -10572,-37739 -16167,-50936 -5767,-13451 -9691,-23324 -11181,-33279l-36694 5759 33552 15994c10045,-21144 16776,-40627 22189,-59582l-35650 -10227 21581 30145c27257,-19573 45604,-32761 72870,-52334l-21580 -30055 -1835 37130 124932 6113 11535 -10918c29792,-28129 46041,-43242 75914,-71726l11453 -10926 2180 -254406 -11099 -11181c-29001,-28574 -44378,-43951 -73643,-72780l-11190 -11180 -127902 3142 963 37221 22452 -29446c-26213,-20273 -42462,-33724 -70064,-54869l-22461 29537 35913 -9355c-4106,-14677 -6376,-36167 -18347,-62116l-33634 15731 36431 6984c2353,-12143 5940,-23324 10309,-36167 4278,-13197 9255,-27875 12752,-45522l-36431 -7339 24197 28138 114278 -98293 0 -17030c0,-39755 0,-62125 0,-102225l0 -15377 -254669 -254761 -15377 0c-39928,0 -62299,0 -102217,0l-17039 0 -99074 115069 28129 24369 -5768 -36513c-21053,3143 -37566,10563 -50845,15986 -13369,5767 -23415,9609 -33369,11180l5758 36522 16076 -33288c-22016,-10572 -42198,-17557 -62025,-23324l-10400 35558 30146 -21844c-19219,-26557 -32417,-45168 -51636,-72080l-30145 21753 37048 1317 5241 -127212 -10917 -11181c-28139,-29791 -43425,-45867 -71736,-75659l-10826 -11180 -255723 -2271 -11008 11272c-28484,28737 -44033,44205 -72780,73388l-11008 11181 2706 129392 37130 -618 -29791 -22452c-19310,26040 -32843,42370 -53379,69546l29791 22098 -9782 -35813c-14850,4450 -36085,6639 -61853,18519l15459 33634 5940 -36522c-12579,-2271 -23851,-5413 -37130,-9255 -13106,-3842 -28129,-8393 -46304,-11535l-5849 36785 28129 -24287 -96449 -112535 -17039 0c-39927,0 -62380,0 -102217,0l-15377 0 -254760 254761 0 15377c0,40100 0,62470 0,102225l0 17030 112353 96458 24105 -28220 -36694 5768c3415,21135 10754,37475 16258,50582 5759,13451 9692,23415 11181,33288l36694 -5677 -33633 -16076c-9964,21489 -16603,41062 -21935,59927l35650 10227 -21671 -30054c-27167,19482 -45605,32670 -72862,52243l21662 30055 1753 -36785 -124496 -6113 -11444 11181c-29710,28220 -45868,43252 -75750,71817l-11444 10572 -1753 255987 11190 11181c28656,28219 44033,43942 73125,72779l11090 10918 130881 -2271 -699 -37130 -22189 29791c25595,18874 41935,32325 69019,52507l22189 -29791 -35731 9955c4541,15994 7339,37829 19564,64042l33642 -15723 -36694 -5767c-2016,12489 -5250,24114 -9173,37221 -3851,13097 -8393,28211 -11272,46476l36694 5767 -24287 -28220 -115323 99338 0 17293c0,39755 0,62208 0,102217l0 15377 254760 254415 15377 0 0 -36866z"/>
 </g>
</svg>
