<?xml version="1.0" encoding="UTF-8"?>
<!DOCTYPE svg PUBLIC "-//W3C//DTD SVG 1.1//EN" "http://www.w3.org/Graphics/SVG/1.1/DTD/svg11.dtd">
<!-- Creator: CorelDRAW X8 -->
<svg xmlns="http://www.w3.org/2000/svg" xml:space="preserve" width="352px" height="257px" version="1.1" style="shape-rendering:geometricPrecision; text-rendering:geometricPrecision; image-rendering:optimizeQuality; fill-rule:evenodd; clip-rule:evenodd"
viewBox="0 0 7681828 5601511"
 xmlns:xlink="http://www.w3.org/1999/xlink">
 <defs>
  <style type="text/css">
   <![CDATA[
    .fil0 {fill:#179BD7;fill-rule:nonzero}
   ]]>
  </style>
 </defs>
 <g id="Слой_x0020_1">
  <metadata id="CorelCorpID_0Corel-Layer"/>
  <path class="fil0" d="M6926953 5496222l0 -105315 -6171821 0c-150619,0 -285888,-60938 -384996,-160021 -98593,-100112 -159557,-236360 -159557,-387984l0 -384250 7260670 0 0 384250c0,151624 -60938,287872 -159789,387984 -98850,99083 -234119,160021 -384507,160021l0 210604c417191,0 754875,-339666 754875,-758609l0 -489797c0,-27996 -11384,-55478 -30959,-74305 -19574,-20064 -46592,-30984 -74331,-30984l-7471249 0c-27738,0 -54730,10920 -74562,30984 -19317,18827 -30727,46309 -30727,74305l0 489797c0,418943 337426,758609 755132,758609l6171821 0 0 -105289zm-3573222 -548031l974365 0 0 -210836 -974365 0 0 210836zm3735483 -595086l0 -105289 -6391311 0 0 -3815274c258,-122623 98851,-221731 219490,-221731l5847041 0c120640,0 219259,99108 219491,221731l0 3920563 105289 0 0 -105289 0 105289 105289 0 0 -3920563c0,-238060 -191983,-431563 -430069,-432542l-5847041 0c-238060,979 -430069,194482 -430069,432542l0 3920563c0,27250 11152,54525 30959,74589 19574,19059 46592,30958 74331,30958l6496600 0c27765,0 54757,-11899 74589,-30958 19316,-20064 30700,-47339 30700,-74589l-105289 0zm-544296 -490518l0 -653320c0,-27249 -11384,-54499 -30958,-74562 -19575,-19085 -46567,-30959 -74563,-30959l-545790 0 0 105521 102559 -23772c-55246,-235356 -147400,-455104 -270023,-654041l-89707 55478 74821 73352 386233 -387984c40900,-41622 40900,-108020 257,-148894l-689223 -693190c-19832,-20064 -46567,-30959 -74563,-30959 -28254,0 -55014,10895 -74821,30959l-386233 388705 74563 74589 55504 -89939c-103306,-63411 -222478,-117189 -336705,-161772 -114458,-44609 -223946,-80770 -305463,-107041l-32710 99855 105316 0 0 -548751c0,-28254 -11410,-54499 -30727,-74589 -19574,-19059 -46824,-30958 -74589,-30958l-974365 0c-27739,0 -54756,11899 -74563,30958 -19574,20090 -30726,46335 -30726,74589l0 548751 105289 0 -24287 -101812c-233631,55478 -452374,148147 -650822,270770l55735 89939 74589 -74589 -386233 -388705c-20089,-19059 -46592,-30959 -74820,-30959 -27997,0 -54757,11900 -74589,30959l-689223 693190c-40617,40874 -40617,107272 0,148894l386490 387984 74563 -73352 -89681 -55478c-122392,198937 -214546,418685 -269792,654041l102560 23772 0 -105521 -546022 0c-27739,0 -54757,11874 -74331,30959 -19574,20063 -30958,47313 -30958,74562l0 653320 210578 0 0 -548030 440733 0c48807,0 91175,-33431 102327,-80744 50043,-212562 133544,-411500 244267,-592357 25524,-40900 19343,-94652 -15092,-129087l-312675 -314375 540845 -544296 311644 314375c34693,34435 88703,40874 130324,14629 179621,-111986 377064,-195486 588158,-245529 47313,-10637 81002,-53495 81002,-102560l0 -443462 763786 0 0 443462c0,45330 29490,86205 72837,100834 81028,26503 186317,60938 294079,102559 107273,41879 216786,91923 302244,144696 41621,26245 95631,19806 130324,-15608l311670 -313396 540561 544296 -312649 314375c-34178,34435 -40385,88187 -15118,129087 111007,180857 194249,379795 244525,592357 11152,47313 53520,80744 102327,80744l440732 0 0 548030 210579 0zm-1299402 0c0,-779651 -628543,-1412161 -1404718,-1412161 -775943,0 -1404460,632510 -1404460,1412161l210579 0c0,-331734 133517,-631505 349814,-849527 216529,-217275 514316,-351797 844067,-351797 329982,0 627770,134522 844299,351797 216039,218022 349814,517793 349814,849527l210605 0z"/>
 </g>
</svg>
