<?xml version="1.0" encoding="UTF-8"?>
<!DOCTYPE svg PUBLIC "-//W3C//DTD SVG 1.1//EN" "http://www.w3.org/Graphics/SVG/1.1/DTD/svg11.dtd">
<!-- Creator: CorelDRAW X8 -->
<svg xmlns="http://www.w3.org/2000/svg" xml:space="preserve" width="122px" height="100px" version="1.1" style="shape-rendering:geometricPrecision; text-rendering:geometricPrecision; image-rendering:optimizeQuality; fill-rule:evenodd; clip-rule:evenodd"
viewBox="0 0 7987751 6545019"
 xmlns:xlink="http://www.w3.org/1999/xlink"
 enable-background="new 0 0 640 480">
 <defs>
  <style type="text/css">
   <![CDATA[
    .fil0 {fill:black}
    .fil2 {fill:#006699}
    .fil1 {fill:#E6E6E6}
   ]]>
  </style>
 </defs>
 <g id="Слой_x0020_1">
  <metadata id="CorelCorpID_0Corel-Layer"/>
  <g id="_711547600">
   <path class="fil0" d="M3277477 1716977c-76057,14307 -124940,61278 -125014,160515l-638 1777256c-2394,101363 56684,189814 133231,196072 914771,74975 1829486,151272 2744294,226885 142076,11507 260898,-95050 260898,-237080 0,-807816 0,-1271939 0,-2079663 0,-136577 -114247,-210628 -255251,-202504l-2757520 158519z"/>
   <path class="fil1" d="M3294715 1873980c-10565,1543 -18929,13910 -18929,27265l-1054 1583339c-443,13744 7635,24844 18365,25306 912423,36314 1824884,73829 2737177,110439 19003,638 34577,-13910 34577,-32672 1072,-711620 1589,-1079528 3567,-1790982 0,-17829 -14797,-27635 -33800,-26849l-2739903 104154 0 0z"/>
   <path class="fil2" d="M7951086 1725859c46490,245639 48024,493311 8808,732480l-378232 67221c-40251,169545 -105125,329912 -190766,476536l227597 309616c-136503,200332 -308534,378555 -511463,524319l-315337 -220092c-87471,53819 -180183,100457 -277045,138610l0 -661608c320420,-211895 529653,-577067 524662,-989709 -7699,-645592 -537481,-1162656 -1182971,-1154754 -381264,4622 -717563,191182 -927479,476194l-692100 39808c32109,-80456 70012,-157853 113295,-231831l-227616 -309689c136402,-200277 308414,-378454 511482,-524246l315171 220018c144793,-89107 303330,-157899 471840,-202263l57979 -379822c245787,-46435 493385,-48025 732554,-8808l67221 378260c169517,40352 329764,105300 476370,190839l309735 -227615c200231,136549 378575,308469 524376,511537l-220231 315337c89162,144553 157899,303063 202309,471526l379841 58136z"/>
   <path class="fil0" d="M5291592 2799564c138093,1248 278312,2810 421026,4381 0,195979 0,391902 0,588195 -142714,-5943 -282767,-11618 -421026,-17145 0,-191958 0,-383704 0,-575431l0 0z"/>
   <path class="fil0" d="M4686909 2432857c129534,-1072 261027,-2393 394369,-3567 0,312351 0,624777 0,937258 -133351,-5555 -264835,-10907 -394369,-16119 0,-305882 0,-611653 0,-917572l0 0z"/>
   <path class="fil0" d="M4119574 2652284c121586,296 245057,638 370191,952 0,229696 0,459419 0,689170 -125107,-4991 -248605,-10074 -370191,-14964 0,-225129 0,-450203 0,-675158l0 0z"/>
   <path class="fil2" d="M3586233 2212303c114201,-2570 230167,-5213 347890,-7829 0,371874 0,743673 0,1115408 -117695,-4843 -233689,-9492 -347890,-14206 0,-364396 0,-728931 0,-1093373l0 0z"/>
   <path class="fil0" d="M7028986 4225188l-1247974 1032752 -2639234 0 -430249 -1032752 1697872 0c-4741,-63209 -13623,-186523 -17292,-237071 118776,11591 238383,20057 357353,30076 18735,43800 41185,138767 61944,206995l2217580 0 0 0z"/>
   <path class="fil1" d="M2813530 4443054c352140,-1516 712867,-2940 1081441,-4770 377244,-1543 763960,-3151 1160022,-4815 -64948,100383 -131198,202754 -198715,306825 -68764,106400 -139026,214611 -210647,325170 -414278,-6090 -818445,-11932 -1212214,-17949 -384277,-5601 -759570,-10980 -1125722,-16359 88211,-102611 174823,-203216 259826,-301861 83312,-97185 165478,-192531 246009,-286241z"/>
   <path class="fil0" d="M2911223 4505265c73164,-194 146827,-444 220897,-536 -31693,38153 -63311,76565 -95420,115254 -74513,0 -148805,-295 -222338,-295 32496,-38394 64808,-76418 96861,-114423l0 0zm315263 -952c-31230,38421 -62849,76953 -94422,115892 75346,0 151199,148 227302,148 31157,-39077 61944,-77933 92758,-116594 -75678,305 -150709,305 -225638,554l0 0zm321751 -536c76371,-370 153158,-536 230140,-638 -29863,38958 -59818,78155 -90014,117750 -77711,120 -155135,-370 -231830,-370 30611,-39327 61352,-78182 91704,-116742l0 0zm328563 -887c77859,-194 156292,-536 234779,-536 -28661,39447 -57701,79088 -87092,118970 -79301,-268 -158288,0 -236868,-268 29687,-39614 59522,-78987 89181,-118166l0 0zm335329 -906c79504,-46 159341,-416 239677,-536 -27995,39808 -55852,79994 -84172,120513 -80872,-221 -161541,-295 -241849,-295 28929,-40132 57710,-79985 86344,-119682l0 0zm342214 -730c80946,-241 162770,-241 244909,-490 -26924,40103 -53847,80650 -81168,121539 -82684,0 -165312,-240 -246887,-490 27931,-40519 55566,-80576 83146,-120559l0 0zm-1772950 157215c73996,315 148436,315 223124,536 -32348,39392 -65196,79089 -97989,118943 -75391,-518 -150441,-980 -224806,-1544 33402,-39456 66713,-78811 99671,-117935l0 0zm318618 952c-32182,39346 -64781,79357 -97305,119090 76297,296 152696,860 229797,1470 32007,-40371 63922,-80429 95374,-120245 -76177,-65 -152086,-167 -227866,-315l0 0zm325365 666c76935,175 154573,517 232515,517 -30639,40205 -61629,80651 -92703,121614 -78672,-657 -156873,-1202 -234520,-1618 31859,-40454 63256,-80752 94708,-120513l0 0zm331992 850c-30620,40251 -60862,81020 -91972,121928 79430,295 159461,859 239770,1469 30075,-41157 60085,-82194 89893,-122759 -79773,-167 -158898,-416 -237691,-638l0 0zm339266 1026c80382,0 161273,240 242533,518 -28855,40842 -57618,82138 -87055,123961 -81972,-444 -163547,-906 -244456,-1618 29706,-41175 59374,-82462 88978,-122861l0 0zm346272 813c82092,148 164646,241 247570,657 -27385,41397 -55464,83266 -83608,125402 -83830,-758 -167022,-1321 -249946,-1710 29077,-41600 57637,-83339 85984,-124349l0 0zm-1795049 153648c74680,444 149711,1202 225518,1618 -33652,40639 -67147,81528 -101215,122463 -76177,-758 -151864,-1710 -227200,-2588 34743,-40796 68996,-81315 102897,-121493l0 0zm321816 2487c-33134,40547 -66639,81454 -100235,122787 77175,979 154526,1857 232311,2643 33107,-41573 65779,-82758 98359,-123813 -77110,-416 -153750,-1174 -230435,-1617l0 0zm329053 2523c150394,1072 301963,2273 455047,3567 154720,1072 311399,2228 469022,3420 -29715,42359 -59374,85050 -89505,127824 -159138,-1885 -317185,-3669 -473227,-5305 -154406,-1830 -307222,-3567 -458883,-5555 32617,-41471 65142,-83016 97546,-123951l0 0zm1029073 7921c83044,443 166606,1201 250584,1830 -28393,42894 -57175,85863 -86076,129238 -85078,-878 -169545,-2080 -253051,-2939 29631,-42932 59198,-85623 88543,-128129z"/>
   <path class="fil2" d="M2857330 2326725c42913,-1368 78257,-8826 75567,-59374l-4085 -115864c-1414,-41157 -38200,-59938 -77517,-72314l-130588 -40639c-32423,-10250 -54513,-43209 -62674,-74856 -215369,-1464877 -2292971,-1258972 -2249689,89182 -2005,11368 -11710,18069 -26627,21304 -23596,5213 -41009,26628 -40251,51693l7772 238356c832,28218 24604,50427 52868,49596 818408,-27053 1636834,-57914 2455224,-87084l0 0z"/>
   <path class="fil0" d="M637938 2570017c65465,252293 161883,523247 260483,654417 143740,191432 432597,359498 728053,396108 140958,6091 175340,2588 309616,-32673 273421,-96741 497886,-319033 574479,-533738 43578,-121853 54438,-336225 46240,-552417 -639602,22986 -1279269,46758 -1918871,68303l0 0z"/>
   <path class="fil0" d="M0 6545019l6109 -454724c10879,-807474 -109015,-2066002 982695,-2246407 211108,-34678 771409,-38348 1200697,20490 839075,114839 1045368,1023861 1134411,1772432 30861,304459 52701,609305 69846,908209l-3393758 0z"/>
  </g>
 </g>
</svg>
