<?xml version="1.0" encoding="UTF-8"?>
<!DOCTYPE svg PUBLIC "-//W3C//DTD SVG 1.1//EN" "http://www.w3.org/Graphics/SVG/1.1/DTD/svg11.dtd">
<!-- Creator: CorelDRAW X8 -->
<svg xmlns="http://www.w3.org/2000/svg" xml:space="preserve" width="399px" height="315px" version="1.1" style="shape-rendering:geometricPrecision; text-rendering:geometricPrecision; image-rendering:optimizeQuality; fill-rule:evenodd; clip-rule:evenodd"
viewBox="0 0 33504557 26436598"
 xmlns:xlink="http://www.w3.org/1999/xlink">
 <defs>
  <style type="text/css">
   <![CDATA[
    .fil0 {fill:#0066FF}
   ]]>
  </style>
 </defs>
 <g id="Слой_x0020_1">
  <metadata id="CorelCorpID_0Corel-Layer"/>
  <path class="fil0" d="M12607445 18873713l0 748856c900505,-118728 1831119,-241675 2799325,-369870l0 -788005c-968206,141128 -1898820,277459 -2799325,409019zm-3133712 459419l0 704031c796392,-105620 1617870,-214052 2467800,-326377l0 -739012c-849930,124479 -1671408,244789 -2467800,361358zm-2779285 406457l0 664506c707270,-93290 1436538,-189669 2191220,-289337l0 -695594c-754682,110014 -1483950,216337 -2191220,320425zm-2482692 363291l0 628972c633945,-83973 1286472,-169981 1959038,-258851l0 -656444c-672566,97985 -1325093,193585 -1959038,286323zm-2231374 327431l0 596629c570412,-75637 1157323,-152905 1760154,-232710l0 -622519c-602831,88594 -1189742,174250 -1760154,258600zm10627063 -2827575l0 749282c900505,-140952 1831119,-286750 2799325,-437722l0 -788506c-968206,164858 -1898820,323513 -2799325,476946zm-3133712 534979l0 704207c796392,-124830 1617870,-252850 2467800,-385715l0 -739816c-849930,145472 -1671408,285621 -2467800,421324zm-2779285 473682l0 664957c707270,-111521 1436538,-225026 2191220,-342649l0 -696146c-754682,128647 -1483950,253452 -2191220,373838zm-2482692 423558l0 629425c633945,-99844 1286472,-201471 1959038,-306338l0 -656720c-672566,114283 -1325093,225904 -1959038,333633zm-2231374 380744l0 596904c570412,-89020 1157323,-180527 1760154,-274696l0 -622418c-602831,102656 -1189742,202676 -1760154,300210zm10627063 -3084192l0 748730c900505,-162096 1831119,-330244 2799325,-504845l0 -789210c-968206,188338 -1898820,369493 -2799325,545325zm-3133712 609837l0 705061c796392,-143865 1617870,-292149 2467800,-445682l0 -739715c-849930,164959 -1671408,325573 -2467800,480336zm-2779285 541458l0 665460c707270,-127818 1436538,-259831 2191220,-396061l0 -696146c-754682,146702 -1483950,288709 -2191220,426747zm-2482692 483425l0 629600c633945,-113931 1286472,-231579 1959038,-352869l0 -657851c-672566,131284 -1325093,258149 -1959038,381120zm-2231374 435236l0 597533c570412,-102958 1157323,-209080 1760154,-317513l0 -623573c-602831,117824 -1189742,231831 -1760154,343553zm27154291 1850329l0 733864c797019,99668 1594139,198633 2390632,299005l0 -692681c-796493,-113480 -1593613,-226708 -2390632,-340188zm-3439899 -490230l0 795513c929107,115865 1857687,231479 2786995,347169l0 -745817c-929308,-131912 -1857888,-264074 -2786995,-396865zm3439899 -756992l0 734567c797019,123399 1594139,246371 2390632,369870l0 -692329c-796493,-136859 -1593613,-274169 -2390632,-412108zm-3439899 -592309l0 794910c929107,143514 1857687,287830 2786995,431243l0 -745817c-929308,-160363 -1857888,-320174 -2786995,-480336zm3439899 -655013l0 735898c797019,146602 1594139,293857 2390632,440559l0 -693032c-796493,-160263 -1593613,-321681 -2390632,-483425zm-3439899 -695342l0 795161c929107,172040 1857687,343553 2786995,514262l0 -746168c-929308,-187986 -1857888,-375897 -2786995,-563255zm-11580427 -3310599l-498141 -13564853c-761687,-243006 -1586079,-254080 -2481260,0l-479532 13070253 -1000073 -142810 -486891 -11364818c-746369,-262417 -1566516,-284817 -2481536,0l-502560 12158850 -1961097 448871 0 2164200 10864494 -2340409 0 -289864 -973404 -139420zm12706385 1265830l-2161212 454998 0 210738 6854535 1476566 0 -1053736 -4693323 -1088566zm-24840174 9435161l1783 -2009713 -869241 -43317 0 -4860492c5109524,-1101071 10219199,-2202093 15329049,-3301935l0 10215457 620309 0 0 -10215457 2773510 597458 0 9617999 395459 0 0 -9577971c0,-262844 -190272,-444276 -451257,-444276l-1065815 0 -1592282 -342825c224649,-446837 645973,-782229 1180174,-782229l1471444 0c878180,0 1583618,690270 1583618,1570133l0 9577168 187459 0 0 -9250189 959040 206946 0 9043243 395458 0 0 -9194817c0,-262217 -191426,-444628 -447891,-444628l-871702 0 0 -62453c0,-413187 -156195,-785342 -412560,-1063077l1285316 0c865173,0 1572443,700917 1572443,1566341l0 9198634 187384 0 0 -8675684 1958585 422379c2317482,499346 4377946,943094 6220942,1339783l0 4860492 -869040 147154c0,702675 628,1234390 1331,1905876l1980483 0 0 1984300 -33504557 0 0 -1984300 1980558 0z"/>
 </g>
</svg>
