<?xml version="1.0" encoding="utf-8"?>
<!-- Generator: Adobe Illustrator 16.0.0, SVG Export Plug-In . SVG Version: 6.00 Build 0)  -->
<!DOCTYPE svg PUBLIC "-//W3C//DTD SVG 1.1//EN" "http://www.w3.org/Graphics/SVG/1.1/DTD/svg11.dtd">
<svg version="1.1" id="Слой_1" xmlns="http://www.w3.org/2000/svg" xmlns:xlink="http://www.w3.org/1999/xlink" x="0px" y="0px"
	 width="99.21px" height="99.21px" viewBox="0 0 99.21 99.21" enable-background="new 0 0 99.21 99.21" xml:space="preserve">
<path fill-rule="evenodd" clip-rule="evenodd" d="M13.058,51.504h18.575V34.035H13.058V51.504L13.058,51.504z M54.067,51.504h15.458
	V33.472H54.067V51.504L54.067,51.504z M56.386,41.986v-6.327h10.821v6.327H56.386L56.386,41.986z M56.386,43.021h2.923v1.145h-2.923
	V43.021L56.386,43.021z M60.334,43.021h2.924v1.145h-2.924V43.021L60.334,43.021z M64.284,43.021h2.923v1.145h-2.923V43.021
	L64.284,43.021z M56.386,45.203h2.923v1.145h-2.923V45.203L56.386,45.203z M60.334,45.203h2.924v1.145h-2.924V45.203L60.334,45.203z
	 M64.284,45.203h2.923v1.145h-2.923V45.203L64.284,45.203z M56.386,47.385h2.923v1.145h-2.923V47.385L56.386,47.385z M60.334,47.385
	h2.924v1.145h-2.924V47.385L60.334,47.385z M64.284,47.385h2.923v1.145h-2.923V47.385L64.284,47.385z M49.896,48.379h3.445v-6.565
	h-3.445v1.266h-1.043v1.488h-0.442v1.06h0.442v1.487h1.043V48.379L49.896,48.379z M13.058,72.533V52.587h20.718v-1.581h2.285v-1.994
	h1.621v-2.784H36.91v-1.684h0.771v-1.102v-0.457h7.438v0.457v1.102h0.771v1.684H45.12v2.784h1.621v1.994h3.74v1.581h19.045v19.946
	H56.453v-4.408H26.131v4.408H13.058L13.058,72.533z M16.366,55.28v1.414h49.167V55.28H16.366L16.366,55.28z M28.558,41.037h1.271
	v3.466h-1.271V41.037L28.558,41.037z M16.366,59.256v0.943h49.167v-0.943H16.366L16.366,59.256z M41.401,48.71
	c-1.584,0-2.869,1.284-2.869,2.869c0,1.584,1.284,2.869,2.869,2.869c1.585,0,2.869-1.285,2.869-2.869
	C44.27,49.995,42.986,48.71,41.401,48.71L41.401,48.71z M41.753,52.398v1.316c1.043-0.171,1.812-1.077,1.812-2.136
	c0-0.269-0.049-0.526-0.139-0.764l-1.14,0.658c0.004,0.035,0.006,0.07,0.006,0.105C42.292,51.946,42.07,52.262,41.753,52.398
	L41.753,52.398z M41.049,53.715v-1.316c-0.317-0.137-0.54-0.452-0.54-0.819c0-0.035,0.002-0.07,0.006-0.105l-1.14-0.658
	c-0.09,0.237-0.139,0.495-0.139,0.763C39.236,52.638,40.005,53.544,41.049,53.715L41.049,53.715z M41.936,50.866l1.14-0.657
	c-0.412-0.503-1.023-0.793-1.674-0.793s-1.262,0.291-1.673,0.792l1.139,0.658C41.182,50.63,41.621,50.63,41.936,50.866z"/>
<path fill-rule="evenodd" clip-rule="evenodd" fill="#006699" d="M73.34,29.548c-0.082,1.65,0.815,3.266,2.399,4.021
	c2.104,1.003,4.624,0.111,5.627-1.993c0.385-0.806,0.491-1.673,0.357-2.493C78.929,29.244,76.134,29.395,73.34,29.548L73.34,29.548z
	"/>
<path fill-rule="evenodd" clip-rule="evenodd" fill="#006699" d="M64.745,37.246l4.376,2.529c0.232,0.105,0.461,0.084,0.686-0.073
	l4.389-3.45c1.461-0.993,5.823-2.857,9.273-0.359c1.749,1.267,5.19,5.317,6.246,6.219c0.384,0.362,0.609,0.8,0.667,1.321
	l0.263,7.752c0.088,1.589-2.998,2.136-3.277,0.471l-0.418-6.959L83.536,41.6c0.417,2.069,0.817,4.124,1.283,6.179
	c0.418,1.842,0.53,3.913,0.31,5.509l-0.922,6.66c-0.053,0.356-0.074,0.716-0.045,1.082l0.42,8.672
	c0.026,0.551,0.045,1.103,0.061,1.659c0.012,0.429-0.029,0.901-0.383,0.954h-4.658c-0.366-0.024-0.602-1.433-0.033-1.681
	l0.664-0.251l-0.651-8.673c-0.062-0.654-0.076-1.33,0.026-2.058l0.68-5.271c0.07-0.244-0.578-0.375-0.84-0.003l-2.816,5.512
	c-0.221,0.388-0.291,0.833-0.251,1.321l0.388,8.527c0.024,0.562,0.07,1.144,0.072,1.72c0.003,0.399-0.065,0.807-0.436,0.855h-5.282
	c-0.415-0.024-0.683-1.433-0.038-1.681l1.35-0.449l-1.039-9.646c-0.062-0.909,0.01-1.789,0.276-2.625l3.883-8.567
	c0.156-0.526,0.245-1.035,0.175-1.501l-1.104-5.835l-3.627,2.001c-0.66,0.483-1.652,0.61-2.79,0.102l-4.152-2.454
	c-1.04-0.614-2.259-1.195-2.269-2.576c0-0.187,0.314-1.147,0.574-1.751C62.79,36.331,64.035,36.774,64.745,37.246L64.745,37.246z"/>
<path fill-rule="evenodd" clip-rule="evenodd" fill="#006699" d="M71.785,29.068c-0.188,0.01-0.345-0.008-0.354-0.229l-0.028-0.507
	c-0.011-0.18,0.143-0.276,0.31-0.346l0.555-0.23c0.136-0.058,0.219-0.21,0.242-0.351c0.688-5.568,8.769-5.604,9.849-0.506
	c0.013,0.049,0.057,0.074,0.123,0.082c0.105,0.014,0.19,0.1,0.197,0.209l0.061,1.043c0.007,0.124-0.087,0.23-0.211,0.237
	C78.947,28.679,75.365,28.869,71.785,29.068z"/>
<rect x="8.618" y="72.268" fill-rule="evenodd" clip-rule="evenodd" width="81.042" height="4.618"/>
</svg>
