<?xml version="1.0" encoding="UTF-8"?>
<!DOCTYPE svg PUBLIC "-//W3C//DTD SVG 1.1//EN" "http://www.w3.org/Graphics/SVG/1.1/DTD/svg11.dtd">
<!-- Creator: CorelDRAW X8 -->
<svg xmlns="http://www.w3.org/2000/svg" xml:space="preserve" width="400px" height="262px" version="1.1" style="shape-rendering:geometricPrecision; text-rendering:geometricPrecision; image-rendering:optimizeQuality; fill-rule:evenodd; clip-rule:evenodd"
viewBox="0 0 17978502 11777391"
 xmlns:xlink="http://www.w3.org/1999/xlink">
 <defs>
  <style type="text/css">
   <![CDATA[
    .fil0 {fill:#0066FF}
   ]]>
  </style>
 </defs>
 <g id="Слой_x0020_1">
  <metadata id="CorelCorpID_0Corel-Layer"/>
  <g id="_1093225920">
   <path class="fil0" d="M7302379 6074446l249774 -143825c-90169,-110489 -224295,-174052 -366931,-174052 -142698,0 -276539,63563 -366755,173607l249663 144270c69039,-51593 165368,-51593 234249,0zm-194324 624531l0 -288524c-69563,-29956 -118220,-99123 -118220,-179592 0,-7683 381,-15351 1334,-23082l-249885 -144032c-19653,51736 -30464,108298 -30464,167114 0,232074 168511,430652 397235,468116zm154398 -288524l0 288524c228598,-37464 397172,-236042 397172,-468116 0,-58816 -10747,-115378 -30527,-167336l-249885 144254c1016,7731 1412,15399 1412,23082 0,80469 -48735,149636 -118172,179592zm-77231 -808171c-347277,0 -628737,281238 -628737,628579 0,347214 281460,628849 628737,628849 347325,0 628738,-281635 628738,-628849 0,-347341 -281413,-628579 -628738,-628579zm-5487046 2517887l10776230 0 0 -206706 -10776230 0 0 206706zm2672237 -4199822l278666 0 0 759625 -278666 0 0 -759625zm-2672237 3431624l10776230 0 0 -309908 -10776230 0 0 309908zm-724955 3471503l0 -4371683 4540765 0 0 -346547 500898 0 0 -437050 355215 0 0 -609973 -169130 0 0 -369010 169130 0 0 -241488 0 -100122 1630295 0 0 100122 0 241488 169019 0 0 369010 -169019 0 0 609973 355183 0 0 437050 819600 0 0 346547 4174216 0 0 4371683 -2865164 0 0 -966157 -6645844 0 0 966157 -2865164 0zm8073989 -5293946l755133 0 0 -1438765 -755133 0 0 277380 -228724 0 0 325989 -96932 0 0 232201 96932 0 0 325989 228724 0 0 277206zm3153403 -217961l640612 0 0 250838 -640612 0 0 -250838zm-865748 0l640786 0 0 250838 -640786 0 0 -250838zm-865352 0l640549 0 0 250838 -640549 0 0 -250838zm1731100 -478149l640612 0 0 250838 -640612 0 0 -250838zm-865748 0l640786 0 0 250838 -640786 0 0 -250838zm-865352 0l640549 0 0 250838 -640549 0 0 -250838zm1731100 -478149l640612 0 0 250837 -640612 0 0 -250837zm-865748 0l640786 0 0 250837 -640786 0 0 -250837zm-865352 0l640549 0 0 250837 -640549 0 0 -250837zm0 -1613611l2371775 0 0 1386744 -2371775 0 0 -1386744zm-508168 3472725l3388001 0 0 -3951938 -3388001 0 0 3951938zm-8988124 0l4071078 0 0 -3828686 -4071078 0 0 3828686z"/>
   <path class="fil0" d="M13844640 1297146c-41100,2127 -75596,-1746 -77501,-50291l-6160 -111124c-2349,-39369 31194,-60530 67818,-75770l121585 -50514c29733,-12366 47926,-45799 53085,-76834 150652,-1220185 1921788,-1228313 2158577,-110822 2746,10700 12366,16240 26939,17970 23066,2969 41719,22019 43227,45974l13272 228613c1460,26987 -19034,50291 -46260,51799 -784882,45593 -1569923,87312 -2354582,130999zm-1542984 1792313l959045 554142c50958,23130 101091,18431 150318,-16081l961902 -755927c320116,-217897 1276239,-626276 2032452,-78786 383344,277603 1137588,1165242 1368979,1362995 84121,79183 133571,175067 146176,289366l57562 1699017c19272,348277 -657074,468116 -718335,103202l-91566 -1525236 -748085 -678521c91392,453559 179211,903880 281302,1354486 91566,403665 116204,857621 67817,1207359l-202054 1459720c-11541,78120 -16240,156859 -9859,237169l92058 1900564c5779,120791 9859,241709 13288,363739 2508,93915 -6446,197514 -83962,209055l-1020925 0c-80247,-5318 -131824,-313956 -7286,-368327l145619 -55054 -142809 -1900849c-13446,-143413 -16701,-291493 5762,-450987l148969 -1155114c15399,-53546 -126681,-82153 -184084,-620l-617260 1207978c-48323,84962 -63785,182624 -55054,289604l85010 1868972c5381,123046 15414,250616 15859,376900 619,87581 -14335,176861 -95487,187497l-1157686 0c-91011,-5318 -149652,-313956 -8350,-368327l295811 -98455 -227772 -2114270c-13494,-199324 2127,-392140 60594,-575319l851017 -1877767c34226,-115379 53720,-226645 38306,-328974l-241869 -1278874 -794963 438557c-144651,105790 -362104,133793 -611497,22288l-910039 -537679c-227931,-134635 -495119,-261935 -497247,-564620 0,-40877 68945,-251282 125840,-383963 93963,-219644 366867,-122475 522503,-18860zm1883705 -1687031c-17971,361723 178702,715763 525932,881194 461226,219819 1013416,24416 1233234,-436874 84343,-176750 107695,-366597 78406,-546189 -612625,35115 -1225170,68040 -1837572,101869z"/>
   <polygon class="fil0" points="17762351,10765245 0,10765245 0,11777391 17762351,11777391 "/>
  </g>
 </g>
</svg>
