<?xml version="1.0" encoding="utf-8"?>
<!-- Generator: Adobe Illustrator 16.0.0, SVG Export Plug-In . SVG Version: 6.00 Build 0)  -->
<!DOCTYPE svg PUBLIC "-//W3C//DTD SVG 1.1//EN" "http://www.w3.org/Graphics/SVG/1.1/DTD/svg11.dtd">
<svg version="1.1" id="Слой_1" xmlns="http://www.w3.org/2000/svg" xmlns:xlink="http://www.w3.org/1999/xlink" x="0px" y="0px"
	 width="99.21px" height="99.21px" viewBox="0 0 99.21 99.21" enable-background="new 0 0 99.21 99.21" xml:space="preserve">
<path fill-rule="evenodd" clip-rule="evenodd" d="M43.183,35.661c-0.682,0.128-1.12,0.549-1.12,1.439l-0.006,15.931
	c-0.021,0.908,0.508,1.701,1.194,1.758c8.2,0.672,16.399,1.355,24.6,2.033c1.273,0.104,2.339-0.852,2.339-2.125
	c0-7.241,0-11.401,0-18.642c0-1.224-1.024-1.888-2.288-1.815L43.183,35.661z"/>
<path fill-rule="evenodd" clip-rule="evenodd" fill="#FFFFFF" d="M43.338,37.068c-0.095,0.014-0.17,0.125-0.17,0.245l-0.009,14.193
	c-0.004,0.123,0.068,0.223,0.165,0.227c8.179,0.326,16.358,0.662,24.536,0.99c0.17,0.006,0.31-0.125,0.31-0.293
	c0.01-6.379,0.015-9.677,0.032-16.054c0-0.16-0.133-0.248-0.303-0.241L43.338,37.068L43.338,37.068z"/>
<path fill-rule="evenodd" clip-rule="evenodd" fill="#006699" d="M85.077,35.741c0.417,2.202,0.431,4.422,0.079,6.566l-3.391,0.603
	c-0.36,1.52-0.942,2.957-1.71,4.271l2.04,2.775c-1.224,1.796-2.766,3.394-4.585,4.7l-2.826-1.973
	c-0.784,0.482-1.615,0.9-2.483,1.242v-5.931c2.872-1.899,4.748-5.173,4.703-8.872c-0.069-5.787-4.818-10.422-10.604-10.351
	c-3.417,0.042-6.432,1.714-8.313,4.269l-6.204,0.357c0.288-0.721,0.628-1.415,1.016-2.078l-2.041-2.776
	c1.223-1.795,2.765-3.393,4.585-4.699l2.825,1.972c1.298-0.799,2.719-1.416,4.229-1.813l0.52-3.404
	c2.203-0.417,4.423-0.431,6.566-0.079l0.603,3.391c1.52,0.362,2.956,0.944,4.271,1.711l2.776-2.041
	c1.795,1.224,3.394,2.765,4.7,4.585l-1.974,2.827c0.799,1.296,1.415,2.717,1.813,4.227L85.077,35.741z"/>
<path fill-rule="evenodd" clip-rule="evenodd" d="M61.237,45.365c1.238,0.012,2.495,0.025,3.774,0.039c0,1.757,0,3.514,0,5.272
	c-1.279-0.053-2.535-0.104-3.774-0.153C61.237,48.803,61.237,47.084,61.237,45.365L61.237,45.365z"/>
<path fill-rule="evenodd" clip-rule="evenodd" d="M55.817,42.078c1.161-0.01,2.34-0.021,3.535-0.032c0,2.8,0,5.601,0,8.401
	c-1.195-0.05-2.374-0.098-3.535-0.145C55.817,47.562,55.817,44.82,55.817,42.078L55.817,42.078z"/>
<path fill-rule="evenodd" clip-rule="evenodd" d="M50.731,44.045c1.09,0.003,2.197,0.006,3.318,0.009c0,2.059,0,4.118,0,6.178
	c-1.121-0.045-2.229-0.091-3.318-0.135C50.731,48.079,50.731,46.062,50.731,44.045L50.731,44.045z"/>
<path fill-rule="evenodd" clip-rule="evenodd" fill="#006699" d="M45.951,40.101c1.023-0.023,2.063-0.046,3.118-0.07
	c0,3.333,0,6.666,0,9.998c-1.055-0.043-2.095-0.085-3.118-0.127C45.951,46.636,45.951,43.368,45.951,40.101L45.951,40.101z"/>
<path fill-rule="evenodd" clip-rule="evenodd" d="M76.812,58.145l-11.187,9.258H41.967l-3.856-9.258h15.22
	c-0.043-0.566-0.122-1.672-0.155-2.125c1.064,0.104,2.137,0.18,3.203,0.27c0.168,0.393,0.369,1.244,0.556,1.855H76.812
	L76.812,58.145z"/>
<path fill-rule="evenodd" clip-rule="evenodd" d="M39.221,59.604c3.151,0.189,6.378,0.383,9.677,0.58
	c3.375,0.203,6.835,0.41,10.379,0.623c-0.639,0.861-1.29,1.738-1.954,2.631c-0.677,0.912-1.367,1.84-2.07,2.787
	c-3.704-0.293-7.316-0.578-10.834-0.857c-3.435-0.271-6.789-0.537-10.061-0.795c0.848-0.867,1.68-1.717,2.498-2.551
	C37.658,61.201,38.447,60.395,39.221,59.604z"/>
<path fill-rule="evenodd" clip-rule="evenodd" d="M40.06,60.215c0.655,0.041,1.313,0.082,1.976,0.123
	c-0.305,0.322-0.611,0.648-0.92,0.977c-0.667-0.043-1.331-0.088-1.989-0.131C39.44,60.859,39.75,60.537,40.06,60.215L40.06,60.215z
	 M42.88,60.389c-0.301,0.326-0.606,0.652-0.911,0.982c0.674,0.043,1.353,0.088,2.033,0.133c0.301-0.332,0.599-0.662,0.896-0.99
	C44.222,60.473,43.55,60.43,42.88,60.389L42.88,60.389z M45.758,60.568c0.684,0.041,1.371,0.084,2.06,0.127
	c-0.29,0.332-0.58,0.666-0.874,1.002c-0.694-0.045-1.387-0.092-2.073-0.137C45.168,61.227,45.465,60.896,45.758,60.568
	L45.758,60.568z M48.699,60.75c0.696,0.043,1.398,0.086,2.101,0.131c-0.279,0.336-0.563,0.674-0.848,1.014
	c-0.709-0.047-1.416-0.092-2.119-0.139C48.121,61.418,48.411,61.084,48.699,60.75L48.699,60.75z M51.698,60.936
	c0.712,0.045,1.426,0.088,2.146,0.133c-0.273,0.34-0.547,0.684-0.824,1.029c-0.723-0.049-1.444-0.096-2.163-0.143
	C51.14,61.613,51.419,61.273,51.698,60.936L51.698,60.936z M54.761,61.125c0.725,0.045,1.456,0.092,2.19,0.137
	c-0.264,0.344-0.528,0.691-0.797,1.041c-0.739-0.049-1.478-0.098-2.208-0.146C54.219,61.811,54.491,61.467,54.761,61.125
	L54.761,61.125z M38.81,61.512c0.662,0.045,1.328,0.088,1.996,0.133c-0.313,0.334-0.629,0.67-0.945,1.008
	c-0.674-0.049-1.345-0.096-2.01-0.143C38.172,62.176,38.492,61.842,38.81,61.512L38.81,61.512z M41.66,61.703
	c-0.311,0.334-0.625,0.672-0.939,1.01c0.682,0.047,1.365,0.096,2.055,0.145c0.309-0.342,0.618-0.682,0.922-1.02
	C43.016,61.793,42.337,61.748,41.66,61.703L41.66,61.703z M44.569,61.896c0.688,0.047,1.383,0.094,2.08,0.139
	c-0.297,0.342-0.597,0.686-0.899,1.033c-0.703-0.051-1.403-0.1-2.097-0.148C43.961,62.576,44.265,62.234,44.569,61.896
	L44.569,61.896z M47.539,62.096c-0.297,0.342-0.592,0.689-0.893,1.037c0.71,0.049,1.425,0.1,2.144,0.15
	c0.292-0.35,0.585-0.699,0.875-1.045C48.952,62.189,48.244,62.143,47.539,62.096L47.539,62.096z M50.573,62.299
	c0.719,0.047,1.442,0.096,2.169,0.145c-0.281,0.35-0.563,0.703-0.85,1.061c-0.732-0.053-1.462-0.104-2.186-0.156
	C49.996,62.996,50.285,62.645,50.573,62.299L50.573,62.299z M53.67,62.506c0.734,0.049,1.474,0.098,2.215,0.148
	c-0.271,0.355-0.544,0.713-0.819,1.074c-0.749-0.055-1.494-0.107-2.235-0.16C53.113,63.213,53.393,62.857,53.67,62.506L53.67,62.506
	z M37.525,62.848c0.667,0.047,1.338,0.096,2.016,0.145c-0.324,0.344-0.647,0.689-0.976,1.037c-0.681-0.051-1.358-0.104-2.031-0.154
	C36.868,63.529,37.198,63.188,37.525,62.848L37.525,62.848z M40.401,63.055c-0.319,0.344-0.643,0.691-0.967,1.041
	c0.689,0.053,1.381,0.105,2.077,0.158c0.32-0.354,0.636-0.703,0.951-1.051C41.773,63.154,41.087,63.104,40.401,63.055L40.401,63.055
	z M43.344,63.266c1.345,0.098,2.7,0.195,4.069,0.295c1.383,0.1,2.784,0.199,4.195,0.301c-0.291,0.361-0.582,0.727-0.876,1.092
	c-1.422-0.107-2.835-0.215-4.229-0.32c-1.38-0.105-2.747-0.209-4.103-0.313C42.715,63.967,43.03,63.615,43.344,63.266L43.344,63.266
	z M52.545,63.93c0.742,0.053,1.49,0.107,2.241,0.162c-0.28,0.365-0.562,0.734-0.845,1.105c-0.761-0.057-1.516-0.115-2.262-0.172
	C51.969,64.658,52.258,64.293,52.545,63.93z"/>
<path fill-rule="evenodd" clip-rule="evenodd" fill="#006699" d="M39.417,41.127c0.385-0.013,0.701-0.079,0.677-0.533l-0.036-1.038
	c-0.013-0.369-0.343-0.538-0.695-0.648l-1.171-0.365c-0.29-0.092-0.488-0.387-0.562-0.671C35.7,24.742,17.076,26.587,17.464,38.672
	c-0.018,0.103-0.105,0.162-0.239,0.191c-0.211,0.047-0.368,0.239-0.361,0.463l0.07,2.137c0.007,0.253,0.221,0.452,0.474,0.444
	C24.745,41.665,32.081,41.389,39.417,41.127L39.417,41.127z"/>
<path fill-rule="evenodd" clip-rule="evenodd" d="M19.522,43.308c0.587,2.262,1.451,4.69,2.335,5.866
	c1.289,1.716,3.878,3.223,6.526,3.551c1.264,0.055,1.572,0.023,2.775-0.293c2.451-0.867,4.463-2.859,5.149-4.784
	c0.391-1.093,0.488-3.014,0.415-4.952C30.99,42.901,25.256,43.114,19.522,43.308L19.522,43.308z"/>
<path fill-rule="evenodd" clip-rule="evenodd" d="M13.804,78.939l0.055-4.076c0.098-7.238-0.977-18.52,8.809-20.137
	c1.893-0.311,6.915-0.344,10.763,0.184c7.521,1.029,9.371,9.178,10.168,15.889c0.277,2.729,0.473,5.461,0.626,8.141H13.804z"/>
</svg>
