<?xml version="1.0" encoding="UTF-8"?>
<!DOCTYPE svg PUBLIC "-//W3C//DTD SVG 1.1//EN" "http://www.w3.org/Graphics/SVG/1.1/DTD/svg11.dtd">
<!-- Creator: CorelDRAW X8 -->
<svg xmlns="http://www.w3.org/2000/svg" xml:space="preserve" width="400px" height="328px" version="1.1" style="shape-rendering:geometricPrecision; text-rendering:geometricPrecision; image-rendering:optimizeQuality; fill-rule:evenodd; clip-rule:evenodd"
viewBox="0 0 75657835 61992495"
 xmlns:xlink="http://www.w3.org/1999/xlink">
 <defs>
  <style type="text/css">
   <![CDATA[
    .fil0 {fill:#0066FF}
    .fil1 {fill:white}
   ]]>
  </style>
 </defs>
 <g id="Слой_x0020_1">
  <metadata id="CorelCorpID_0Corel-Layer"/>
  <g id="_1093231968">
   <path class="fil0" d="M75310509 16346577c440362,2326625 454938,4672487 83384,6937787l-3582250 636742c-381468,1605579 -995755,3124818 -1806883,4513662l2155456 2932508c-1292919,1897424 -2922396,3585730 -4844376,4966498l-2986609 -2084612c-828461,509762 -1706559,951502 -2624051,1312551l0 -6266246c3034736,-2007006 5016726,-5465887 4969519,-9374255 -73208,-6115104 -5091116,-11012531 -11204775,-10937748 -3611271,43794 -6796558,1811085 -8784851,4510642l-6555400 376871c304123,-762081 663399,-1494946 1073165,-2195572l-2155785 -2933296c1292000,-1896965 2921281,-3584614 4844639,-4965514l2984968 2083890c1371445,-844021 2873285,-1495602 4469146,-1915742l549221 -3597614c2328004,-440034 4673209,-454872 6938509,-83385l636743 3582776c1605578,382190 3123635,997134 4512217,1807605l2933755 -2155981c1896308,1293641 3585796,2921740 4966696,4845361l-2085992 2986740c844482,1369147 1495603,2870528 1916465,4466192l3597089 550140z"/>
   <path class="fil0" d="M31043258 16262602c-720258,135516 -1183272,580474 -1183994,1520421l-5975 16833622c-22717,959841 536878,1797625 1261798,1856913 8664568,710410 17328216,1432835 25993047,2149285 1345707,108859 2471201,-900356 2471201,-2245866l0 -19697912c0,-1293576 -1082160,-1994925 -2417494,-1918040l-26118583 1501577zm35533415 23757161l-11820441 9781920 -24998146 0 -4075203 -9781920 16081782 0c-44909,-598793 -129016,-1766832 -163748,-2245604 1124968,109516 2257881,189946 3384688,284886 177471,414822 390068,1314455 586974,1960718l21004094 0zm-35370060 -22270356c-100061,14575 -179310,131839 -179310,258492l-9979 14996864c-4137,129936 72288,235118 173991,239780 8642113,343912 17284883,698985 25925617,1045983 180163,6040 327497,-132036 327497,-309442 10177,-6740159 15299,-10224974 34077,-16963622 0,-168805 -140375,-261907 -320144,-254290l-25951749 986235zm2761143 3204787c1081700,-24555 2180077,-49374 3295066,-74127l0 10564750c-1114989,-45894 -2213366,-89688 -3295066,-134597l0 -10356026zm5051721 4167321c1151428,2560 2321109,6040 3506088,9061l0 6527298c-1184979,-47207 -2354660,-95400 -3506088,-141754l0 -6394605zm5373638 -2078572c1226934,-10177 2472383,-22455 3735428,-33813l0 8877362c-1263045,-52591 -2508494,-103541 -3735428,-152850l0 -8690699zm5727136 3473653c1308217,11819 2636132,26657 3987880,41496l0 5570937c-1351748,-56333 -2678284,-109778 -3987880,-162370l0 -5450063z"/>
   <path class="fil1" d="M26648830 42083299c3335379,-14379 6751977,-27838 10243030,-45172 3572992,-14838 7236132,-29874 10987318,-45894 -615207,951043 -1242692,1920404 -1882192,2906179 -651121,1007771 -1316555,2032940 -1995187,3079908 -3923995,-57647 -7752263,-113061 -11481847,-169986 -3639898,-53051 -7194375,-104001 -10662710,-154951 835683,-971922 1655871,-1924803 2460958,-2859169 789855,-920512 1567892,-1823362 2330630,-2710915z"/>
   <path class="fil0" d="M40991816 45742171c786572,4202 1578002,11359 2373438,17399 -268932,406286 -541540,813229 -815067,1224111 -805875,-8339 -1605841,-19697 -2396878,-27773 280487,-406943 560515,-811128 838507,-1213737zm-9747188 -75046c1424496,10243 2860088,21601 4310059,33879 1465663,10177 2949710,21076 4442490,32369 -281406,401231 -562353,805350 -847699,1210520 -1507421,-17859 -3004402,-34799 -4482409,-50031 -1462445,-17662 -2909659,-34076 -4346367,-52591 308720,-392827 616783,-786375 923926,-1174146zm-3116938 -23833c-313841,384028 -630899,771536 -949139,1162984 730960,9257 1463628,17596 2200169,25015 313841,-393746 623086,-783814 931805,-1172504 -730501,-4137 -1456405,-11293 -2182835,-15495zm-3047933 -23637c707389,3940 1417996,11359 2135825,15298 -318700,384948 -635823,772259 -958659,1159964 -721506,-7157 -1438416,-16217 -2151780,-24753 329139,-386129 653616,-769960 974614,-1150509zm17002295 -1455289c777576,1182 1559487,2101 2344942,6237 -259411,392170 -525322,788739 -791890,1187803 -794057,-7157 -1582007,-12541 -2367463,-16480 275432,-393943 545939,-789133 814411,-1177560zm-3279768 -7879c761293,0 1527512,2364 2297209,5121 -273330,386786 -545938,778037 -824587,1174080 -776132,-3939 -1549113,-8535 -2315528,-15298 281406,-390003 562353,-780991 842906,-1163903zm-3213586 -9717c-290008,381270 -576469,767400 -871138,1155105 752298,2560 1510638,8141 2271078,13657 284886,-389544 569116,-778496 851441,-1162525 -755516,-1576 -1505057,-3939 -2251381,-6237zm-3144515 -7879c728728,1641 1464087,5121 2202073,5121 -290007,380549 -583494,763658 -878098,1151625 -744879,-6237 -1485885,-11358 -2221047,-15298 301563,-383109 599186,-764839 897072,-1141448zm-3081680 -6237c-304846,372669 -613566,751642 -921629,1127988 722688,2823 1446229,8142 2176532,13657 303139,-382387 605687,-761819 903507,-1138888 -721965,-459 -1440582,-1379 -2158410,-2757zm-3017797 -9061c700890,2823 1405915,2823 2113108,5121 -306488,373392 -617308,749279 -928129,1126610 -714086,-4859 -1424955,-9258 -2129325,-14576 316599,-373851 632081,-746784 944346,-1117155zm16792849 -1489103c766415,-2298 1541694,-2298 2319468,-4596 -254750,379827 -510025,763855 -768714,1151166 -783157,0 -1565790,-2364 -2338508,-4399 264730,-384291 526504,-763461 787754,-1142171zm-3241359 6763c753021,-460 1509062,-3742 2269962,-5121 -264992,377068 -529064,757617 -797274,1141448 -765955,-2101 -1530335,-2758 -2290775,-2758 274250,-379891 546858,-757682 818087,-1133569zm-3176227 8535c737264,-1641 1480042,-5121 2223609,-5121 -271492,373655 -546661,749082 -824850,1126873 -751117,-2561 -1499280,0 -2243503,-2561 281210,-375230 563798,-747900 844744,-1119191zm-3112080 8601c723344,-3479 1450628,-5383 2179815,-6303 -282588,368993 -566555,740284 -852425,1115514 -736082,919 -1469406,-3480 -2195967,-3480 289942,-372407 581131,-740480 868577,-1105731zm-3047407 5056c-295785,363872 -595313,728925 -894315,1097655 713429,0 1431849,1445 2152633,1445 295325,-370175 586974,-737986 878557,-1104156 -716647,2758 -1427516,2758 -2136875,5056zm-2986347 9061c693011,-1839 1390880,-4202 2092229,-5121 -299922,361113 -599647,724985 -903770,1091417 -705748,0 -1409395,-2560 -2105885,-2560 307997,-363872 613762,-723804 917426,-1083736z"/>
   <path class="fil0" d="M0 61992495l57910 -4307038c103081,-7648000 -1032589,-19568699 9307613,-21277425 1999586,-328416 7306517,-363149 11372660,194148 7947526,1087676 9901415,9697814 10744781,16788056 292305,2883922 499322,5771126 661495,8602259l-32144459 0zm6042421 -37650133c620000,2389655 1533290,4956059 2467196,6198488 1361531,1813120 4097461,3405042 6895898,3751777 1335136,57647 1660795,24818 2932639,-309442 2589778,-916310 4715819,-3021736 5441264,-5055332 412787,-1154186 515606,-3184631 437999,-5232410 -6058113,217719 -12116883,442660 -18174996,646919zm21021230 -2304629c406680,-12737 741137,-83384 715925,-562418l-38672 -1097393c-13460,-389609 -361574,-567737 -734243,-684672l-1237111 -384947c-306881,-97304 -516327,-409307 -593671,-709031 -2039900,-13874917 -21718377,-11924705 -21308414,844744 -19041,107940 -110764,171168 -252255,201698 -223300,49375 -388230,252255 -381271,489671l73668 2257619c7879,267093 233279,477655 500766,469776 7752000,-256194 15503738,-548499 23255278,-825047z"/>
  </g>
 </g>
</svg>
