<?xml version="1.0" encoding="UTF-8"?>
<!DOCTYPE svg PUBLIC "-//W3C//DTD SVG 1.1//EN" "http://www.w3.org/Graphics/SVG/1.1/DTD/svg11.dtd">
<!-- Creator: CorelDRAW X8 -->
<svg xmlns="http://www.w3.org/2000/svg" xml:space="preserve" width="238px" height="188px" version="1.1" style="shape-rendering:geometricPrecision; text-rendering:geometricPrecision; image-rendering:optimizeQuality; fill-rule:evenodd; clip-rule:evenodd"
viewBox="0 0 2686540 2119856"
 xmlns:xlink="http://www.w3.org/1999/xlink"
 enable-background="new 0 0 99.21 99.21">
 <defs>
  <style type="text/css">
   <![CDATA[
    .fil0 {fill:black}
    .fil1 {fill:#006699}
    .fil2 {fill:white}
   ]]>
  </style>
 </defs>
 <g id="Слой_x0020_1">
  <metadata id="CorelCorpID_0Corel-Layer"/>
  <g id="_827076208">
   <path class="fil0" d="M158822 1960714l147 -161145 -69714 -3497c0,-129925 0,-259850 0,-389735 409729,-88294 819459,-176575 1229175,-264762l0 819099 49720 13 0 -819072 222410 47891 0 771221 31673 -13 0 -767991c0,-21089 -15256,-35638 -36158,-35638l-85464 0 -127670 -27469c18006,-35852 51802,-62720 94648,-62720l117992 -14c70422,0 126989,55339 126989,125894 0,255966 0,511932 0,767938l15042 0 0 -741723 76922 16604 0 725132 31674 -13c0,-245795 0,-491550 0,-737278 0,-21049 -15363,-35665 -35918,-35665l-69915 0 0 -5019c0,-33128 -12506,-62973 -33088,-85250l103043 0c69394,0 126081,56219 126081,125613l0 737599 15042 0 0 -695634 157047 33863c185825,40042 351041,75640 498825,107434 0,129885 0,259810 0,389735l-69715 11799c0,56367 67,98985 107,152816l158823 -13 0 159129 -2686540 13 0 -159129 158822 -13 0 0z"/>
   <path class="fil1" d="M1622207 1960193l0 -768004c0,-21089 -15257,-35638 -36159,-35638l-85477 0 -127670 -27469c18006,-35852 51802,-62720 94648,-62720l117992 0c70422,0 126989,55339 126989,125894 0,255966 0,511931 0,767937l123651 0c0,-245795 0,-491550 0,-737278 0,-21049 -15363,-35665 -35918,-35665l-69888 -13 0 -5019c0,-33128 -12506,-62973 -33088,-85250l103016 13c69394,0 126081,56220 126081,125614l0 737598 15029 0 -319206 0z"/>
   <polygon class="fil0" points="2150663,1204162 1977331,1240681 1977331,1257552 2526983,1375971 2526983,1291455 "/>
   <path class="fil1" d="M1131738 1102667l-39936 -1087704c-61052,-19501 -127162,-20382 -198958,0l-38455 1048035 -80205 -11465 -39028 -911277c-59824,-21089 -125614,-22851 -198972,0l-40283 974984 -157261 36025 0 173545 871141 -187666 0 -23238 -78043 -11239 0 0z"/>
   <path class="fil2" d="M2060366 1368123c0,21329 0,42592 0,63774 74480,13815 148959,27550 223478,41244 0,-19887 0,-39802 0,-59823 -74519,-15070 -148998,-30139 -223478,-45195l0 0z"/>
   <path class="fil2" d="M2336167 1423889c0,19701 0,39375 0,59009 63921,11760 127802,23559 191697,35318 0,-18473 0,-37013 0,-55552 -63855,-12854 -127776,-25815 -191697,-38775l0 0z"/>
   <path class="fil2" d="M2060366 1476412c0,21289 0,42485 0,63747 74480,11519 148959,23065 223478,34571 0,-19955 0,-39870 0,-59784 -74519,-12867 -148998,-25681 -223478,-38534l0 0z"/>
   <path class="fil2" d="M2336167 1523902c0,19701 0,39309 0,58903 63921,9890 127802,19781 191697,29671 0,-18473 0,-36972 0,-55512 -63855,-10985 -127776,-21970 -191697,-33062l0 0z"/>
   <path class="fil2" d="M2060366 1584607c0,21329 0,42525 0,63814 74480,9290 148959,18540 223478,27830 0,-19888 0,-39842 0,-59784 -74519,-10598 -148998,-21196 -223478,-31860l0 0z"/>
   <path class="fil2" d="M2336167 1623915c0,19674 0,39242 0,58836 63921,8022 127802,15924 191697,23986 0,-18473 0,-37040 0,-55513 -63855,-9116 -127776,-18192 -191697,-27309l0 0z"/>
   <path class="fil2" d="M158822 1475557c0,15964 0,31954 0,47891 45729,-8222 92806,-16778 141151,-25467 0,-16698 0,-33302 0,-50013 -48345,9477 -95422,18620 -141151,27589l0 0z"/>
   <path class="fil2" d="M337719 1440667c0,16884 0,33689 0,50507 50815,-9143 103150,-18580 157088,-28324 0,-17552 0,-35144 0,-52722 -53924,10477 -106233,20648 -157088,30539l0 0z"/>
   <path class="fil2" d="M536798 1401892c0,17833 0,35558 0,53364 56714,-10238 115203,-20836 175694,-31754 0,-18540 0,-37186 0,-55793 -60491,11719 -118980,23131 -175694,34183l0 0z"/>
   <path class="fil2" d="M759675 1358486c0,18900 0,37720 0,56540 63855,-11519 129712,-23411 197904,-35745 0,-19781 0,-39522 0,-59329 -68192,13254 -134049,26107 -197904,38534l0 0z"/>
   <path class="fil2" d="M1010943 1309581c0,20021 0,40082 0,60037 72210,-13001 146823,-26482 224452,-40470 0,-21089 0,-42125 0,-63281 -77629,15070 -152242,29579 -224452,43714l0 0z"/>
   <path class="fil2" d="M158822 1556884c0,16004 0,31927 0,47851 45729,-7128 92806,-14482 141151,-22037 0,-16671 0,-33262 0,-49906 -48345,8275 -95422,16257 -141151,24092l0 0z"/>
   <path class="fil2" d="M337719 1526371c0,16845 0,33623 0,50467 50815,-8021 103150,-16137 157088,-24546 0,-17552 0,-35104 0,-52656 -53924,9117 -106233,18046 -157088,26735l0 0z"/>
   <path class="fil2" d="M536798 1492402c0,17806 0,35531 0,53323 56714,-8929 115203,-18046 175694,-27469 0,-18580 0,-37226 0,-55793 -60491,10265 -118980,20262 -175694,29939l0 0z"/>
   <path class="fil2" d="M759675 1454401c0,18820 0,37614 0,56474 63855,-9997 129712,-20275 197904,-30940 0,-19781 0,-39482 0,-59330 -68192,11653 -134049,22918 -197904,33796l0 0z"/>
   <path class="fil2" d="M1010943 1411529c0,20021 0,40043 0,60077 72210,-11305 146823,-22984 224452,-35104 0,-21049 0,-42098 0,-63214 -77629,13201 -152242,25921 -224452,38241l0 0z"/>
   <path class="fil2" d="M158822 1638224c0,15923 0,31860 0,47811 45729,-6073 92806,-12253 141151,-18647 0,-16631 0,-33235 0,-49906 -48345,7141 -95422,13988 -141151,20742l0 0z"/>
   <path class="fil2" d="M337719 1611983c0,16884 0,33622 0,50427 50815,-6714 103150,-13628 157088,-20769 0,-17486 0,-35104 0,-52616 -53924,7875 -106233,15510 -157088,22958l0 0z"/>
   <path class="fil2" d="M536798 1582845c0,17805 0,35531 0,53297 56714,-7488 115203,-15217 175694,-23198 0,-18540 0,-37187 0,-55767 -60491,8823 -118980,17339 -175694,25668l0 0z"/>
   <path class="fil2" d="M759675 1550250c0,18793 0,37640 0,56474 63855,-8476 129712,-17165 197904,-26175 0,-19741 0,-39482 0,-59263 -68192,9957 -134049,19634 -197904,28964l0 0z"/>
   <path class="fil2" d="M1010943 1513411c0,20061 0,40043 0,60037 72210,-9530 146823,-19394 224452,-29671 0,-21050 0,-42099 0,-63174 -77629,11345 -152242,22250 -224452,32808z"/>
  </g>
 </g>
</svg>
