<?xml version="1.0" encoding="UTF-8"?>
<!DOCTYPE svg PUBLIC "-//W3C//DTD SVG 1.1//EN" "http://www.w3.org/Graphics/SVG/1.1/DTD/svg11.dtd">
<!-- Creator: CorelDRAW X8 -->
<svg xmlns="http://www.w3.org/2000/svg" xml:space="preserve" width="256px" height="168px" version="1.1" style="shape-rendering:geometricPrecision; text-rendering:geometricPrecision; image-rendering:optimizeQuality; fill-rule:evenodd; clip-rule:evenodd"
viewBox="0 0 4136609 2709836"
 xmlns:xlink="http://www.w3.org/1999/xlink"
 enable-background="new 0 0 99.21 99.21">
 <defs>
  <style type="text/css">
   <![CDATA[
    .fil0 {fill:black}
    .fil1 {fill:#006699}
   ]]>
  </style>
 </defs>
 <g id="Слой_x0020_1">
  <metadata id="CorelCorpID_0Corel-Layer"/>
  <g id="_711586128">
   <path class="fil0" d="M223914 1429842l936709 0 0 -880922 -936709 0 0 880922 0 0zm2068019 0l779523 0 0 -909302 -779523 0 0 909302 0 0zm116931 -479962l0 -319060 545699 0 0 319060 -545699 0 0 0zm0 52204l147408 0 0 57732 -147408 0 0 -57732 0 0zm199098 0l147465 0 0 57732 -147465 0 0 -57732 0 0zm199193 0l147408 0 0 57732 -147408 0 0 -57732 0 0zm-398291 110032l147408 0 0 57732 -147408 19 0 -57751 0 0zm199098 0l147465 0 0 57732 -147465 19 0 -57751 0 0zm199193 0l147408 0 0 57732 -147408 19 0 -57751 0 0zm-398291 110032l147408 0 0 57732 -147408 19 0 -57751 0 0zm199098 0l147465 0 0 57732 -147465 19 0 -57751 0 0zm199193 0l147408 0 0 57732 -147408 19 0 -57751 0 0zm-725566 50127l173730 0 0 -331067 -173730 0 0 63850 -52605 0 0 75038 -22280 0 0 53462 22280 0 0 74981 52605 0 0 63736 0 0zm-1857675 1218050l0 -1005858 1044778 0 0 -79727 115216 0 0 -100540 81747 0 0 -140394 -38939 0 0 -84930 38882 0 0 -55578 0 -23043 375095 19 0 23043 0 55578 38882 -19 0 84930 -38843 0 0 140394 81747 0 0 100540 188615 0 0 79727 960420 0 0 1005858 -659257 0 0 -222293 -1529086 0 0 222293 -659257 0 0 0zm166810 -870057l0 71302 2479424 0 0 -71302 -2479424 0 0 0zm614829 -718228l64098 0 0 174778 -64098 0 0 -174778 0 0zm-614829 918736l0 47554 2479424 0 0 -47554 -2479424 0 0 0zm1262479 -531805c-79879,0 -144683,64746 -144683,144664 0,79879 64746,144682 144683,144682 79936,0 144682,-64803 144682,-144682 -19,-79861 -64765,-144664 -144682,-144664l0 0zm17744 185966l0 66366c52605,-8615 91373,-54320 91373,-107725 0,-13571 -2478,-26532 -7014,-38520l-57484 33183c209,1772 305,3526 305,5298 0,18603 -11188,34537 -27180,41398l0 0zm-35508 66404l0 -66366c-15991,-6899 -27236,-22795 -27236,-41302 0,-1773 95,-3526 305,-5299l-57484 -33183c-4537,11951 -7014,24969 -7014,38482 0,53367 38786,99053 91429,107668l0 0zm44733 -143672l57485 -33126c-20776,-25349 -51595,-39968 -84416,-39968 -32821,0 -63640,14676 -84358,39930l57446 33183c15819,-11912 37967,-11912 53843,-19z"/>
   <path class="fil1" d="M3263845 322662c-4136,83215 41093,164695 120972,202777 106106,50584 233177,5603 283762,-100502 19422,-40655 24758,-84359 18011,-125718 -140908,8100 -281855,15724 -422745,23443l0 0z"/>
   <path class="fil1" d="M2830408 710852l220674 127528c11702,5299 23252,4232 34593,-3678l221341 -173977c73685,-50070 293653,-144073 467630,-18107 88209,63888 261728,268132 314962,313609 19365,18259 30705,40349 33641,66613l13265 390915c4441,80128 -151163,107726 -165229,23749l-21080 -350909 -172185 -156175c21023,104333 41207,207960 64707,311607 21081,92897 26722,197307 15629,277796l-46486 335851c-2669,17955 -3736,36099 -2268,54568l21175 437326c1315,27789 2268,55616 3069,83653 610,21633 -1468,45438 -19308,48107l-234911 0c-18450,-1220 -30362,-72256 -1658,-84778l33488 -12656 -32821 -437363c-3126,-32974 -3831,-67071 1315,-103780l34288 -265807c3526,-12313 -29142,-18908 -42369,-153l-142014 277967c-11150,19575 -14676,42008 -12656,66614l19574 430007c1220,28341 3526,57693 3641,86740 152,20127 -3279,40693 -21995,43113l-266379 0c-20928,-1219 -34441,-72255 -1925,-84777l68081 -22643 -52395 -486443c-3126,-45838 496,-90209 13914,-132369l195819 -432008c7872,-26531 12351,-52186 8825,-75686l-55673 -294245 -182898 100903c-33278,24358 -83310,30762 -140699,5146l-209390 -123755c-52452,-30972 -113920,-60267 -114415,-129911 0,-9435 15838,-57846 28951,-88304 21576,-50432 84359,-28094 120172,-4288l0 0z"/>
   <path class="fil1" d="M3185434 298456c-9473,496 -17402,-400 -17859,-11550l-1411 -25559c-553,-9072 7205,-13914 15629,-17440l27980 -11607c6861,-2916 11035,-10597 12198,-17707 34689,-280787 442205,-282598 496678,-25520 648,2477 2878,3735 6194,4135 5299,706 9587,5051 9930,10541l3069 52604c362,6252 -4384,11608 -10636,11951 -180610,10521 -361239,20108 -541772,30152z"/>
   <rect class="fil0" y="2476966" width="4086835" height="232870"/>
  </g>
 </g>
</svg>
