<?xml version="1.0" encoding="UTF-8"?>
<!DOCTYPE svg PUBLIC "-//W3C//DTD SVG 1.1//EN" "http://www.w3.org/Graphics/SVG/1.1/DTD/svg11.dtd">
<!-- Creator: CorelDRAW X8 -->
<svg xmlns="http://www.w3.org/2000/svg" xml:space="preserve" width="100px" height="82px" version="1.1" style="shape-rendering:geometricPrecision; text-rendering:geometricPrecision; image-rendering:optimizeQuality; fill-rule:evenodd; clip-rule:evenodd"
viewBox="0 0 6547337 5364770"
 xmlns:xlink="http://www.w3.org/1999/xlink"
 enable-background="new 0 0 640 480">
 <defs>
  <style type="text/css">
   <![CDATA[
    .fil0 {fill:black}
    .fil2 {fill:#006699}
    .fil1 {fill:#E6E6E6}
   ]]>
  </style>
 </defs>
 <g id="Слой_x0020_1">
  <metadata id="CorelCorpID_0Corel-Layer"/>
  <g id="_840633472">
   <path class="fil0" d="M2686457 1407358c-62342,11727 -102411,50228 -102471,131570l-523 1456767c-1962,83085 46463,155586 109206,160714 749812,61456 1499579,123994 2249421,185972 116456,9432 213851,-77910 213851,-194328 0,-662144 0,-1042573 0,-1704642 0,-111948 -93645,-172646 -209222,-165986l-2260262 129933z"/>
   <path class="fil1" d="M2700586 1536049c-8659,1265 -15516,11402 -15516,22349l-863 1297818c-364,11266 6257,20364 15053,20743 747888,29766 1495806,60516 2243588,90524 15576,523 28341,-11402 28341,-26781 879,-583295 1303,-884859 2924,-1468017 0,-14614 -12129,-22652 -27705,-22008l-2245822 85372 0 0z"/>
   <path class="fil2" d="M6517284 1414638c38106,201344 39364,404354 7219,600394l-310026 55099c-32993,138972 -86168,270420 -156366,390603l186556 253784c-111888,164206 -252897,310291 -419233,429770l-258473 -180404c-71697,44115 -147691,82342 -227086,113615l0 -542302c262640,-173684 434142,-473005 430051,-811237 -6311,-529173 -440558,-952996 -969648,-946519 -312511,3788 -588166,156707 -760229,390323l-567295 32629c26319,-65947 57387,-129388 92865,-190025l-186570 -253844c111804,-164161 252798,-310208 419247,-429709l258337 180343c118683,-73039 248631,-129426 386754,-165790l47523 -311330c201465,-38061 404414,-39364 600455,-7220l55099 310050c138949,33076 270299,86311 390467,156426l253882 -186571c164123,111926 310306,252844 429815,419293l-180517 258473c73084,118486 129426,248412 165828,386497l311345 47652z"/>
   <path class="fil0" d="M4337371 2294725c113191,1023 228124,2303 345102,3591 0,160638 0,321231 0,482127 -116978,-4871 -231775,-9523 -345102,-14053 0,-157343 0,-314512 0,-471665l0 0z"/>
   <path class="fil0" d="M3841728 1994145c106176,-878 213958,-1962 323254,-2924 0,256026 0,512112 0,768244 -109304,-4553 -217078,-8939 -323254,-13212 0,-250723 0,-501355 0,-752108l0 0z"/>
   <path class="fil0" d="M3376700 2174004c99660,242 200866,522 303436,780 0,188275 0,376573 0,564893 -102547,-4091 -203776,-8258 -303436,-12265 0,-184533 0,-369020 0,-553408l0 0z"/>
   <path class="fil2" d="M2939536 1813363c93607,-2106 188661,-4273 285155,-6417 0,304814 0,609568 0,914269 -96471,-3970 -191548,-7781 -285155,-11644 0,-298686 0,-597485 0,-896208l0 0z"/>
   <path class="fil0" d="M5761464 3463269l-1022929 846518 -2163307 0 -352663 -846518 1391699 0c-3887,-51811 -11167,-152888 -14175,-194320 97357,9500 195396,16439 292913,24652 15356,35901 33758,113743 50773,169668l1817689 0 0 0z"/>
   <path class="fil1" d="M2306172 3641847c288640,-1242 584318,-2409 886427,-3909 309216,-1265 626197,-2583 950838,-3947 -53236,82281 -107540,166191 -162881,251495 -56364,87214 -113956,175912 -172661,266534 -339573,-4992 -670857,-9780 -993618,-14712 -314982,-4591 -622599,-9000 -922724,-13410 72304,-84107 143297,-166570 212973,-247427 68288,-79660 135638,-157812 201646,-234624z"/>
   <path class="fil0" d="M2386249 3692840c59970,-159 120350,-363 181062,-439 -25977,31273 -51894,62758 -78213,94471 -61076,0 -121971,-243 -182244,-243 26636,-31470 53122,-62637 79395,-93789l0 0zm258412 -780c-25599,31493 -51516,63076 -77395,94993 61758,0 123933,122 186313,122 25538,-32031 50773,-63880 76031,-95570 -62031,250 -123532,250 -184949,455l0 0zm263730 -439c62600,-304 125540,-440 188639,-523 -24478,31932 -49031,64061 -73781,96516 -63698,99 -127161,-303 -190025,-303 25091,-32235 50288,-64084 75167,-95690l0 0zm269314 -728c63819,-159 128108,-439 192442,-439 -23493,32334 -47296,64826 -71387,97516 -65001,-220 -129744,0 -194154,-220 24333,-32470 48788,-64743 73099,-96857l0 0zm274860 -742c65167,-38 130607,-341 196457,-440 -22948,32630 -45781,65569 -68994,98782 -66288,-182 -132410,-243 -198237,-243 23712,-32894 47304,-65561 70774,-98099l0 0zm280503 -599c66349,-197 133418,-197 200745,-401 -22069,32871 -44137,66107 -66531,99622 -67774,0 -135502,-197 -202366,-401 22894,-33213 45546,-66047 68152,-98820l0 0zm-1453237 128865c60652,258 121668,258 182888,440 -26515,32288 -53440,64826 -80319,97494 -61796,-425 -123312,-804 -184267,-1266 27379,-32341 54682,-64599 81698,-96668l0 0zm261162 781c-26379,32250 -53099,65046 -79759,97615 62539,242 125161,704 188359,1204 26235,-33091 52394,-65925 78175,-98562 -62440,-53 -124661,-136 -186775,-257l0 0zm266693 545c63061,144 126698,425 190585,425 -25114,32954 -50516,66106 -75986,99683 -64485,-538 -128584,-985 -192229,-1326 26114,-33160 51849,-66190 77630,-98782l0 0zm272124 697c-25099,32993 -49887,66410 -75387,99941 65107,242 130706,704 196532,1204 24652,-33735 49251,-67372 73683,-100622 -65387,-136 -130244,-341 -194828,-523l0 0zm278087 841c65887,0 132191,197 198798,424 -23652,33478 -47228,67327 -71357,101608 -67191,-364 -134055,-743 -200374,-1326 24349,-33750 48667,-67592 72933,-100706l0 0zm283829 667c67289,121 134956,197 202927,538 -22448,33932 -45463,68251 -68531,102789 -68713,-621 -136904,-1083 -204874,-1402 23833,-34099 47243,-68311 70478,-101925l0 0zm-1471351 125941c61213,363 122713,985 184851,1326 -27584,33311 -55039,66826 -82964,100380 -62440,-622 -124478,-1402 -186229,-2122 28477,-33439 56554,-66652 84342,-99584l0 0zm263783 2038c-27159,33235 -54622,66766 -82160,100645 63259,803 126661,1523 190419,2167 27137,-34077 53918,-67835 80622,-101487 -63205,-340 -126024,-962 -188881,-1325l0 0zm269716 2068c123274,879 247510,1864 372989,2924 126820,879 255246,1826 384444,2803 -24356,34720 -48667,69713 -73364,104774 -130441,-1545 -259988,-3007 -387891,-4348 -126563,-1500 -251822,-2925 -376134,-4553 26735,-33993 53395,-68047 79956,-101600l0 0zm843502 6492c68069,364 136563,985 205397,1500 -23273,35160 -46864,70380 -70554,105933 -69736,-719 -138972,-1704 -207419,-2409 24288,-35189 48523,-70182 72576,-105024z"/>
   <path class="fil2" d="M2342074 1907152c35175,-1121 64145,-7235 61940,-48667l-3349 -94971c-1159,-33735 -31311,-49130 -63538,-59274l-107039 -33311c-26576,-8401 -44683,-35417 -51372,-61356 -176533,-1200720 -1879485,-1031945 -1844007,73099 -1644,9318 -9599,14811 -21826,17462 -19342,4273 -33614,21826 -32993,42372l6371 195374c682,23129 20167,41333 43334,40652 670826,-22175 1341668,-47471 2012479,-71380l0 0z"/>
   <path class="fil0" d="M522900 2106571c53660,206798 132691,428892 213510,536408 117820,156911 354588,294670 596765,324678 115540,4993 143722,2121 253784,-26780 224116,-79297 408103,-261504 470884,-437491 35720,-99880 44622,-275594 37902,-452801 -524264,18842 -1048581,38327 -1572845,55986l0 0z"/>
   <path class="fil0" d="M0 5364770l5008 -372725c8916,-661864 -89358,-1693444 805487,-1841317 173040,-28425 632303,-31433 984178,16795 687766,94130 856859,839230 929845,1452813 25296,249556 43197,499431 57251,744434l-2781769 0z"/>
  </g>
 </g>
</svg>
