<?xml version="1.0" encoding="utf-8"?>
<!-- Generator: Adobe Illustrator 16.0.0, SVG Export Plug-In . SVG Version: 6.00 Build 0)  -->
<!DOCTYPE svg PUBLIC "-//W3C//DTD SVG 1.1//EN" "http://www.w3.org/Graphics/SVG/1.1/DTD/svg11.dtd">
<svg version="1.1" id="Слой_1" xmlns="http://www.w3.org/2000/svg" xmlns:xlink="http://www.w3.org/1999/xlink" x="0px" y="0px"
	 width="99.21px" height="99.21px" viewBox="0 0 99.21 99.21" enable-background="new 0 0 99.21 99.21" xml:space="preserve">
<path fill-rule="evenodd" clip-rule="evenodd" d="M16.119,76.111l0.004-4.563l-1.974-0.099c0-3.679,0-7.358,0-11.036
	c11.602-2.5,23.204-5,34.806-7.497v23.194h1.408V52.917l6.298,1.356v21.838h0.897V54.364c0-0.597-0.432-1.009-1.024-1.009h-2.42
	l-3.615-0.778c0.51-1.015,1.467-1.776,2.68-1.776h3.341c1.994,0,3.596,1.567,3.596,3.565c0,7.248,0,14.496,0,21.745h0.426V55.108
	l2.178,0.47v20.533h0.897c0-6.96,0-13.919,0-20.877c0-0.596-0.435-1.01-1.017-1.01H60.62v-0.142c0-0.938-0.354-1.783-0.937-2.414
	h2.918c1.965,0,3.57,1.592,3.57,3.557v20.886h0.426V56.413l4.447,0.959c5.262,1.134,9.94,2.142,14.125,3.042
	c0,3.678,0,7.357,0,11.036l-1.974,0.334c0,1.596,0.002,2.803,0.003,4.327h4.497v4.506H11.622v-4.506H16.119L16.119,76.111z"/>
<path fill-rule="evenodd" clip-rule="evenodd" fill="#006699" d="M57.557,76.096V54.349c0-0.597-0.432-1.009-1.024-1.009h-2.42
	l-3.615-0.778c0.51-1.015,1.467-1.776,2.68-1.776h3.341c1.994,0,3.596,1.567,3.596,3.565c0,7.248,0,14.496,0,21.745h3.501
	c0-6.96,0-13.919,0-20.877c0-0.596-0.435-1.01-1.017-1.01h-1.979v-0.142c0-0.938-0.354-1.783-0.937-2.414H62.6
	c1.965,0,3.57,1.592,3.57,3.557v20.886h0.426H57.557z"/>
<polygon fill-rule="evenodd" clip-rule="evenodd" points="72.521,54.688 67.613,55.722 67.613,56.2 83.177,59.553 83.177,57.16 
	72.521,54.688 "/>
<path fill-rule="evenodd" clip-rule="evenodd" fill="#006699" d="M43.669,51.814l-1.131-30.8c-1.729-0.552-3.601-0.577-5.634,0
	l-1.089,29.677l-2.271-0.325l-1.105-25.804c-1.694-0.597-3.557-0.647-5.634,0L25.664,52.17l-4.453,1.02v4.914l24.668-5.314v-0.658
	L43.669,51.814L43.669,51.814z"/>
<path fill-rule="evenodd" clip-rule="evenodd" fill="#FFFFFF" d="M69.964,59.331c0,0.604,0,1.206,0,1.806
	c2.109,0.391,4.218,0.78,6.328,1.168c0-0.563,0-1.127,0-1.694C74.182,60.184,72.073,59.757,69.964,59.331L69.964,59.331z"/>
<path fill-rule="evenodd" clip-rule="evenodd" fill="#FFFFFF" d="M77.774,60.91c0,0.558,0,1.115,0,1.671
	c1.81,0.333,3.619,0.667,5.428,1c0-0.523,0-1.048,0-1.573C81.394,61.644,79.584,61.277,77.774,60.91L77.774,60.91z"/>
<path fill-rule="evenodd" clip-rule="evenodd" fill="#FFFFFF" d="M69.964,62.397c0,0.603,0,1.203,0,1.805
	c2.109,0.326,4.218,0.653,6.328,0.979c0-0.565,0-1.129,0-1.693C74.182,63.124,72.073,62.761,69.964,62.397L69.964,62.397z"/>
<path fill-rule="evenodd" clip-rule="evenodd" fill="#FFFFFF" d="M77.774,63.742c0,0.558,0,1.113,0,1.668
	c1.81,0.28,3.619,0.56,5.428,0.84c0-0.523,0-1.047,0-1.572C81.394,64.367,79.584,64.056,77.774,63.742L77.774,63.742z"/>
<path fill-rule="evenodd" clip-rule="evenodd" fill="#FFFFFF" d="M69.964,65.461c0,0.604,0,1.204,0,1.807
	c2.109,0.263,4.218,0.525,6.328,0.788c0-0.563,0-1.128,0-1.693C74.182,66.063,72.073,65.763,69.964,65.461L69.964,65.461z"/>
<path fill-rule="evenodd" clip-rule="evenodd" fill="#FFFFFF" d="M77.774,66.574c0,0.557,0,1.111,0,1.666
	c1.81,0.227,3.619,0.451,5.428,0.679c0-0.523,0-1.049,0-1.572C81.394,67.089,79.584,66.832,77.774,66.574L77.774,66.574z"/>
<path fill-rule="evenodd" clip-rule="evenodd" fill="#FFFFFF" d="M16.119,62.373c0,0.452,0,0.905,0,1.356
	c1.295-0.233,2.628-0.475,3.997-0.721c0-0.473,0-0.943,0-1.416C18.747,61.86,17.414,62.119,16.119,62.373L16.119,62.373z"/>
<path fill-rule="evenodd" clip-rule="evenodd" fill="#FFFFFF" d="M21.185,61.385c0,0.478,0,0.954,0,1.43
	c1.439-0.259,2.921-0.526,4.448-0.802c0-0.497,0-0.995,0-1.493C24.106,60.817,22.625,61.105,21.185,61.385L21.185,61.385z"/>
<path fill-rule="evenodd" clip-rule="evenodd" fill="#FFFFFF" d="M26.822,60.287c0,0.505,0,1.007,0,1.511
	c1.606-0.29,3.262-0.59,4.975-0.899c0-0.525,0-1.053,0-1.58C30.084,59.651,28.428,59.974,26.822,60.287L26.822,60.287z"/>
<path fill-rule="evenodd" clip-rule="evenodd" fill="#FFFFFF" d="M33.133,59.058c0,0.535,0,1.068,0,1.601
	c1.808-0.326,3.673-0.663,5.604-1.012c0-0.56,0-1.119,0-1.68C36.806,58.342,34.941,58.706,33.133,59.058L33.133,59.058z"/>
<path fill-rule="evenodd" clip-rule="evenodd" fill="#FFFFFF" d="M40.248,57.673c0,0.567,0,1.135,0,1.7
	c2.045-0.368,4.158-0.75,6.356-1.146c0-0.597,0-1.193,0-1.792C44.406,56.862,42.293,57.273,40.248,57.673L40.248,57.673z"/>
<path fill-rule="evenodd" clip-rule="evenodd" fill="#FFFFFF" d="M16.119,64.676c0,0.453,0,0.904,0,1.355
	c1.295-0.202,2.628-0.41,3.997-0.624c0-0.472,0-0.942,0-1.413C18.747,64.228,17.414,64.454,16.119,64.676L16.119,64.676z"/>
<path fill-rule="evenodd" clip-rule="evenodd" fill="#FFFFFF" d="M21.185,63.812c0,0.477,0,0.952,0,1.429
	c1.439-0.227,2.921-0.457,4.448-0.695c0-0.497,0-0.994,0-1.491C24.106,63.313,22.625,63.566,21.185,63.812L21.185,63.812z"/>
<path fill-rule="evenodd" clip-rule="evenodd" fill="#FFFFFF" d="M26.822,62.85c0,0.504,0,1.006,0,1.51
	c1.606-0.253,3.262-0.511,4.975-0.778c0-0.526,0-1.054,0-1.58C30.084,62.293,28.428,62.576,26.822,62.85L26.822,62.85z"/>
<path fill-rule="evenodd" clip-rule="evenodd" fill="#FFFFFF" d="M33.133,61.774c0,0.533,0,1.065,0,1.599
	c1.808-0.283,3.673-0.574,5.604-0.876c0-0.56,0-1.118,0-1.68C36.806,61.147,34.941,61.466,33.133,61.774L33.133,61.774z"/>
<path fill-rule="evenodd" clip-rule="evenodd" fill="#FFFFFF" d="M40.248,60.56c0,0.567,0,1.134,0,1.701
	c2.045-0.32,4.158-0.651,6.356-0.994c0-0.596,0-1.192,0-1.79C44.406,59.851,42.293,60.211,40.248,60.56L40.248,60.56z"/>
<path fill-rule="evenodd" clip-rule="evenodd" fill="#FFFFFF" d="M16.119,66.979c0,0.451,0,0.902,0,1.354
	c1.295-0.172,2.628-0.347,3.997-0.528c0-0.471,0-0.941,0-1.413C18.747,66.594,17.414,66.788,16.119,66.979L16.119,66.979z"/>
<path fill-rule="evenodd" clip-rule="evenodd" fill="#FFFFFF" d="M21.185,66.236c0,0.478,0,0.952,0,1.428
	c1.439-0.19,2.921-0.386,4.448-0.588c0-0.495,0-0.994,0-1.49C24.106,65.809,22.625,66.025,21.185,66.236L21.185,66.236z"/>
<path fill-rule="evenodd" clip-rule="evenodd" fill="#FFFFFF" d="M26.822,65.411c0,0.504,0,1.006,0,1.509
	c1.606-0.212,3.262-0.431,4.975-0.657c0-0.525,0-1.053,0-1.579C30.084,64.934,28.428,65.175,26.822,65.411L26.822,65.411z"/>
<path fill-rule="evenodd" clip-rule="evenodd" fill="#FFFFFF" d="M33.133,64.488c0,0.532,0,1.066,0,1.599
	c1.808-0.24,3.673-0.486,5.604-0.741c0-0.559,0-1.118,0-1.678C36.806,63.95,34.941,64.224,33.133,64.488L33.133,64.488z"/>
<path fill-rule="evenodd" clip-rule="evenodd" fill="#FFFFFF" d="M40.248,63.445c0,0.568,0,1.134,0,1.7
	c2.045-0.27,4.158-0.549,6.356-0.84c0-0.596,0-1.192,0-1.789C44.406,62.837,42.293,63.146,40.248,63.445z"/>
</svg>
