<?xml version="1.0" encoding="utf-8"?>
<!-- Generator: Adobe Illustrator 16.0.0, SVG Export Plug-In . SVG Version: 6.00 Build 0)  -->
<!DOCTYPE svg PUBLIC "-//W3C//DTD SVG 1.1//EN" "http://www.w3.org/Graphics/SVG/1.1/DTD/svg11.dtd">
<svg version="1.1" id="Слой_1" xmlns="http://www.w3.org/2000/svg" xmlns:xlink="http://www.w3.org/1999/xlink" x="0px" y="0px"
	 width="45px" height="45px" viewBox="0 0 45 45" enable-background="new 0 0 45 45" xml:space="preserve">
<g>
	<path fill="#004B8A" d="M12.344,23.518L12.344,23.518h21.21v2.558h-21.21V23.518z M12.344,18.403h21.21v2.558h-21.21V18.403z
		 M12.344,13.29h21.21v2.557h-21.21V13.29z M12.344,8.176h21.21v2.557h-21.21V8.176z M37.794,3.875l-0.019,37.84l-24.359-0.038
		L8.101,36.23L8.022,3.875H37.794z M36.239,5.401H9.658l0.004,30.262l4.631,0.014l0.014,4.686l21.933-0.013V5.401z"/>
	<rect x="11" y="7" fill="#FFFFFF" width="23" height="21"/>
	<rect x="12" y="7" fill="#004B8A" width="21" height="1"/>
	<rect x="12" y="11" fill="#004B8A" width="21" height="1"/>
	<rect x="12" y="14" fill="#004B8A" width="21" height="1"/>
	<rect x="12" y="18" fill="#004B8A" width="21" height="1"/>
	<rect x="12" y="21" fill="#004B8A" width="21" height="1"/>
	<rect x="12" y="25" fill="#004B8A" width="21" height="1"/>
	<rect x="12" y="28" fill="#004B8A" width="21" height="1"/>
	<rect x="12" y="32" fill="#004B8A" width="21" height="1"/>
</g>
</svg>
