<?xml version="1.0" encoding="utf-8"?>
<!-- Generator: Adobe Illustrator 16.0.0, SVG Export Plug-In . SVG Version: 6.00 Build 0)  -->
<!DOCTYPE svg PUBLIC "-//W3C//DTD SVG 1.1//EN" "http://www.w3.org/Graphics/SVG/1.1/DTD/svg11.dtd">
<svg version="1.1" id="Слой_1" xmlns="http://www.w3.org/2000/svg" xmlns:xlink="http://www.w3.org/1999/xlink" x="0px" y="0px"
	 width="45px" height="45px" viewBox="0 0 45 45" enable-background="new 0 0 45 45" xml:space="preserve">
<g>
	<path fill="none" stroke="#004B8A" stroke-width="2" stroke-linejoin="round" stroke-miterlimit="10" d="M20.88,26.977
		L6.529,41.328c-1.133,1.133-2.971,1.133-4.104,0l0,0"/>
	<path fill="none" stroke="#004B8A" stroke-width="2" stroke-linejoin="round" stroke-miterlimit="10" d="M22.814,16.833
		l2.872-2.872c-1.544-3.234-1.669-6.539,1.011-9.218c0.229-0.23,1.097-1.098,1.368-1.368c2.393-2.392,6.261-2.42,9.218-1.011
		l-5.114,5.115l4.104,4.104l5.114-5.112c1.41,2.957,1.382,6.824-1.011,9.218c-0.271,0.27-1.138,1.137-1.368,1.368
		c-2.679,2.679-5.982,2.553-9.218,1.011l-2.619,2.619"/>
	<path fill="none" stroke="#004B8A" stroke-width="2" stroke-linejoin="round" stroke-miterlimit="10" d="M2.425,41.328
		L2.425,41.328c-1.133-1.134-1.133-2.973,0-4.104l14.585-14.586"/>
	
		<line fill="none" stroke="#004B8A" stroke-width="2" stroke-linejoin="round" stroke-miterlimit="10" x1="4.477" y1="39.276" x2="6.529" y2="37.225"/>
	<polyline fill="none" stroke="#004B8A" stroke-width="2" stroke-linejoin="round" stroke-miterlimit="10" points="26.918,29.459 
		11.185,13.727 7.766,13.043 2.291,4.839 5.03,2.1 13.237,7.571 13.921,10.991 29.653,26.724 	"/>
	<path fill="none" stroke="#004B8A" stroke-width="2" stroke-linejoin="round" stroke-miterlimit="10" d="M24.876,31.522
		l6.838-6.842c0.012-0.013,2.053,0.685,2.053,0.685s0.679,3.416,0.685,3.421l8.198,8.196c1.134,1.134,1.134,2.972,0,4.105
		l-1.367,1.368c-1.133,1.132-2.971,1.132-4.104,0l-8.201-8.2c-0.006-0.006-3.419-0.682-3.419-0.682S24.863,31.535,24.876,31.522z"/>
	
		<line fill="none" stroke="#004B8A" stroke-width="2" stroke-linejoin="round" stroke-miterlimit="10" x1="31.021" y1="30.827" x2="39.229" y2="39.036"/>
</g>
</svg>
