<?xml version="1.0" encoding="utf-8"?>
<!-- Generator: Adobe Illustrator 16.0.0, SVG Export Plug-In . SVG Version: 6.00 Build 0)  -->
<!DOCTYPE svg PUBLIC "-//W3C//DTD SVG 1.1//EN" "http://www.w3.org/Graphics/SVG/1.1/DTD/svg11.dtd">
<svg version="1.1" id="Слой_1" xmlns="http://www.w3.org/2000/svg" xmlns:xlink="http://www.w3.org/1999/xlink" x="0px" y="0px"
	 width="200px" height="200px" viewBox="0 0 200 200" enable-background="new 0 0 200 200" xml:space="preserve">
<g>
	<path fill="none" stroke="#009BD9" stroke-width="5" stroke-linejoin="round" stroke-miterlimit="10" d="M152.804,142.393H47.343
		c-6.13,0-11.101-4.971-11.101-11.102v-8.325h127.662v8.325C163.904,137.422,158.934,142.393,152.804,142.393z"/>
	
		<line fill="none" stroke="#009BD9" stroke-width="5" stroke-linejoin="round" stroke-miterlimit="10" x1="91.746" y1="131.291" x2="108.397" y2="131.291"/>
	<path fill="none" stroke="#009BD9" stroke-width="5" stroke-linejoin="round" stroke-miterlimit="10" d="M155.579,122.966H44.567
		V56.359c0-3.064,2.485-5.55,5.551-5.55h99.909c3.065,0,5.552,2.486,5.552,5.55V122.966z"/>
	<path fill="none" stroke="#009BD9" stroke-width="5" stroke-linejoin="round" stroke-miterlimit="10" d="M144.478,114.641v-11.102
		h-9.329c-0.898-3.798-2.396-7.356-4.392-10.585l6.604-6.602l-11.776-11.776l-6.6,6.604c-3.229-1.994-7.811-3.492-10.587-4.39v-9.33
		H91.746v9.33c-3.797,0.898-7.354,2.396-10.583,4.391l-6.601-6.603L62.785,86.353l6.603,6.603c-1.992,3.227-3.49,6.785-4.391,10.583
		h-9.328v11.102"/>
	<path fill="none" stroke="#009BD9" stroke-width="5" stroke-linejoin="round" stroke-miterlimit="10" d="M122.275,114.641
		c0-12.263-9.941-22.203-22.202-22.203c-12.26,0-22.203,9.94-22.203,22.203"/>
</g>
</svg>
