<?xml version="1.0" encoding="utf-8"?>
<!-- Generator: Adobe Illustrator 16.0.0, SVG Export Plug-In . SVG Version: 6.00 Build 0)  -->
<!DOCTYPE svg PUBLIC "-//W3C//DTD SVG 1.1//EN" "http://www.w3.org/Graphics/SVG/1.1/DTD/svg11.dtd">
<svg version="1.1" id="Слой_1" xmlns="http://www.w3.org/2000/svg" xmlns:xlink="http://www.w3.org/1999/xlink" x="0px" y="0px"
	 width="200px" height="200px" viewBox="0 0 200 200" enable-background="new 0 0 200 200" xml:space="preserve">
<g>
	<path fill="none" stroke="#009BD9" stroke-width="5" stroke-miterlimit="10" d="M99.801,103.02l26.59,26.588
		c2.363,2.365,6.641,1.755,9.795-1.4l0.14-0.139c3.151-3.151,3.624-7.291,1.26-9.654l-11.194-11.197"/>
	<path fill="none" stroke="#009BD9" stroke-width="5" stroke-miterlimit="10" d="M119.394,86.229l1.399-1.399
		c0.773-0.773,0.773-2.026,0-2.799l-4.197-4.198c-0.773-0.772-2.025-0.772-2.799,0l-2.799,2.798"/>
	<path fill="none" stroke="#009BD9" stroke-width="5" stroke-miterlimit="10" d="M106.801,84.83l4.197-4.199
		c0.773-0.772,0.773-2.024,0-2.798l-4.197-4.197c-0.773-0.773-2.025-0.773-2.799,0l-4.197,4.197"/>
	<path fill="none" stroke="#009BD9" stroke-width="5" stroke-miterlimit="10" d="M110.152,99.458l3.645,3.587
		c0.774,0.762,2.021,0.758,2.787-0.012l9.809-9.806c0.772-0.773,0.772-2.027,0-2.801l-4.199-4.197c-0.774-0.773-2.027-0.773-2.8,0
		l-5.597,5.598"/>
	<path fill="none" stroke="#009BD9" stroke-width="5" stroke-miterlimit="10" d="M98.405,126.813l2.799-2.8
		c2.407-2.409,7.804,0.591,11.194-2.798c3.389-3.391,4.197-4.199,4.197-4.199"/>
	<path fill="none" stroke="#009BD9" stroke-width="5" stroke-miterlimit="10" d="M95.604,110.02
		c6.033-6.033,6.304-16.089,1.399-20.992c0.914,0.916,3.215,3.214,5.6,5.599c4.854,4.857,11.412,1.701,12.592-1.399
		c-1.522-1.525-15.391-15.394-15.391-15.394c-1.862-1.863-3.642-2.157-6.593-1.71c-2.949,0.447-7.679,0.926-9.329,2.142
		c-1.654,1.214-3.111,7.238-3.111,11.876c0,5.625-0.78,10.303-1.96,11.483l-2.799,2.799"/>
	<path fill="none" stroke="#009BD9" stroke-width="5" stroke-miterlimit="10" d="M126.393,93.227l5.597,5.597
		c0.773,0.772,0.773,2.025,0,2.799l-9.796,9.796c-0.774,0.772-2.027,0.772-2.8,0l-4.198-4.2c-0.771-0.771-0.771-2.024,0-2.797
		l1.4-1.4"/>
	
		<rect x="61.823" y="113.302" transform="matrix(0.7072 0.707 -0.707 0.7072 109.588 -22.2083)" fill="none" stroke="#009BD9" stroke-width="5" stroke-miterlimit="10" width="39.57" height="15.822"/>
	
		<line fill="none" stroke="#009BD9" stroke-width="5" stroke-miterlimit="10" x1="127.792" y1="119.814" x2="131.989" y2="124.013"/>
	<line fill="none" stroke="#009BD9" stroke-width="5" stroke-miterlimit="10" x1="71.816" y1="111.419" x2="74.614" y2="114.218"/>
	<path fill="none" stroke="#009BD9" stroke-width="5" stroke-miterlimit="10" d="M95.604,76.434l-6.813-6.815
		c1.565-5.086,0.344-10.85-3.684-14.875c-4.567-4.569-11.363-5.522-16.882-2.89l10.585,10.585l-6.995,6.997L61.23,58.85
		c-2.631,5.517-1.68,12.315,2.889,16.885c3.43,3.43,8.119,4.812,12.578,4.182l4.913,4.913"/>
</g>
</svg>
