<?xml version="1.0" encoding="utf-8"?>
<!-- Generator: Adobe Illustrator 16.0.0, SVG Export Plug-In . SVG Version: 6.00 Build 0)  -->
<!DOCTYPE svg PUBLIC "-//W3C//DTD SVG 1.1//EN" "http://www.w3.org/Graphics/SVG/1.1/DTD/svg11.dtd">
<svg version="1.1" id="Слой_1" xmlns="http://www.w3.org/2000/svg" xmlns:xlink="http://www.w3.org/1999/xlink" x="0px" y="0px"
	 width="200px" height="200px" viewBox="0 0 200 200" enable-background="new 0 0 200 200" xml:space="preserve">
<g>
	<path fill="none" stroke="#009BD9" stroke-width="5" stroke-linejoin="round" stroke-miterlimit="10" d="M125.002,95.957V84.542
		h-6.025c-0.46-2.854-1.126-3.219-1.979-4.708l5.125-5.083l-7.667-7.648l-4.883,5.134c-1.491-0.853-1.695-1.508-4.549-1.968v-5.706
		H93.608v5.706c-2.854,0.46-3.257,1.126-4.747,1.979l-5.103-5.125l-7.658,7.67l5.13,5.042c-0.853,1.489-1.512,1.854-1.975,4.708
		h-8.479v11.416h8.479c0.463,2.854,1.128,3.097,1.98,4.588l-5.126,5.022l7.67,7.617l5.081-5.15c1.49,0.853,1.894,1.493,4.747,1.953
		v8.802h11.416v-8.802c2.854-0.46,3.058-1.126,4.549-1.979l5.003,5.125l7.608-7.667l-5.156-4.922
		c0.853-1.491,1.488-1.734,1.948-4.588H125.002z"/>
	
		<circle fill="none" stroke="#009BD9" stroke-width="5" stroke-linejoin="round" stroke-miterlimit="10" cx="99.12" cy="90.313" r="8.627"/>
	<path fill="none" stroke="#009BD9" stroke-width="5" stroke-linejoin="round" stroke-miterlimit="10" d="M113.586,144.475v-5.809
		c0-9.99,5.726-12.664,13.423-20.127c6.924-6.715,12.587-17.038,12.587-30.209c0-20.873-18.777-37.76-40.279-37.76
		c-21.503,0-40.278,16.887-40.278,37.76c0,13.171,5.664,23.495,12.587,30.209c7.696,7.463,13.421,10.137,13.421,20.127v5.809"/>
	
		<line fill="none" stroke="#009BD9" stroke-width="5" stroke-linejoin="round" stroke-miterlimit="10" x1="82.192" y1="150.184" x2="116.44" y2="150.184"/>
	<polyline fill="none" stroke="#009BD9" stroke-width="5" stroke-linejoin="round" stroke-miterlimit="10" points="113.586,158.744 
		107.878,158.744 105.024,161.6 99.316,161.6 93.608,161.6 90.755,158.744 85.046,158.744 	"/>
	
		<line fill="none" stroke="#009BD9" stroke-width="5" stroke-linejoin="round" stroke-miterlimit="10" x1="90.755" y1="141.621" x2="107.878" y2="141.621"/>
	
		<line fill="none" stroke="#009BD9" stroke-width="5" stroke-linejoin="round" stroke-miterlimit="10" x1="86.021" y1="40.628" x2="83.066" y2="29.602"/>
	
		<line fill="none" stroke="#009BD9" stroke-width="5" stroke-linejoin="round" stroke-miterlimit="10" x1="62.99" y1="53.925" x2="54.919" y2="45.851"/>
	
		<line fill="none" stroke="#009BD9" stroke-width="5" stroke-linejoin="round" stroke-miterlimit="10" x1="49.695" y1="76.952" x2="38.668" y2="73.998"/>
	
		<line fill="none" stroke="#009BD9" stroke-width="5" stroke-linejoin="round" stroke-miterlimit="10" x1="49.695" y1="103.544" x2="38.668" y2="106.501"/>
	
		<line fill="none" stroke="#009BD9" stroke-width="5" stroke-linejoin="round" stroke-miterlimit="10" x1="62.99" y1="126.573" x2="54.919" y2="134.648"/>
	
		<line fill="none" stroke="#009BD9" stroke-width="5" stroke-linejoin="round" stroke-miterlimit="10" x1="135.644" y1="126.573" x2="143.715" y2="134.648"/>
	
		<line fill="none" stroke="#009BD9" stroke-width="5" stroke-linejoin="round" stroke-miterlimit="10" x1="148.938" y1="103.544" x2="159.964" y2="106.501"/>
	
		<line fill="none" stroke="#009BD9" stroke-width="5" stroke-linejoin="round" stroke-miterlimit="10" x1="148.938" y1="76.952" x2="159.964" y2="73.998"/>
	
		<line fill="none" stroke="#009BD9" stroke-width="5" stroke-linejoin="round" stroke-miterlimit="10" x1="135.644" y1="53.925" x2="143.715" y2="45.851"/>
	
		<line fill="none" stroke="#009BD9" stroke-width="5" stroke-linejoin="round" stroke-miterlimit="10" x1="112.61" y1="40.628" x2="115.564" y2="29.602"/>
</g>
</svg>
