<?xml version="1.0" encoding="utf-8"?>
<!-- Generator: Adobe Illustrator 16.0.0, SVG Export Plug-In . SVG Version: 6.00 Build 0)  -->
<!DOCTYPE svg PUBLIC "-//W3C//DTD SVG 1.1//EN" "http://www.w3.org/Graphics/SVG/1.1/DTD/svg11.dtd">
<svg version="1.1" id="Слой_1" xmlns="http://www.w3.org/2000/svg" xmlns:xlink="http://www.w3.org/1999/xlink" x="0px" y="0px"
	 width="45px" height="45px" viewBox="0 0 45 45" enable-background="new 0 0 45 45" xml:space="preserve">
<g>
	<path fill="none" stroke="#004B8A" stroke-width="2" stroke-miterlimit="10" d="M14.792,33.516l-3.222-3.223
		c0-0.553,0-0.861,0-1.414l1.416-1.221c0.068-0.424,0.215-0.73,0.283-1.156c-0.133-0.283-0.168-0.539-0.241-0.805
		c-0.364-0.271-0.591-0.459-0.954-0.73l-1.594,0.029c-0.4-0.395-0.613-0.611-1.012-1.006l0.021-3.105
		c0.412-0.391,0.635-0.602,1.047-0.993l1.504,0.07c0.376-0.271,0.631-0.454,1.008-0.726c0.069-0.246,0.15-0.483,0.274-0.748
		c-0.067-0.427-0.312-0.733-0.38-1.16L11.57,16.15c0-0.552,0-0.861,0-1.414l3.222-3.222c0.552,0,0.862,0,1.414,0l1.181,1.377
		c0.424,0.068,0.729,0.216,1.152,0.284c0.274-0.126,0.521-0.155,0.776-0.225c0.275-0.367,0.463-0.593,0.738-0.96l-0.032-1.573
		c0.395-0.4,0.611-0.613,1.006-1.015l3.102,0.024c0.391,0.41,0.602,0.634,0.992,1.043l-0.063,1.542
		c0.266,0.372,0.447,0.627,0.715,0.999c0.256,0.075,0.504,0.162,0.779,0.294c0.428-0.066,0.734-0.311,1.164-0.378l1.217-1.413
		c0.553,0,0.861,0,1.414,0l3.223,3.222c0,0.553,0,0.862,0,1.414l-1.402,1.206c-0.082,0.413-0.24,0.72-0.32,1.132
		c0.129,0.275,0.156,0.52,0.223,0.772c0.371,0.283,0.598,0.473,0.969,0.756l1.551-0.037c0.402,0.396,0.615,0.611,1.018,1.008
		l-0.027,3.087c-0.412,0.391-0.637,0.6-1.049,0.99l-1.51-0.072c-0.377,0.27-0.631,0.451-1.008,0.721
		c-0.07,0.246-0.152,0.482-0.277,0.744c0.066,0.43,0.311,0.734,0.379,1.164l1.455,1.258c0,0.553,0,0.861,0,1.414l-3.223,3.223
		c-0.553,0-0.861,0-1.414,0l-1.262-1.459c-0.424-0.068-0.73-0.217-1.154-0.285c-0.273,0.127-0.52,0.156-0.775,0.225
		c-0.275,0.367-0.463,0.594-0.738,0.961l0.033,1.572c-0.396,0.4-0.611,0.613-1.008,1.016l-3.088-0.025
		c-0.391-0.416-0.6-0.639-0.991-1.055l0.079-1.469c-0.278-0.383-0.463-0.639-0.742-1.021c-0.244-0.068-0.479-0.148-0.746-0.275
		c-0.41,0.076-0.713,0.33-1.122,0.406l-1.213,1.41C15.654,33.516,15.343,33.516,14.792,33.516z"/>
	<circle fill="none" stroke="#004B8A" stroke-width="2" stroke-miterlimit="10" cx="22.57" cy="22.515" r="4"/>
	<g>
		<polyline fill="none" stroke="#004B8A" stroke-width="2" stroke-miterlimit="10" points="10.57,34.516 4.57,34.516 4.57,40.516 		
			"/>
		<path fill="none" stroke="#004B8A" stroke-width="2" stroke-miterlimit="10" d="M3.441,31.033
			c-3.517-7.715-2.02-17.081,4.328-23.429c8.17-8.169,21.497-8.124,29.667,0.045l2.701,2.703"/>
		<path fill="none" stroke="#004B8A" stroke-width="2" stroke-miterlimit="10" d="M41.697,13.997
			c3.518,7.714,2.02,17.081-4.328,23.429c-8.168,8.17-21.497,8.123-29.665-0.045l-2.703-2.703"/>
		<polyline fill="none" stroke="#004B8A" stroke-width="2" stroke-miterlimit="10" points="34.57,10.515 40.57,10.515 40.57,4.515 
					"/>
	</g>
</g>
</svg>
