<?xml version="1.0" encoding="UTF-8"?>
<!DOCTYPE svg PUBLIC "-//W3C//DTD SVG 1.1//EN" "http://www.w3.org/Graphics/SVG/1.1/DTD/svg11.dtd">
<!-- Creator: CorelDRAW X8 -->
<svg xmlns="http://www.w3.org/2000/svg" xml:space="preserve" width="820px" height="895px" version="1.1" style="shape-rendering:geometricPrecision; text-rendering:geometricPrecision; image-rendering:optimizeQuality; fill-rule:evenodd; clip-rule:evenodd"
viewBox="0 0 16566386 18086239"
 xmlns:xlink="http://www.w3.org/1999/xlink">
 <defs>
  <style type="text/css">
   <![CDATA[
    .str0 {stroke:#179BD7;stroke-width:168395;stroke-linejoin:round}
    .fil0 {fill:none;fill-rule:nonzero}
   ]]>
  </style>
 </defs>
 <g id="Слой_x0020_1">
  <metadata id="CorelCorpID_0Corel-Layer"/>
  <g id="_1326634736">
   <polyline class="fil0 str0" points="11782037,9060506 11782037,7505475 10961372,7505475 "/>
   <path class="fil0 str0" d="M10961372 7505475c-62814,-388794 -153384,-438482 -269537,-641268"/>
   <polyline class="fil0 str0" points="10691835,6864207 11389830,6171725 10345235,5129994 9680079,5829326 "/>
   <path class="fil0 str0" d="M9680079 5829326c-203000,-116249 -230661,-205411 -619430,-268106"/>
   <polyline class="fil0 str0" points="9060649,5561220 9060649,4784087 7505618,4784087 7505618,5561220 "/>
   <path class="fil0 str0" d="M7505618 5561220c-388794,62695 -443565,153384 -646566,269657"/>
   <polyline class="fil0 str0" points="6859052,5830877 6163921,5132643 5120877,6177453 5819541,6864207 "/>
   <path class="fil0 str0" d="M5819541 6864207c-116154,202786 -205960,252474 -268893,641268"/>
   <polyline class="fil0 str0" points="5550648,7505475 4395532,7505475 4395532,9060506 5550648,9060506 "/>
   <path class="fil0 str0" d="M5550648 9060506c62933,388793 153527,421847 269657,624847"/>
   <polyline class="fil0 str0" points="5820305,9685353 5122190,10369578 6166785,11407109 6859052,10705462 "/>
   <path class="fil0 str0" d="M6859052 10705462c203001,116273 257772,203549 646566,266244"/>
   <polyline class="fil0 str0" points="7505618,10971706 7505618,12170568 9060649,12170568 9060649,10971706 "/>
   <path class="fil0 str0" d="M9060649 10971706c388769,-62695 416430,-153384 619430,-269537"/>
   <polyline class="fil0 str0" points="9680079,10702169 10361774,11400283 11398207,10355903 10695796,9685353 "/>
   <path class="fil0 str0" d="M10695796 9685353c116154,-203000 202762,-236054 265576,-624847"/>
   <line class="fil0 str0" x1="10961372" y1="9060506" x2="11782037" y2= "9060506" />
   <path class="fil0 str0" d="M9431567 8291749c0,649190 -526187,1175402 -1175163,1175402 -649071,0 -1175283,-526212 -1175283,-1175402 0,-648857 526212,-1175068 1175283,-1175068 648976,0 1175163,526211 1175163,1175068"/>
   <line class="fil0 str0" x1="10226886" y1="15669447" x2="10226886" y2= "14878209" />
   <path class="fil0 str0" d="M10226886 14878209c0,-1360980 779902,-1725073 1828220,-2741793 943095,-914551 1714501,-2320805 1714501,-4114992 0,-2843269 -2557408,-5143478 -5486426,-5143478 -2929018,0 -5486545,2300209 -5486545,5143478 0,1794187 771406,3200441 1714500,4114992 1048342,1016720 1828220,1380813 1828220,2741793"/>
   <line class="fil0 str0" x1="6339356" y1="14878209" x2="6339356" y2= "15669447" />
   <line class="fil0 str0" x1="5950563" y1="16447010" x2="10615680" y2= "16447010" />
   <polyline class="fil0 str0" points="10226886,17613248 9449418,17613248 9060649,18002041 8283181,18002041 7505618,18002041 7116824,17613248 6339356,17613248 "/>
   <line class="fil0 str0" x1="7116824" y1="15280654" x2="9449418" y2= "15280654" />
   <line class="fil0 str0" x1="6472049" y1="1523696" x2="6069580" y2= "21765" />
   <line class="fil0 str0" x1="3334971" y1="3335066" x2="2235509" y2= "2235151" />
   <line class="fil0 str0" x1="1523839" y1="6471691" x2="21789" y2= "6069222" />
   <line class="fil0 str0" x1="1523839" y1="10093860" x2="21789" y2= "10496758" />
   <line class="fil0 str0" x1="3334971" y1="13230914" x2="2235509" y2= "14330829" />
   <line class="fil0 str0" x1="13231272" y1="13230914" x2="14330757" y2= "14330829" />
   <line class="fil0 str0" x1="15042428" y1="10093860" x2="16544549" y2= "10496758" />
   <line class="fil0 str0" x1="15042428" y1="6471691" x2="16544549" y2= "6069222" />
   <line class="fil0 str0" x1="13231272" y1="3335066" x2="14330757" y2= "2235151" />
   <line class="fil0 str0" x1="10094218" y1="1523696" x2="10496662" y2= "21765" />
  </g>
 </g>
</svg>
