<?xml version="1.0" encoding="utf-8"?>
<!-- Generator: Adobe Illustrator 16.0.0, SVG Export Plug-In . SVG Version: 6.00 Build 0)  -->
<!DOCTYPE svg PUBLIC "-//W3C//DTD SVG 1.1//EN" "http://www.w3.org/Graphics/SVG/1.1/DTD/svg11.dtd">
<svg version="1.1" id="Слой_1" xmlns="http://www.w3.org/2000/svg" xmlns:xlink="http://www.w3.org/1999/xlink" x="0px" y="0px"
	 width="200px" height="200px" viewBox="0 0 200 200" enable-background="new 0 0 200 200" xml:space="preserve">
<g>
	<path fill="none" stroke="#009BD9" stroke-width="5" stroke-linejoin="round" stroke-miterlimit="10" d="M146.805,104.369V90.832
		h-9.658c-0.988-5.549-3.154-10.68-6.255-15.129l6.823-6.819l-9.575-9.574l-6.819,6.822c-4.449-3.101-9.58-5.267-15.129-6.255
		v-9.658H92.653v9.658c-5.548,0.989-10.68,3.155-15.129,6.255l-6.819-6.822l-9.574,9.574l6.822,6.819
		c-3.101,4.45-5.267,9.581-6.255,15.129h-9.658v13.537h9.658c0.988,5.549,3.155,10.681,6.255,15.13l-6.822,6.819l9.574,9.574
		l6.819-6.822c4.449,3.101,9.582,5.268,15.129,6.256v9.658h13.538v-9.658c5.549-0.988,10.68-3.155,15.129-6.256l6.819,6.822
		l9.575-9.574l-6.823-6.819c3.101-4.449,5.267-9.581,6.255-15.13H146.805z"/>
	<g>
		<path fill="#009BD9" d="M89.196,84.397h-5.901v16.212h-4.382V84.397h-5.901v-3.552h16.184V84.397z"/>
		<path fill="#009BD9" d="M92.706,82.664c1.232-1.461,3.432-2.19,6.602-2.19c3.169,0,5.376,0.729,6.617,2.19
			c1.241,1.462,1.862,4.15,1.862,8.064s-0.621,6.602-1.862,8.063s-3.448,2.191-6.617,2.191c-3.17,0-5.37-0.73-6.602-2.191
			s-1.848-4.148-1.848-8.063S91.474,84.126,92.706,82.664z M102.358,85.4c-0.544-0.936-1.562-1.404-3.051-1.404
			s-2.506,0.469-3.051,1.404c-0.544,0.936-0.815,2.711-0.815,5.328c0,2.616,0.271,4.392,0.815,5.327
			c0.545,0.937,1.562,1.403,3.051,1.403s2.507-0.467,3.051-1.403c0.544-0.936,0.815-2.711,0.815-5.327
			C103.174,88.111,102.902,86.336,102.358,85.4z"/>
		<path fill="#009BD9" d="M111.109,100.609V80.846c1.775-0.172,4.277-0.258,7.504-0.258c2.77,0,4.665,0.449,5.686,1.346
			c1.022,0.898,1.533,2.598,1.533,5.1s-0.482,4.205-1.446,5.113c-0.965,0.906-2.698,1.359-5.199,1.359
			c-1.26,0-2.501-0.075-3.724-0.229v7.332H111.109z M115.463,90.154h3.065c1.126-0.018,1.894-0.238,2.306-0.658
			c0.41-0.42,0.615-1.24,0.615-2.463s-0.205-2.043-0.615-2.464c-0.412-0.42-1.18-0.63-2.306-0.63l-3.065,0.028V90.154z"/>
		<path fill="#009BD9" d="M77.647,111.236l-2.202-0.591c-0.812-0.238-1.373-0.563-1.683-0.976c-0.311-0.411-0.465-0.981-0.465-1.71
			c0-0.919,0.283-1.568,0.85-1.951c0.567-0.382,1.537-0.572,2.909-0.572c1.587,0.023,2.948,0.138,4.082,0.34l-0.179,1.701
			c-1.504-0.024-2.639-0.036-3.402-0.036c-0.417,0-0.707,0.003-0.868,0.009c-0.162,0.006-0.323,0.027-0.483,0.063
			c-0.161,0.037-0.26,0.093-0.295,0.17c-0.036,0.078-0.054,0.194-0.054,0.35c0,0.06,0.003,0.113,0.009,0.16
			c0.006,0.049,0.021,0.094,0.045,0.135c0.024,0.042,0.045,0.074,0.062,0.098c0.019,0.025,0.051,0.053,0.099,0.082
			c0.047,0.029,0.086,0.051,0.116,0.063c0.03,0.012,0.083,0.033,0.161,0.063c0.077,0.029,0.137,0.051,0.179,0.063
			s0.119,0.033,0.233,0.063c0.113,0.029,0.2,0.051,0.26,0.063l2.256,0.609c0.788,0.227,1.349,0.527,1.683,0.904
			c0.333,0.375,0.501,0.934,0.501,1.674c0,1.05-0.305,1.763-0.914,2.139c-0.608,0.376-1.653,0.564-3.132,0.564
			c-1.433,0-2.751-0.103-3.957-0.305l0.161-1.719c0.43,0.024,1.45,0.035,3.062,0.035c0.918,0,1.518-0.038,1.799-0.115
			c0.28-0.078,0.42-0.26,0.42-0.547c0-0.059-0.002-0.113-0.009-0.16c-0.006-0.048-0.021-0.093-0.044-0.135
			c-0.024-0.042-0.048-0.074-0.072-0.099c-0.024-0.023-0.063-0.051-0.117-0.081c-0.053-0.029-0.095-0.053-0.125-0.07
			c-0.029-0.019-0.086-0.042-0.17-0.072c-0.083-0.029-0.149-0.051-0.196-0.063c-0.048-0.012-0.132-0.033-0.251-0.063
			C77.797,111.287,77.707,111.261,77.647,111.236z"/>
		<path fill="#009BD9" d="M88.783,110.985h-3.187c0.083,0.645,0.277,1.078,0.582,1.299c0.304,0.221,0.808,0.331,1.512,0.331
			c0.943,0,2.041-0.065,3.294-0.198l0.251,1.648c-0.92,0.441-2.203,0.662-3.85,0.662c-1.659,0-2.84-0.357-3.545-1.074
			c-0.704-0.717-1.056-1.897-1.056-3.544c0-1.731,0.343-2.943,1.029-3.635c0.686-0.691,1.841-1.038,3.464-1.038
			c1.468,0,2.53,0.253,3.186,0.761c0.656,0.507,0.99,1.28,1.003,2.318c0,0.823-0.212,1.44-0.636,1.853
			S89.726,110.985,88.783,110.985z M85.542,109.393h2.506c0.322,0,0.54-0.077,0.654-0.232c0.113-0.155,0.169-0.382,0.169-0.681
			c0-0.418-0.107-0.707-0.322-0.868s-0.609-0.241-1.181-0.241c-0.681,0-1.146,0.135-1.396,0.402
			C85.721,108.041,85.579,108.581,85.542,109.393z"/>
		<path fill="#009BD9" d="M100.42,112.417l0.231,1.719c-0.906,0.395-2.047,0.592-3.419,0.592c-1.623,0-2.766-0.35-3.428-1.047
			c-0.663-0.699-0.994-1.895-0.994-3.59c0-1.707,0.333-2.909,1.002-3.607c0.667-0.698,1.819-1.047,3.454-1.047
			c1.337,0,2.424,0.185,3.26,0.555l-0.287,1.646c-1.289-0.023-2.131-0.035-2.524-0.035c-0.812,0-1.369,0.173-1.674,0.52
			c-0.304,0.346-0.456,1.002-0.456,1.969s0.152,1.623,0.456,1.969c0.305,0.347,0.862,0.52,1.674,0.52
			C98.754,112.579,99.656,112.525,100.42,112.417z"/>
		<path fill="#009BD9" d="M108.6,105.437l-0.268,2.451h-0.716c-0.585,0-1.486,0.204-2.704,0.609v6.016h-2.648v-8.825h2.058
			l0.233,1.289c1.205-1.027,2.398-1.54,3.58-1.54H108.6z"/>
		<path fill="#009BD9" d="M115.367,110.985h-3.187c0.083,0.645,0.278,1.078,0.582,1.299c0.305,0.221,0.809,0.331,1.513,0.331
			c0.943,0,2.041-0.065,3.295-0.198l0.25,1.648c-0.92,0.441-2.201,0.662-3.85,0.662c-1.658,0-2.84-0.357-3.544-1.074
			s-1.056-1.897-1.056-3.544c0-1.731,0.342-2.943,1.028-3.635s1.841-1.038,3.464-1.038c1.469,0,2.53,0.253,3.188,0.761
			c0.656,0.507,0.99,1.28,1.002,2.318c0,0.823-0.213,1.44-0.635,1.853C116.994,110.78,116.311,110.985,115.367,110.985z
			 M112.127,109.393h2.506c0.323,0,0.541-0.077,0.654-0.232s0.17-0.382,0.17-0.681c0-0.418-0.107-0.707-0.322-0.868
			s-0.609-0.241-1.182-0.241c-0.68,0-1.146,0.135-1.396,0.402C112.307,108.041,112.163,108.581,112.127,109.393z"/>
		<path fill="#009BD9" d="M123.209,107.458v4.172c0,0.335,0.072,0.567,0.215,0.699c0.143,0.131,0.395,0.196,0.752,0.196h1.128
			l0.286,1.845c-0.68,0.237-1.51,0.357-2.488,0.357c-0.8,0-1.42-0.224-1.861-0.672c-0.442-0.447-0.662-1.07-0.662-1.87v-4.728
			h-1.559v-1.682l1.559-0.089v-2.471h2.631v2.471h2.453v1.771H123.209z"/>
	</g>
</g>
</svg>
